NotoAmalgamated-DisplayBoldCondensed.ufo
<glyph name="exclam.serif" format="2">
  <advance width="349"/>
  <unicode hex="0021"/>
  <outline>
    <contour>
      <point x="167" y="231" type="line"/>
      <point x="183" y="231" type="line"/>
      <point x="265" y="714" type="line"/>
      <point x="84" y="714" type="line"/>
    </contour>
    <contour>
      <point x="176" y="-8" type="curve" smooth="yes"/>
      <point x="213" y="-8"/>
      <point x="245" y="12"/>
      <point x="245" y="74" type="curve" smooth="yes"/>
      <point x="245" y="136"/>
      <point x="213" y="156"/>
      <point x="176" y="156" type="curve" smooth="yes"/>
      <point x="137" y="156"/>
      <point x="107" y="136"/>
      <point x="107" y="74" type="curve" smooth="yes"/>
      <point x="107" y="12"/>
      <point x="137" y="-8"/>
    </contour>
  </outline>
</glyph>
<glyph name="quotedbl" format="2">
  <advance width="477"/>
  <unicode hex="0022"/>
  <outline>
    <contour>
      <point x="211" y="714" type="line"/>
      <point x="37" y="714" type="line"/>
      <point x="57" y="456" type="line"/>
      <point x="192" y="456" type="line"/>
    </contour>
    <contour>
      <point x="440" y="714" type="line"/>
      <point x="266" y="714" type="line"/>
      <point x="286" y="456" type="line"/>
      <point x="421" y="456" type="line"/>
    </contour>
  </outline>
</glyph>
<glyph name="numbersign" format="2">
  <advance width="535"/>
  <unicode hex="0023"/>
  <outline>
    <contour>
      <point x="424" y="407" type="line"/>
      <point x="523" y="407" type="line"/>
      <point x="523" y="524" type="line"/>
      <point x="439" y="524" type="line"/>
      <point x="466" y="714" type="line"/>
      <point x="349" y="714" type="line"/>
      <point x="323" y="524" type="line"/>
      <point x="265" y="524" type="line"/>
      <point x="292" y="714" type="line"/>
      <point x="176" y="714" type="line"/>
      <point x="149" y="524" type="line"/>
      <point x="44" y="524" type="line"/>
      <point x="44" y="407" type="line"/>
      <point x="133" y="407" type="line"/>
      <point x="119" y="305" type="line"/>
      <point x="21" y="305" type="line"/>
      <point x="21" y="191" type="line"/>
      <point x="103" y="191" type="line"/>
      <point x="76" y="0" type="line"/>
      <point x="192" y="0" type="line"/>
      <point x="219" y="191" type="line"/>
      <point x="278" y="191" type="line"/>
      <point x="250" y="0" type="line"/>
      <point x="367" y="0" type="line"/>
      <point x="395" y="191" type="line"/>
      <point x="499" y="191" type="line"/>
      <point x="499" y="305" type="line"/>
      <point x="410" y="305" type="line"/>
    </contour>
    <contour>
      <point x="235" y="305" type="line"/>
      <point x="249" y="407" type="line"/>
      <point x="307" y="407" type="line"/>
      <point x="292" y="305" type="line"/>
    </contour>
  </outline>
</glyph>
<glyph name="numbersign.serif" format="2">
  <advance width="425"/>
  <unicode hex="0023"/>
  <outline>
    <contour>
      <point x="41" y="0" type="line"/>
      <point x="51" y="0" type="line"/>
      <point x="94" y="227" type="line"/>
      <point x="258" y="227" type="line"/>
      <point x="215" y="0" type="line"/>
      <point x="225" y="0" type="line"/>
      <point x="268" y="227" type="line"/>
      <point x="390" y="227" type="line"/>
      <point x="390" y="237" type="line"/>
      <point x="269" y="237" type="line"/>
      <point x="316" y="484" type="line"/>
      <point x="422" y="484" type="line"/>
      <point x="422" y="494" type="line"/>
      <point x="318" y="494" type="line"/>
      <point x="359" y="714" type="line"/>
      <point x="349" y="714" type="line"/>
      <point x="308" y="494" type="line"/>
      <point x="144" y="494" type="line"/>
      <point x="185" y="714" type="line"/>
      <point x="175" y="714" type="line"/>
      <point x="134" y="494" type="line"/>
      <point x="34" y="494" type="line"/>
      <point x="34" y="484" type="line"/>
      <point x="132" y="484" type="line"/>
      <point x="85" y="237" type="line"/>
      <point x="2" y="237" type="line"/>
      <point x="2" y="227" type="line"/>
      <point x="84" y="227" type="line"/>
    </contour>
    <contour>
      <point x="95" y="237" type="line"/>
      <point x="142" y="484" type="line"/>
      <point x="306" y="484" type="line"/>
      <point x="259" y="237" type="line"/>
    </contour>
  </outline>
</glyph>
<glyph name="dollar" format="2">
  <advance width="485"/>
  <unicode hex="0024"/>
  <outline>
    <contour>
      <point x="212" y="33" type="curve"/>
      <point x="212" y="-58" type="line"/>
      <point x="283" y="-58" type="line"/>
      <point x="283" y="37" type="line"/>
      <point x="384" y="58"/>
      <point x="442" y="134"/>
      <point x="442" y="233" type="curve" smooth="yes"/>
      <point x="442" y="331"/>
      <point x="393" y="379"/>
      <point x="283" y="422" type="curve"/>
      <point x="283" y="564" type="line"/>
      <point x="317" y="559"/>
      <point x="360" y="546"/>
      <point x="395" y="524" type="curve"/>
      <point x="429" y="645" type="line"/>
      <point x="381" y="672"/>
      <point x="329" y="688"/>
      <point x="283" y="692" type="curve"/>
      <point x="283" y="759" type="line"/>
      <point x="212" y="759" type="line"/>
      <point x="212" y="691" type="line"/>
      <point x="114" y="677"/>
      <point x="44" y="619"/>
      <point x="44" y="510" type="curve" smooth="yes"/>
      <point x="44" y="412"/>
      <point x="103" y="355"/>
      <point x="212" y="310" type="curve"/>
      <point x="212" y="155" type="line"/>
      <point x="161" y="157"/>
      <point x="98" y="187"/>
      <point x="50" y="220" type="curve"/>
      <point x="50" y="76" type="line"/>
      <point x="101" y="52"/>
      <point x="161" y="37"/>
    </contour>
    <contour>
      <point x="283" y="165" type="curve"/>
      <point x="283" y="278" type="line"/>
      <point x="303" y="264"/>
      <point x="316" y="248"/>
      <point x="316" y="223" type="curve" smooth="yes"/>
      <point x="316" y="196"/>
      <point x="308" y="176"/>
    </contour>
    <contour>
      <point x="212" y="563" type="curve"/>
      <point x="212" y="452" type="line"/>
      <point x="186" y="468"/>
      <point x="174" y="485"/>
      <point x="174" y="507" type="curve" smooth="yes"/>
      <point x="174" y="535"/>
      <point x="181" y="555"/>
    </contour>
  </outline>
</glyph>
<glyph name="dollar.serif" format="2">
  <advance width="466"/>
  <unicode hex="0024"/>
  <outline>
    <contour>
      <point x="236" y="41" type="curve"/>
      <point x="236" y="-79" type="line"/>
      <point x="246" y="-79" type="line"/>
      <point x="246" y="41" type="line"/>
      <point x="369" y="45"/>
      <point x="437" y="127"/>
      <point x="437" y="236" type="curve" smooth="yes"/>
      <point x="437" y="357"/>
      <point x="330" y="399"/>
      <point x="246" y="448" type="curve"/>
      <point x="246" y="673" type="line"/>
      <point x="295" y="666"/>
      <point x="311" y="625"/>
      <point x="311" y="514" type="curve"/>
      <point x="388" y="514"/>
      <point x="411" y="549"/>
      <point x="411" y="589" type="curve" smooth="yes"/>
      <point x="411" y="641"/>
      <point x="360" y="684"/>
      <point x="246" y="685" type="curve"/>
      <point x="246" y="760" type="line"/>
      <point x="236" y="760" type="line"/>
      <point x="236" y="685" type="line"/>
      <point x="120" y="682"/>
      <point x="51" y="610"/>
      <point x="51" y="511" type="curve" smooth="yes"/>
      <point x="51" y="377"/>
      <point x="153" y="341"/>
      <point x="236" y="296" type="curve"/>
      <point x="236" y="51" type="line"/>
      <point x="154" y="53"/>
      <point x="128" y="106"/>
      <point x="128" y="268" type="curve"/>
      <point x="87" y="268"/>
      <point x="36" y="247"/>
      <point x="36" y="185" type="curve" smooth="yes"/>
      <point x="36" y="127"/>
      <point x="73" y="41"/>
    </contour>
    <contour>
      <point x="246" y="51" type="curve"/>
      <point x="246" y="290" type="line"/>
      <point x="298" y="261"/>
      <point x="340" y="226"/>
      <point x="340" y="157" type="curve" smooth="yes"/>
      <point x="340" y="89"/>
      <point x="308" y="53"/>
    </contour>
    <contour>
      <point x="236" y="674" type="curve"/>
      <point x="236" y="454" type="line"/>
      <point x="185" y="484"/>
      <point x="145" y="518"/>
      <point x="145" y="576" type="curve" smooth="yes"/>
      <point x="145" y="641"/>
      <point x="176" y="674"/>
    </contour>
  </outline>
</glyph>
<glyph name="ampersand" format="2">
  <advance width="635"/>
  <unicode hex="0026"/>
  <outline>
    <contour>
      <point x="272" y="723" type="curve" smooth="yes"/>
      <point x="156" y="723"/>
      <point x="82" y="653"/>
      <point x="82" y="553" type="curve" smooth="yes"/>
      <point x="82" y="489"/>
      <point x="101" y="441"/>
      <point x="139" y="394" type="curve"/>
      <point x="60" y="349"/>
      <point x="21" y="284"/>
      <point x="21" y="198" type="curve" smooth="yes"/>
      <point x="21" y="71"/>
      <point x="89" y="-10"/>
      <point x="223" y="-10" type="curve" smooth="yes"/>
      <point x="299" y="-10"/>
      <point x="353" y="8"/>
      <point x="403" y="42" type="curve"/>
      <point x="431" y="0" type="line"/>
      <point x="640" y="0" type="line"/>
      <point x="523" y="150" type="line"/>
      <point x="569" y="227"/>
      <point x="598" y="315"/>
      <point x="612" y="401" type="curve"/>
      <point x="440" y="401" type="line"/>
      <point x="432" y="354"/>
      <point x="423" y="317"/>
      <point x="412" y="291" type="curve"/>
      <point x="349" y="375" type="line"/>
      <point x="414" y="424"/>
      <point x="456" y="481"/>
      <point x="456" y="553" type="curve" smooth="yes"/>
      <point x="456" y="658"/>
      <point x="391" y="723"/>
    </contour>
    <contour>
      <point x="218" y="294" type="curve"/>
      <point x="314" y="159" type="line"/>
      <point x="295" y="143"/>
      <point x="277" y="133"/>
      <point x="250" y="133" type="curve" smooth="yes"/>
      <point x="211" y="133"/>
      <point x="189" y="171"/>
      <point x="189" y="208" type="curve" smooth="yes"/>
      <point x="189" y="246"/>
      <point x="198" y="274"/>
    </contour>
    <contour>
      <point x="271" y="605" type="curve" smooth="yes"/>
      <point x="292" y="605"/>
      <point x="307" y="590"/>
      <point x="307" y="560" type="curve" smooth="yes"/>
      <point x="307" y="529"/>
      <point x="292" y="495"/>
      <point x="267" y="474" type="curve"/>
      <point x="245" y="502"/>
      <point x="234" y="529"/>
      <point x="234" y="554" type="curve" smooth="yes"/>
      <point x="234" y="589"/>
      <point x="251" y="605"/>
    </contour>
  </outline>
</glyph>
<glyph name="ampersand.serif" format="2">
  <advance width="704"/>
  <unicode hex="0026"/>
  <outline>
    <contour>
      <point x="261" y="-10" type="curve" smooth="yes"/>
      <point x="341" y="-10"/>
      <point x="404" y="14"/>
      <point x="452" y="66" type="curve"/>
      <point x="504" y="0" type="line"/>
      <point x="691" y="0" type="line"/>
      <point x="691" y="10" type="line"/>
      <point x="689" y="10" type="line" smooth="yes"/>
      <point x="679" y="10"/>
      <point x="672" y="14"/>
      <point x="621" y="78" type="curve" smooth="yes"/>
      <point x="530" y="191" type="line"/>
      <point x="541" y="221"/>
      <point x="548" y="247"/>
      <point x="564" y="312" type="curve" smooth="yes"/>
      <point x="583" y="389"/>
      <point x="591" y="418"/>
      <point x="657" y="418" type="curve" smooth="yes"/>
      <point x="670" y="418" type="line"/>
      <point x="670" y="428" type="line"/>
      <point x="472" y="428" type="line"/>
      <point x="472" y="384" type="line" smooth="yes"/>
      <point x="472" y="342"/>
      <point x="470" y="303"/>
      <point x="467" y="268" type="curve"/>
      <point x="342" y="424" type="line"/>
      <point x="453" y="457"/>
      <point x="477" y="532"/>
      <point x="477" y="587" type="curve" smooth="yes"/>
      <point x="477" y="668"/>
      <point x="424" y="724"/>
      <point x="310" y="724" type="curve" smooth="yes"/>
      <point x="195" y="724"/>
      <point x="131" y="667"/>
      <point x="131" y="562" type="curve" smooth="yes"/>
      <point x="131" y="504"/>
      <point x="150" y="450"/>
      <point x="205" y="379" type="curve"/>
      <point x="78" y="346"/>
      <point x="39" y="277"/>
      <point x="39" y="190" type="curve" smooth="yes"/>
      <point x="39" y="60"/>
      <point x="126" y="-10"/>
    </contour>
    <contour>
      <point x="305" y="7" type="curve" smooth="yes"/>
      <point x="239" y="7"/>
      <point x="185" y="45"/>
      <point x="185" y="199" type="curve" smooth="yes"/>
      <point x="185" y="276"/>
      <point x="199" y="338"/>
      <point x="213" y="369" type="curve"/>
      <point x="430" y="95" type="line"/>
      <point x="400" y="32"/>
      <point x="357" y="7"/>
    </contour>
    <contour>
      <point x="335" y="432" type="curve"/>
      <point x="277" y="507"/>
      <point x="253" y="557"/>
      <point x="253" y="621" type="curve" smooth="yes"/>
      <point x="253" y="678"/>
      <point x="272" y="714"/>
      <point x="313" y="714" type="curve" smooth="yes"/>
      <point x="356" y="714"/>
      <point x="378" y="673"/>
      <point x="378" y="589" type="curve" smooth="yes"/>
      <point x="378" y="494"/>
      <point x="350" y="449"/>
    </contour>
  </outline>
</glyph>
<glyph name="parenleft" format="2">
  <advance width="318"/>
  <unicode hex="0028"/>
  <outline>
    <contour>
      <point x="41" y="284" type="curve" smooth="yes"/>
      <point x="41" y="97"/>
      <point x="94" y="-43"/>
      <point x="169" y="-158" type="curve"/>
      <point x="318" y="-158" type="line"/>
      <point x="240" y="-17"/>
      <point x="195" y="117"/>
      <point x="195" y="285" type="curve" smooth="yes"/>
      <point x="195" y="459"/>
      <point x="235" y="604"/>
      <point x="318" y="734" type="curve"/>
      <point x="169" y="734" type="line"/>
      <point x="98" y="623"/>
      <point x="41" y="473"/>
    </contour>
  </outline>
</glyph>
<glyph name="parenleft.serif" format="2">
  <advance width="367"/>
  <unicode hex="0028"/>
  <outline>
    <contour>
      <point x="341" y="-142" type="curve"/>
      <point x="341" y="-132" type="line"/>
      <point x="245" y="-51"/>
      <point x="217" y="100"/>
      <point x="217" y="318" type="curve" smooth="yes"/>
      <point x="217" y="533"/>
      <point x="245" y="682"/>
      <point x="341" y="765" type="curve"/>
      <point x="341" y="775" type="line"/>
      <point x="130" y="682"/>
      <point x="47" y="526"/>
      <point x="47" y="318" type="curve" smooth="yes"/>
      <point x="47" y="109"/>
      <point x="130" y="-48"/>
    </contour>
  </outline>
</glyph>
<glyph name="parenright" format="2">
  <advance width="319"/>
  <unicode hex="0029"/>
  <outline>
    <contour>
      <point x="277" y="284" type="curve" smooth="yes"/>
      <point x="277" y="473"/>
      <point x="220" y="623"/>
      <point x="148" y="734" type="curve"/>
      <point x="0" y="734" type="line"/>
      <point x="82" y="604"/>
      <point x="122" y="459"/>
      <point x="122" y="285" type="curve" smooth="yes"/>
      <point x="122" y="117"/>
      <point x="78" y="-17"/>
      <point x="0" y="-158" type="curve"/>
      <point x="148" y="-158" type="line"/>
      <point x="225" y="-43"/>
      <point x="277" y="97"/>
    </contour>
  </outline>
</glyph>
<glyph name="parenright.serif" format="2">
  <advance width="367"/>
  <unicode hex="0029"/>
  <outline>
    <contour>
      <point x="26" y="-132" type="curve"/>
      <point x="26" y="-142" type="line"/>
      <point x="237" y="-48"/>
      <point x="320" y="109"/>
      <point x="320" y="318" type="curve" smooth="yes"/>
      <point x="320" y="526"/>
      <point x="237" y="682"/>
      <point x="26" y="775" type="curve"/>
      <point x="26" y="765" type="line"/>
      <point x="122" y="682"/>
      <point x="150" y="533"/>
      <point x="150" y="318" type="curve" smooth="yes"/>
      <point x="150" y="100"/>
      <point x="122" y="-51"/>
    </contour>
  </outline>
</glyph>
<glyph name="asterisk" format="2">
  <advance width="466"/>
  <unicode hex="002A"/>
  <outline>
    <contour>
      <point x="306" y="763" type="line"/>
      <point x="160" y="763" type="line"/>
      <point x="178" y="613" type="line"/>
      <point x="45" y="668" type="line"/>
      <point x="10" y="528" type="line"/>
      <point x="145" y="510" type="line"/>
      <point x="43" y="400" type="line"/>
      <point x="162" y="314" type="line"/>
      <point x="232" y="447" type="line"/>
      <point x="304" y="314" type="line"/>
      <point x="423" y="400" type="line"/>
      <point x="321" y="510" type="line"/>
      <point x="456" y="528" type="line"/>
      <point x="421" y="668" type="line"/>
      <point x="288" y="613" type="line"/>
    </contour>
  </outline>
</glyph>
<glyph name="asterisk.serif" format="2">
  <advance width="419"/>
  <unicode hex="002A"/>
  <outline>
    <contour>
      <point x="159" y="363" type="line"/>
      <point x="266" y="363" type="line"/>
      <point x="219" y="547" type="line"/>
      <point x="354" y="421" type="line"/>
      <point x="398" y="524" type="line"/>
      <point x="227" y="562" type="line"/>
      <point x="398" y="599" type="line"/>
      <point x="354" y="703" type="line"/>
      <point x="219" y="577" type="line"/>
      <point x="267" y="760" type="line"/>
      <point x="159" y="760" type="line"/>
      <point x="204" y="577" type="line"/>
      <point x="69" y="705" type="line"/>
      <point x="26" y="600" type="line"/>
      <point x="197" y="562" type="line"/>
      <point x="26" y="523" type="line"/>
      <point x="69" y="420" type="line"/>
      <point x="204" y="547" type="line"/>
    </contour>
  </outline>
</glyph>
<glyph name="plus" format="2">
  <advance width="489"/>
  <unicode hex="002B"/>
  <outline>
    <contour>
      <point x="312" y="418" type="line"/>
      <point x="312" y="597" type="line"/>
      <point x="177" y="597" type="line"/>
      <point x="177" y="418" type="line"/>
      <point x="33" y="418" type="line"/>
      <point x="33" y="287" type="line"/>
      <point x="177" y="287" type="line"/>
      <point x="177" y="111" type="line"/>
      <point x="312" y="111" type="line"/>
      <point x="312" y="287" type="line"/>
      <point x="456" y="287" type="line"/>
      <point x="456" y="418" type="line"/>
    </contour>
  </outline>
</glyph>
<glyph name="comma" format="2">
  <advance width="269"/>
  <unicode hex="002C"/>
  <outline>
    <contour>
      <point x="227" y="135" type="curve"/>
      <point x="223" y="146" type="line"/>
      <point x="64" y="146" type="line"/>
      <point x="61" y="71"/>
      <point x="43" y="-62"/>
      <point x="30" y="-139" type="curve"/>
      <point x="165" y="-139" type="line"/>
      <point x="193" y="-66"/>
      <point x="213" y="25"/>
    </contour>
  </outline>
</glyph>
<glyph name="comma.serif" format="2">
  <advance width="273"/>
  <unicode hex="002C"/>
  <outline>
    <contour>
      <point x="47" y="-145" type="curve"/>
      <point x="47" y="-156" type="line"/>
      <point x="162" y="-122"/>
      <point x="205" y="-45"/>
      <point x="205" y="40" type="curve" smooth="yes"/>
      <point x="205" y="111"/>
      <point x="175" y="156"/>
      <point x="122" y="156" type="curve" smooth="yes"/>
      <point x="83" y="156"/>
      <point x="55" y="134"/>
      <point x="55" y="80" type="curve" smooth="yes"/>
      <point x="55" y="-18"/>
      <point x="146" y="11"/>
      <point x="146" y="-55" type="curve" smooth="yes"/>
      <point x="146" y="-109"/>
      <point x="84" y="-135"/>
    </contour>
  </outline>
</glyph>
<glyph name="period" format="2">
  <advance width="269"/>
  <unicode hex="002E"/>
  <outline>
    <contour>
      <point x="43" y="81" type="curve" smooth="yes"/>
      <point x="43" y="22"/>
      <point x="79" y="-12"/>
      <point x="136" y="-12" type="curve" smooth="yes"/>
      <point x="193" y="-12"/>
      <point x="226" y="22"/>
      <point x="226" y="81" type="curve" smooth="yes"/>
      <point x="226" y="141"/>
      <point x="194" y="175"/>
      <point x="136" y="175" type="curve" smooth="yes"/>
      <point x="76" y="175"/>
      <point x="43" y="141"/>
    </contour>
  </outline>
</glyph>
<glyph name="period.serif" format="2">
  <advance width="273"/>
  <unicode hex="002E"/>
  <outline>
    <contour>
      <point x="136" y="-8" type="curve" smooth="yes"/>
      <point x="173" y="-8"/>
      <point x="206" y="12"/>
      <point x="206" y="74" type="curve" smooth="yes"/>
      <point x="206" y="136"/>
      <point x="173" y="156"/>
      <point x="136" y="156" type="curve" smooth="yes"/>
      <point x="97" y="156"/>
      <point x="67" y="136"/>
      <point x="67" y="74" type="curve" smooth="yes"/>
      <point x="67" y="12"/>
      <point x="97" y="-8"/>
    </contour>
  </outline>
</glyph>
<glyph name="slash" format="2">
  <advance width="416"/>
  <unicode hex="002F"/>
  <outline>
    <contour>
      <point x="415" y="724" type="line"/>
      <point x="274" y="724" type="line"/>
      <point x="2" y="-10" type="line"/>
      <point x="143" y="-10" type="line"/>
    </contour>
  </outline>
</glyph>
<glyph name="zero.serif" format="2">
  <advance width="476"/>
  <unicode hex="0030"/>
  <outline>
    <contour>
      <point x="238" y="-10" type="curve" smooth="yes"/>
      <point x="394" y="-10"/>
      <point x="449" y="134"/>
      <point x="449" y="358" type="curve" smooth="yes"/>
      <point x="449" y="584"/>
      <point x="394" y="724"/>
      <point x="239" y="724" type="curve" smooth="yes"/>
      <point x="75" y="724"/>
      <point x="26" y="582"/>
      <point x="26" y="359" type="curve" smooth="yes"/>
      <point x="26" y="133"/>
      <point x="75" y="-10"/>
    </contour>
    <contour>
      <point x="238" y="0" type="curve" smooth="yes"/>
      <point x="199" y="0"/>
      <point x="187" y="46"/>
      <point x="187" y="358" type="curve" smooth="yes"/>
      <point x="187" y="669"/>
      <point x="199" y="714"/>
      <point x="239" y="714" type="curve" smooth="yes"/>
      <point x="276" y="714"/>
      <point x="288" y="669"/>
      <point x="288" y="358" type="curve" smooth="yes"/>
      <point x="288" y="46"/>
      <point x="276" y="0"/>
    </contour>
  </outline>
</glyph>
<glyph name="one" format="2">
  <advance width="485"/>
  <unicode hex="0031"/>
  <outline>
    <contour>
      <point x="395" y="0" type="line"/>
      <point x="395" y="714" type="line"/>
      <point x="244" y="714" type="line"/>
      <point x="35" y="487" type="line"/>
      <point x="137" y="390" type="line"/>
      <point x="196" y="457" type="line" smooth="yes"/>
      <point x="210" y="473"/>
      <point x="220" y="488"/>
      <point x="229" y="502" type="curve"/>
      <point x="228" y="464"/>
      <point x="227" y="422"/>
      <point x="227" y="376" type="curve" smooth="yes"/>
      <point x="227" y="0" type="line"/>
    </contour>
  </outline>
</glyph>
<glyph name="one.serif" format="2">
  <advance width="476"/>
  <unicode hex="0031"/>
  <outline>
    <contour>
      <point x="69" y="0" type="line"/>
      <point x="442" y="0" type="line"/>
      <point x="442" y="10" type="line"/>
      <point x="386" y="10" type="line" smooth="yes"/>
      <point x="348" y="10"/>
      <point x="340" y="33"/>
      <point x="340" y="75" type="curve" smooth="yes"/>
      <point x="340" y="718" type="line"/>
      <point x="256" y="718" type="line"/>
      <point x="223" y="682" type="line" smooth="yes"/>
      <point x="148" y="599"/>
      <point x="115" y="583"/>
      <point x="25" y="581" type="curve"/>
      <point x="25" y="536"/>
      <point x="49" y="515"/>
      <point x="80" y="515" type="curve" smooth="yes"/>
      <point x="112" y="515"/>
      <point x="137" y="545"/>
      <point x="186" y="622" type="curve"/>
      <point x="186" y="75" type="line" smooth="yes"/>
      <point x="186" y="25"/>
      <point x="172" y="10"/>
      <point x="141" y="10" type="curve" smooth="yes"/>
      <point x="69" y="10" type="line"/>
    </contour>
  </outline>
</glyph>
<glyph name="two" format="2">
  <advance width="485"/>
  <unicode hex="0032"/>
  <outline>
    <contour>
      <point x="433" y="0" type="line"/>
      <point x="433" y="146" type="line"/>
      <point x="226" y="146" type="line"/>
      <point x="226" y="151" type="line"/>
      <point x="304" y="250" type="line" smooth="yes"/>
      <point x="400" y="372"/>
      <point x="423" y="441"/>
      <point x="423" y="524" type="curve" smooth="yes"/>
      <point x="423" y="645"/>
      <point x="338" y="724"/>
      <point x="224" y="724" type="curve" smooth="yes"/>
      <point x="142" y="724"/>
      <point x="81" y="694"/>
      <point x="18" y="610" type="curve"/>
      <point x="99" y="501" type="line"/>
      <point x="142" y="560"/>
      <point x="172" y="578"/>
      <point x="204" y="578" type="curve" smooth="yes"/>
      <point x="239" y="578"/>
      <point x="256" y="553"/>
      <point x="256" y="513" type="curve" smooth="yes"/>
      <point x="256" y="465"/>
      <point x="242" y="421"/>
      <point x="155" y="300" type="curve" smooth="yes"/>
      <point x="25" y="119" type="line"/>
      <point x="25" y="0" type="line"/>
    </contour>
  </outline>
</glyph>
<glyph name="two.serif" format="2">
  <advance width="476"/>
  <unicode hex="0032"/>
  <outline>
    <contour>
      <point x="27" y="0" type="line"/>
      <point x="441" y="0" type="line"/>
      <point x="449" y="220" type="line"/>
      <point x="439" y="220" type="line"/>
      <point x="436" y="185" type="line" smooth="yes"/>
      <point x="432" y="134"/>
      <point x="412" y="118"/>
      <point x="368" y="118" type="curve" smooth="yes"/>
      <point x="54" y="118" type="line"/>
      <point x="185" y="229" type="line" smooth="yes"/>
      <point x="394" y="406"/>
      <point x="429" y="463"/>
      <point x="429" y="550" type="curve" smooth="yes"/>
      <point x="429" y="654"/>
      <point x="360" y="724"/>
      <point x="221" y="724" type="curve" smooth="yes"/>
      <point x="89" y="724"/>
      <point x="27" y="651"/>
      <point x="27" y="582" type="curve" smooth="yes"/>
      <point x="27" y="507"/>
      <point x="88" y="488"/>
      <point x="154" y="488" type="curve"/>
      <point x="154" y="660"/>
      <point x="167" y="714"/>
      <point x="215" y="714" type="curve" smooth="yes"/>
      <point x="257" y="714"/>
      <point x="272" y="674"/>
      <point x="272" y="549" type="curve" smooth="yes"/>
      <point x="272" y="448"/>
      <point x="270" y="359"/>
      <point x="154" y="237" type="curve" smooth="yes"/>
      <point x="27" y="103" type="line"/>
    </contour>
  </outline>
</glyph>
<glyph name="three" format="2">
  <advance width="485"/>
  <unicode hex="0033"/>
  <outline>
    <contour>
      <point x="429" y="538" type="curve" smooth="yes"/>
      <point x="429" y="663"/>
      <point x="354" y="724"/>
      <point x="235" y="724" type="curve" smooth="yes"/>
      <point x="151" y="724"/>
      <point x="92" y="706"/>
      <point x="30" y="657" type="curve"/>
      <point x="91" y="535" type="line"/>
      <point x="130" y="565"/>
      <point x="166" y="580"/>
      <point x="198" y="580" type="curve" smooth="yes"/>
      <point x="243" y="580"/>
      <point x="264" y="561"/>
      <point x="264" y="520" type="curve" smooth="yes"/>
      <point x="264" y="463"/>
      <point x="226" y="435"/>
      <point x="148" y="435" type="curve" smooth="yes"/>
      <point x="112" y="435" type="line"/>
      <point x="112" y="296" type="line"/>
      <point x="147" y="296" type="line" smooth="yes"/>
      <point x="234" y="296"/>
      <point x="267" y="273"/>
      <point x="267" y="211" type="curve" smooth="yes"/>
      <point x="267" y="158"/>
      <point x="238" y="134"/>
      <point x="174" y="134" type="curve" smooth="yes"/>
      <point x="132" y="134"/>
      <point x="79" y="149"/>
      <point x="29" y="181" type="curve"/>
      <point x="29" y="27" type="line"/>
      <point x="93" y="-2"/>
      <point x="138" y="-10"/>
      <point x="202" y="-10" type="curve" smooth="yes"/>
      <point x="352" y="-10"/>
      <point x="445" y="71"/>
      <point x="445" y="204" type="curve" smooth="yes"/>
      <point x="445" y="297"/>
      <point x="400" y="353"/>
      <point x="309" y="373" type="curve"/>
      <point x="309" y="376" type="line"/>
      <point x="386" y="405"/>
      <point x="429" y="466"/>
    </contour>
  </outline>
</glyph>
<glyph name="three.serif" format="2">
  <advance width="476"/>
  <unicode hex="0033"/>
  <outline>
    <contour>
      <point x="207" y="-10" type="curve" smooth="yes"/>
      <point x="334" y="-10"/>
      <point x="448" y="45"/>
      <point x="448" y="191" type="curve" smooth="yes"/>
      <point x="448" y="311"/>
      <point x="370" y="371"/>
      <point x="228" y="372" type="curve"/>
      <point x="378" y="388"/>
      <point x="426" y="471"/>
      <point x="426" y="556" type="curve" smooth="yes"/>
      <point x="426" y="665"/>
      <point x="348" y="724"/>
      <point x="221" y="724" type="curve" smooth="yes"/>
      <point x="91" y="724"/>
      <point x="25" y="668"/>
      <point x="25" y="597" type="curve" smooth="yes"/>
      <point x="25" y="536"/>
      <point x="67" y="508"/>
      <point x="148" y="508" type="curve"/>
      <point x="148" y="665"/>
      <point x="165" y="714"/>
      <point x="212" y="714" type="curve" smooth="yes"/>
      <point x="257" y="714"/>
      <point x="269" y="674"/>
      <point x="269" y="547" type="curve" smooth="yes"/>
      <point x="269" y="416"/>
      <point x="245" y="374"/>
      <point x="170" y="374" type="curve" smooth="yes"/>
      <point x="113" y="374" type="line"/>
      <point x="113" y="364" type="line"/>
      <point x="170" y="364" type="line" smooth="yes"/>
      <point x="260" y="364"/>
      <point x="289" y="323"/>
      <point x="289" y="192" type="curve" smooth="yes"/>
      <point x="289" y="54"/>
      <point x="265" y="0"/>
      <point x="197" y="0" type="curve" smooth="yes"/>
      <point x="129" y="0"/>
      <point x="103" y="53"/>
      <point x="103" y="188" type="curve"/>
      <point x="52" y="188"/>
      <point x="18" y="161"/>
      <point x="18" y="111" type="curve" smooth="yes"/>
      <point x="18" y="47"/>
      <point x="76" y="-10"/>
    </contour>
  </outline>
</glyph>
<glyph name="four" format="2">
  <advance width="485"/>
  <unicode hex="0034"/>
  <outline>
    <contour>
      <point x="472" y="138" type="line"/>
      <point x="472" y="275" type="line"/>
      <point x="404" y="275" type="line"/>
      <point x="404" y="714" type="line"/>
      <point x="244" y="714" type="line"/>
      <point x="15" y="272" type="line"/>
      <point x="15" y="138" type="line"/>
      <point x="239" y="138" type="line"/>
      <point x="239" y="0" type="line"/>
      <point x="404" y="0" type="line"/>
      <point x="404" y="138" type="line"/>
    </contour>
    <contour>
      <point x="240" y="372" type="curve" smooth="yes"/>
      <point x="240" y="275" type="line"/>
      <point x="148" y="275" type="line"/>
      <point x="211" y="406" type="line" smooth="yes"/>
      <point x="221" y="426"/>
      <point x="231" y="449"/>
      <point x="239" y="477" type="curve"/>
      <point x="242" y="477" type="line"/>
      <point x="241" y="474"/>
      <point x="240" y="384"/>
    </contour>
  </outline>
</glyph>
<glyph name="four.serif" format="2">
  <advance width="476"/>
  <unicode hex="0034"/>
  <outline>
    <contour>
      <point x="133" y="0" type="line"/>
      <point x="457" y="0" type="line"/>
      <point x="457" y="10" type="line"/>
      <point x="455" y="10" type="line" smooth="yes"/>
      <point x="415" y="10"/>
      <point x="378" y="19"/>
      <point x="378" y="82" type="curve" smooth="yes"/>
      <point x="378" y="186" type="line"/>
      <point x="452" y="186" type="line"/>
      <point x="452" y="252" type="line"/>
      <point x="378" y="252" type="line"/>
      <point x="378" y="714" type="line"/>
      <point x="232" y="714" type="line"/>
      <point x="14" y="247" type="line"/>
      <point x="14" y="186" type="line"/>
      <point x="225" y="186" type="line"/>
      <point x="225" y="82" type="line" smooth="yes"/>
      <point x="225" y="19"/>
      <point x="188" y="10"/>
      <point x="143" y="10" type="curve" smooth="yes"/>
      <point x="133" y="10" type="line"/>
    </contour>
    <contour>
      <point x="27" y="252" type="line"/>
      <point x="162" y="541" type="line" smooth="yes"/>
      <point x="178" y="575"/>
      <point x="211" y="647"/>
      <point x="227" y="683" type="curve"/>
      <point x="225" y="628"/>
      <point x="225" y="547"/>
      <point x="225" y="473" type="curve" smooth="yes"/>
      <point x="225" y="252" type="line"/>
    </contour>
  </outline>
</glyph>
<glyph name="five" format="2">
  <advance width="485"/>
  <unicode hex="0035"/>
  <outline>
    <contour>
      <point x="276" y="468" type="curve" smooth="yes"/>
      <point x="262" y="468"/>
      <point x="241" y="467"/>
      <point x="214" y="459" type="curve"/>
      <point x="220" y="567" type="line"/>
      <point x="409" y="567" type="line"/>
      <point x="409" y="714" type="line"/>
      <point x="78" y="714" type="line"/>
      <point x="58" y="345" type="line"/>
      <point x="111" y="310" type="line"/>
      <point x="138" y="321"/>
      <point x="161" y="327"/>
      <point x="184" y="327" type="curve" smooth="yes"/>
      <point x="243" y="327"/>
      <point x="273" y="292"/>
      <point x="273" y="232" type="curve" smooth="yes"/>
      <point x="273" y="167"/>
      <point x="243" y="134"/>
      <point x="192" y="134" type="curve" smooth="yes"/>
      <point x="147" y="134"/>
      <point x="93" y="153"/>
      <point x="49" y="179" type="curve"/>
      <point x="49" y="27" type="line"/>
      <point x="92" y="2"/>
      <point x="144" y="-10"/>
      <point x="203" y="-10" type="curve" smooth="yes"/>
      <point x="366" y="-10"/>
      <point x="444" y="78"/>
      <point x="444" y="238" type="curve" smooth="yes"/>
      <point x="444" y="374"/>
      <point x="372" y="468"/>
    </contour>
  </outline>
</glyph>
<glyph name="five.serif" format="2">
  <advance width="476"/>
  <unicode hex="0035"/>
  <outline>
    <contour>
      <point x="205" y="-10" type="curve" smooth="yes"/>
      <point x="324" y="-10"/>
      <point x="439" y="47"/>
      <point x="439" y="220" type="curve" smooth="yes"/>
      <point x="439" y="353"/>
      <point x="356" y="434"/>
      <point x="220" y="434" type="curve" smooth="yes"/>
      <point x="154" y="434"/>
      <point x="106" y="411"/>
      <point x="74" y="369" type="curve"/>
      <point x="93" y="597" type="line"/>
      <point x="341" y="597" type="line" smooth="yes"/>
      <point x="385" y="597"/>
      <point x="399" y="583"/>
      <point x="402" y="539" type="curve" smooth="yes"/>
      <point x="403" y="525" type="line"/>
      <point x="412" y="525" type="line"/>
      <point x="405" y="714" type="line"/>
      <point x="93" y="714" type="line"/>
      <point x="63" y="359" type="line"/>
      <point x="74" y="355" type="line"/>
      <point x="105" y="396"/>
      <point x="144" y="417"/>
      <point x="179" y="417" type="curve" smooth="yes"/>
      <point x="252" y="417"/>
      <point x="281" y="362"/>
      <point x="281" y="220" type="curve" smooth="yes"/>
      <point x="281" y="62"/>
      <point x="257" y="0"/>
      <point x="194" y="0" type="curve" smooth="yes"/>
      <point x="131" y="0"/>
      <point x="107" y="73"/>
      <point x="107" y="190" type="curve"/>
      <point x="65" y="190"/>
      <point x="29" y="167"/>
      <point x="29" y="111" type="curve" smooth="yes"/>
      <point x="29" y="49"/>
      <point x="85" y="-10"/>
    </contour>
  </outline>
</glyph>
<glyph name="six.serif" format="2">
  <advance width="476"/>
  <unicode hex="0036"/>
  <outline>
    <contour>
      <point x="249" y="-10" type="curve" smooth="yes"/>
      <point x="383" y="-10"/>
      <point x="452" y="88"/>
      <point x="452" y="231" type="curve" smooth="yes"/>
      <point x="452" y="361"/>
      <point x="383" y="438"/>
      <point x="277" y="438" type="curve" smooth="yes"/>
      <point x="239" y="438"/>
      <point x="201" y="416"/>
      <point x="180" y="391" type="curve"/>
      <point x="183" y="629"/>
      <point x="206" y="713"/>
      <point x="267" y="713" type="curve" smooth="yes"/>
      <point x="308" y="713"/>
      <point x="322" y="665"/>
      <point x="322" y="530" type="curve"/>
      <point x="399" y="530"/>
      <point x="437" y="567"/>
      <point x="437" y="611" type="curve" smooth="yes"/>
      <point x="437" y="665"/>
      <point x="388" y="724"/>
      <point x="287" y="724" type="curve" smooth="yes"/>
      <point x="106" y="724"/>
      <point x="32" y="550"/>
      <point x="32" y="330" type="curve" smooth="yes"/>
      <point x="32" y="97"/>
      <point x="120" y="-10"/>
    </contour>
    <contour>
      <point x="252" y="0" type="curve" smooth="yes"/>
      <point x="197" y="0"/>
      <point x="180" y="90"/>
      <point x="180" y="375" type="curve"/>
      <point x="199" y="402"/>
      <point x="223" y="417"/>
      <point x="244" y="417" type="curve" smooth="yes"/>
      <point x="290" y="417"/>
      <point x="304" y="370"/>
      <point x="304" y="221" type="curve" smooth="yes"/>
      <point x="304" y="53"/>
      <point x="292" y="0"/>
    </contour>
  </outline>
</glyph>
<glyph name="seven" format="2">
  <advance width="485"/>
  <unicode hex="0037"/>
  <outline>
    <contour>
      <point x="82" y="0" type="line"/>
      <point x="260" y="0" type="line"/>
      <point x="449" y="600" type="line"/>
      <point x="449" y="714" type="line"/>
      <point x="36" y="714" type="line"/>
      <point x="36" y="567" type="line"/>
      <point x="279" y="567" type="line"/>
    </contour>
  </outline>
</glyph>
<glyph name="seven.serif" format="2">
  <advance width="476"/>
  <unicode hex="0037"/>
  <outline>
    <contour>
      <point x="123" y="0" type="line"/>
      <point x="216" y="0" type="line"/>
      <point x="440" y="660" type="line"/>
      <point x="440" y="714" type="line"/>
      <point x="46" y="714" type="line"/>
      <point x="39" y="496" type="line"/>
      <point x="49" y="496" type="line"/>
      <point x="51" y="517" type="line" smooth="yes"/>
      <point x="57" y="578"/>
      <point x="76" y="597"/>
      <point x="131" y="597" type="curve" smooth="yes"/>
      <point x="409" y="597" type="line"/>
    </contour>
  </outline>
</glyph>
<glyph name="eight" format="2">
  <advance width="485"/>
  <unicode hex="0038"/>
  <outline>
    <contour>
      <point x="243" y="724" type="curve" smooth="yes"/>
      <point x="121" y="724"/>
      <point x="46" y="661"/>
      <point x="46" y="551" type="curve" smooth="yes"/>
      <point x="46" y="481"/>
      <point x="72" y="424"/>
      <point x="133" y="373" type="curve"/>
      <point x="59" y="325"/>
      <point x="29" y="264"/>
      <point x="29" y="188" type="curve" smooth="yes"/>
      <point x="29" y="61"/>
      <point x="104" y="-10"/>
      <point x="241" y="-10" type="curve" smooth="yes"/>
      <point x="376" y="-10"/>
      <point x="455" y="63"/>
      <point x="455" y="190" type="curve" smooth="yes"/>
      <point x="455" y="259"/>
      <point x="427" y="316"/>
      <point x="344" y="376" type="curve"/>
      <point x="410" y="418"/>
      <point x="437" y="474"/>
      <point x="437" y="550" type="curve" smooth="yes"/>
      <point x="437" y="661"/>
      <point x="368" y="724"/>
    </contour>
    <contour>
      <point x="187" y="191" type="curve" smooth="yes"/>
      <point x="187" y="228"/>
      <point x="201" y="259"/>
      <point x="240" y="291" type="curve"/>
      <point x="249" y="283" type="line" smooth="yes"/>
      <point x="290" y="247"/>
      <point x="296" y="218"/>
      <point x="296" y="187" type="curve" smooth="yes"/>
      <point x="296" y="144"/>
      <point x="278" y="122"/>
      <point x="240" y="122" type="curve" smooth="yes"/>
      <point x="205" y="122"/>
      <point x="187" y="148"/>
    </contour>
    <contour>
      <point x="243" y="592" type="curve" smooth="yes"/>
      <point x="263" y="592"/>
      <point x="281" y="571"/>
      <point x="281" y="538" type="curve" smooth="yes"/>
      <point x="281" y="508"/>
      <point x="273" y="488"/>
      <point x="241" y="459" type="curve"/>
      <point x="215" y="482"/>
      <point x="204" y="508"/>
      <point x="204" y="538" type="curve" smooth="yes"/>
      <point x="204" y="570"/>
      <point x="219" y="592"/>
    </contour>
  </outline>
</glyph>
<glyph name="eight.serif" format="2">
  <advance width="476"/>
  <unicode hex="0038"/>
  <outline>
    <contour>
      <point x="236" y="-10" type="curve" smooth="yes"/>
      <point x="376" y="-10"/>
      <point x="456" y="64"/>
      <point x="456" y="188" type="curve" smooth="yes"/>
      <point x="456" y="311"/>
      <point x="376" y="361"/>
      <point x="300" y="412" type="curve"/>
      <point x="386" y="437"/>
      <point x="429" y="481"/>
      <point x="429" y="558" type="curve" smooth="yes"/>
      <point x="429" y="649"/>
      <point x="370" y="724"/>
      <point x="239" y="724" type="curve" smooth="yes"/>
      <point x="96" y="724"/>
      <point x="40" y="634"/>
      <point x="40" y="539" type="curve" smooth="yes"/>
      <point x="40" y="443"/>
      <point x="98" y="394"/>
      <point x="162" y="348" type="curve"/>
      <point x="60" y="316"/>
      <point x="20" y="258"/>
      <point x="20" y="177" type="curve" smooth="yes"/>
      <point x="20" y="70"/>
      <point x="90" y="-10"/>
    </contour>
    <contour>
      <point x="244" y="0" type="curve" smooth="yes"/>
      <point x="173" y="0"/>
      <point x="149" y="56"/>
      <point x="149" y="173" type="curve" smooth="yes"/>
      <point x="149" y="250"/>
      <point x="160" y="309"/>
      <point x="176" y="338" type="curve"/>
      <point x="252" y="285"/>
      <point x="331" y="233"/>
      <point x="331" y="112" type="curve" smooth="yes"/>
      <point x="331" y="38"/>
      <point x="302" y="0"/>
    </contour>
    <contour>
      <point x="288" y="420" type="curve"/>
      <point x="224" y="465"/>
      <point x="165" y="513"/>
      <point x="165" y="612" type="curve" smooth="yes"/>
      <point x="165" y="674"/>
      <point x="188" y="714"/>
      <point x="236" y="714" type="curve" smooth="yes"/>
      <point x="289" y="714"/>
      <point x="308" y="667"/>
      <point x="308" y="566" type="curve" smooth="yes"/>
      <point x="308" y="519"/>
      <point x="304" y="450"/>
    </contour>
  </outline>
</glyph>
<glyph name="nine" format="2">
  <advance width="485"/>
  <unicode hex="0039"/>
  <outline>
    <contour>
      <point x="455" y="413" type="curve" smooth="yes"/>
      <point x="455" y="608"/>
      <point x="371" y="724"/>
      <point x="235" y="724" type="curve" smooth="yes"/>
      <point x="106" y="724"/>
      <point x="29" y="626"/>
      <point x="29" y="470" type="curve" smooth="yes"/>
      <point x="29" y="326"/>
      <point x="87" y="238"/>
      <point x="186" y="238" type="curve" smooth="yes"/>
      <point x="237" y="238"/>
      <point x="272" y="266"/>
      <point x="295" y="321" type="curve"/>
      <point x="300" y="321" type="line"/>
      <point x="296" y="187"/>
      <point x="247" y="130"/>
      <point x="147" y="130" type="curve" smooth="yes"/>
      <point x="118" y="130"/>
      <point x="90" y="133"/>
      <point x="63" y="140" type="curve"/>
      <point x="63" y="-1" type="line"/>
      <point x="96" y="-7"/>
      <point x="129" y="-10"/>
      <point x="164" y="-10" type="curve" smooth="yes"/>
      <point x="388" y="-10"/>
      <point x="455" y="186"/>
    </contour>
    <contour>
      <point x="239" y="580" type="curve"/>
      <point x="281" y="580"/>
      <point x="285" y="494"/>
      <point x="285" y="462" type="curve" smooth="yes"/>
      <point x="285" y="430"/>
      <point x="274" y="378"/>
      <point x="238" y="378" type="curve" smooth="yes"/>
      <point x="209" y="378"/>
      <point x="195" y="410"/>
      <point x="195" y="473" type="curve" smooth="yes"/>
      <point x="195" y="547"/>
      <point x="213" y="580"/>
    </contour>
  </outline>
</glyph>
<glyph name="nine.serif" format="2">
  <advance width="476"/>
  <unicode hex="0039"/>
  <outline>
    <contour>
      <point x="191" y="-10" type="curve" smooth="yes"/>
      <point x="370" y="-10"/>
      <point x="444" y="164"/>
      <point x="444" y="384" type="curve" smooth="yes"/>
      <point x="444" y="617"/>
      <point x="356" y="724"/>
      <point x="227" y="724" type="curve" smooth="yes"/>
      <point x="93" y="724"/>
      <point x="24" y="626"/>
      <point x="24" y="483" type="curve" smooth="yes"/>
      <point x="24" y="353"/>
      <point x="93" y="276"/>
      <point x="199" y="276" type="curve" smooth="yes"/>
      <point x="241" y="276"/>
      <point x="275" y="298"/>
      <point x="296" y="323" type="curve"/>
      <point x="293" y="85"/>
      <point x="269" y="1"/>
      <point x="203" y="1" type="curve" smooth="yes"/>
      <point x="145" y="1"/>
      <point x="124" y="49"/>
      <point x="124" y="184" type="curve"/>
      <point x="71" y="181"/>
      <point x="39" y="150"/>
      <point x="39" y="105" type="curve" smooth="yes"/>
      <point x="39" y="49"/>
      <point x="88" y="-10"/>
    </contour>
    <contour>
      <point x="232" y="297" type="curve" smooth="yes"/>
      <point x="186" y="297"/>
      <point x="172" y="344"/>
      <point x="172" y="493" type="curve" smooth="yes"/>
      <point x="172" y="661"/>
      <point x="184" y="714"/>
      <point x="224" y="714" type="curve" smooth="yes"/>
      <point x="279" y="714"/>
      <point x="296" y="624"/>
      <point x="296" y="339" type="curve"/>
      <point x="277" y="312"/>
      <point x="253" y="297"/>
    </contour>
  </outline>
</glyph>
<glyph name="colon" format="2">
  <advance width="269"/>
  <unicode hex="003A"/>
  <outline>
    <contour>
      <point x="43" y="81" type="curve" smooth="yes"/>
      <point x="43" y="22"/>
      <point x="78" y="-12"/>
      <point x="136" y="-12" type="curve" smooth="yes"/>
      <point x="192" y="-12"/>
      <point x="225" y="22"/>
      <point x="225" y="81" type="curve" smooth="yes"/>
      <point x="225" y="141"/>
      <point x="194" y="175"/>
      <point x="136" y="175" type="curve" smooth="yes"/>
      <point x="75" y="175"/>
      <point x="43" y="141"/>
    </contour>
    <contour>
      <point x="43" y="467" type="curve" smooth="yes"/>
      <point x="43" y="408"/>
      <point x="78" y="374"/>
      <point x="136" y="374" type="curve" smooth="yes"/>
      <point x="192" y="374"/>
      <point x="225" y="408"/>
      <point x="225" y="467" type="curve" smooth="yes"/>
      <point x="225" y="527"/>
      <point x="194" y="561"/>
      <point x="136" y="561" type="curve" smooth="yes"/>
      <point x="75" y="561"/>
      <point x="43" y="527"/>
    </contour>
  </outline>
</glyph>
<glyph name="colon.serif" format="2">
  <advance width="265"/>
  <unicode hex="003A"/>
  <outline>
    <contour>
      <point x="132" y="380" type="curve" smooth="yes"/>
      <point x="168" y="380"/>
      <point x="201" y="400"/>
      <point x="201" y="462" type="curve" smooth="yes"/>
      <point x="201" y="524"/>
      <point x="168" y="544"/>
      <point x="132" y="544" type="curve" smooth="yes"/>
      <point x="93" y="544"/>
      <point x="63" y="524"/>
      <point x="63" y="462" type="curve" smooth="yes"/>
      <point x="63" y="400"/>
      <point x="93" y="380"/>
    </contour>
    <contour>
      <point x="132" y="-8" type="curve" smooth="yes"/>
      <point x="168" y="-8"/>
      <point x="201" y="12"/>
      <point x="201" y="74" type="curve" smooth="yes"/>
      <point x="201" y="136"/>
      <point x="168" y="156"/>
      <point x="132" y="156" type="curve" smooth="yes"/>
      <point x="93" y="156"/>
      <point x="63" y="136"/>
      <point x="63" y="74" type="curve" smooth="yes"/>
      <point x="63" y="12"/>
      <point x="93" y="-8"/>
    </contour>
  </outline>
</glyph>
<glyph name="semicolon" format="2">
  <advance width="269"/>
  <unicode hex="003B"/>
  <outline>
    <contour>
      <point x="227" y="135" type="curve"/>
      <point x="223" y="146" type="line"/>
      <point x="64" y="146" type="line"/>
      <point x="59" y="69"/>
      <point x="44" y="-60"/>
      <point x="29" y="-139" type="curve"/>
      <point x="165" y="-139" type="line"/>
      <point x="192" y="-66"/>
      <point x="213" y="25"/>
    </contour>
    <contour>
      <point x="47" y="467" type="curve" smooth="yes"/>
      <point x="47" y="408"/>
      <point x="82" y="374"/>
      <point x="140" y="374" type="curve" smooth="yes"/>
      <point x="196" y="374"/>
      <point x="229" y="408"/>
      <point x="229" y="467" type="curve" smooth="yes"/>
      <point x="229" y="527"/>
      <point x="198" y="561"/>
      <point x="140" y="561" type="curve" smooth="yes"/>
      <point x="79" y="561"/>
      <point x="47" y="527"/>
    </contour>
  </outline>
</glyph>
<glyph name="semicolon.serif" format="2">
  <advance width="265"/>
  <unicode hex="003B"/>
  <outline>
    <contour>
      <point x="49" y="-145" type="curve"/>
      <point x="49" y="-156" type="line"/>
      <point x="164" y="-122"/>
      <point x="207" y="-45"/>
      <point x="207" y="40" type="curve" smooth="yes"/>
      <point x="207" y="111"/>
      <point x="177" y="156"/>
      <point x="124" y="156" type="curve" smooth="yes"/>
      <point x="85" y="156"/>
      <point x="57" y="134"/>
      <point x="57" y="80" type="curve" smooth="yes"/>
      <point x="57" y="-18"/>
      <point x="148" y="11"/>
      <point x="148" y="-55" type="curve" smooth="yes"/>
      <point x="148" y="-109"/>
      <point x="86" y="-135"/>
    </contour>
    <contour>
      <point x="132" y="380" type="curve" smooth="yes"/>
      <point x="169" y="380"/>
      <point x="201" y="400"/>
      <point x="201" y="462" type="curve" smooth="yes"/>
      <point x="201" y="524"/>
      <point x="169" y="544"/>
      <point x="132" y="544" type="curve" smooth="yes"/>
      <point x="93" y="544"/>
      <point x="63" y="524"/>
      <point x="63" y="462" type="curve" smooth="yes"/>
      <point x="63" y="400"/>
      <point x="93" y="380"/>
    </contour>
  </outline>
</glyph>
<glyph name="greater" format="2">
  <advance width="489"/>
  <unicode hex="003E"/>
  <outline>
    <contour>
      <point x="33" y="256" type="line"/>
      <point x="33" y="112" type="line"/>
      <point x="461" y="319" type="line"/>
      <point x="461" y="403" type="line"/>
      <point x="33" y="609" type="line"/>
      <point x="33" y="464" type="line"/>
      <point x="269" y="361" type="line"/>
    </contour>
  </outline>
</glyph>
<glyph name="question" format="2">
  <advance width="395"/>
  <unicode hex="003F"/>
  <outline>
    <contour>
      <point x="102" y="294" type="curve" smooth="yes"/>
      <point x="102" y="252" type="line"/>
      <point x="243" y="252" type="line"/>
      <point x="243" y="277" type="line" smooth="yes"/>
      <point x="243" y="306"/>
      <point x="244" y="319"/>
      <point x="292" y="362" type="curve" smooth="yes"/>
      <point x="349" y="414"/>
      <point x="382" y="460"/>
      <point x="382" y="546" type="curve" smooth="yes"/>
      <point x="382" y="655"/>
      <point x="314" y="724"/>
      <point x="186" y="724" type="curve" smooth="yes"/>
      <point x="124" y="724"/>
      <point x="62" y="701"/>
      <point x="-1" y="655" type="curve"/>
      <point x="51" y="528" type="line"/>
      <point x="96" y="562"/>
      <point x="136" y="580"/>
      <point x="170" y="580" type="curve" smooth="yes"/>
      <point x="207" y="580"/>
      <point x="224" y="563"/>
      <point x="224" y="532" type="curve" smooth="yes"/>
      <point x="224" y="494"/>
      <point x="209" y="476"/>
      <point x="171" y="440" type="curve" smooth="yes"/>
      <point x="124" y="395"/>
      <point x="102" y="359"/>
    </contour>
    <contour>
      <point x="81" y="81" type="curve" smooth="yes"/>
      <point x="81" y="22"/>
      <point x="117" y="-12"/>
      <point x="174" y="-12" type="curve" smooth="yes"/>
      <point x="231" y="-12"/>
      <point x="263" y="22"/>
      <point x="263" y="81" type="curve" smooth="yes"/>
      <point x="263" y="141"/>
      <point x="232" y="175"/>
      <point x="174" y="175" type="curve" smooth="yes"/>
      <point x="114" y="175"/>
      <point x="81" y="141"/>
    </contour>
  </outline>
</glyph>
<glyph name="question.serif" format="2">
  <advance width="490"/>
  <unicode hex="003F"/>
  <outline>
    <contour>
      <point x="164" y="349" type="curve"/>
      <point x="211" y="231" type="line"/>
      <point x="226" y="231" type="line"/>
      <point x="264" y="353" type="line"/>
      <point x="389" y="382"/>
      <point x="442" y="440"/>
      <point x="442" y="543" type="curve" smooth="yes"/>
      <point x="442" y="659"/>
      <point x="356" y="724"/>
      <point x="221" y="724" type="curve" smooth="yes"/>
      <point x="87" y="724"/>
      <point x="28" y="664"/>
      <point x="28" y="603" type="curve" smooth="yes"/>
      <point x="28" y="543"/>
      <point x="78" y="525"/>
      <point x="167" y="525" type="curve"/>
      <point x="167" y="679"/>
      <point x="180" y="714"/>
      <point x="222" y="714" type="curve" smooth="yes"/>
      <point x="261" y="714"/>
      <point x="273" y="685"/>
      <point x="273" y="552" type="curve" smooth="yes"/>
      <point x="273" y="402"/>
      <point x="247" y="363"/>
    </contour>
    <contour>
      <point x="216" y="-8" type="curve" smooth="yes"/>
      <point x="253" y="-8"/>
      <point x="285" y="12"/>
      <point x="285" y="74" type="curve" smooth="yes"/>
      <point x="285" y="136"/>
      <point x="253" y="156"/>
      <point x="216" y="156" type="curve" smooth="yes"/>
      <point x="177" y="156"/>
      <point x="147" y="136"/>
      <point x="147" y="74" type="curve" smooth="yes"/>
      <point x="147" y="12"/>
      <point x="177" y="-8"/>
    </contour>
  </outline>
</glyph>
<glyph name="at" format="2">
  <advance width="752"/>
  <unicode hex="0040"/>
  <outline>
    <contour>
      <point x="720" y="369" type="curve" smooth="yes"/>
      <point x="720" y="583"/>
      <point x="585" y="723"/>
      <point x="388" y="723" type="curve" smooth="yes"/>
      <point x="178" y="723"/>
      <point x="32" y="558"/>
      <point x="32" y="298" type="curve" smooth="yes"/>
      <point x="32" y="65"/>
      <point x="162" y="-75"/>
      <point x="389" y="-75" type="curve" smooth="yes"/>
      <point x="465" y="-75"/>
      <point x="532" y="-62"/>
      <point x="593" y="-34" type="curve"/>
      <point x="593" y="68" type="line"/>
      <point x="525" y="39"/>
      <point x="449" y="21"/>
      <point x="387" y="21" type="curve" smooth="yes"/>
      <point x="229" y="21"/>
      <point x="147" y="125"/>
      <point x="147" y="302" type="curve" smooth="yes"/>
      <point x="147" y="499"/>
      <point x="235" y="628"/>
      <point x="388" y="628" type="curve" smooth="yes"/>
      <point x="534" y="628"/>
      <point x="607" y="521"/>
      <point x="607" y="370" type="curve" smooth="yes"/>
      <point x="607" y="249"/>
      <point x="584" y="208"/>
      <point x="555" y="208" type="curve" smooth="yes"/>
      <point x="539" y="208"/>
      <point x="530" y="223"/>
      <point x="530" y="250" type="curve" smooth="yes"/>
      <point x="530" y="269"/>
      <point x="531" y="289"/>
      <point x="532" y="308" type="curve" smooth="yes"/>
      <point x="540" y="514" type="line"/>
      <point x="497" y="533"/>
      <point x="443" y="544"/>
      <point x="400" y="544" type="curve" smooth="yes"/>
      <point x="282" y="544"/>
      <point x="207" y="448"/>
      <point x="207" y="312" type="curve" smooth="yes"/>
      <point x="207" y="187"/>
      <point x="259" y="114"/>
      <point x="353" y="114" type="curve" smooth="yes"/>
      <point x="392" y="114"/>
      <point x="425" y="136"/>
      <point x="452" y="182" type="curve"/>
      <point x="459" y="182" type="line"/>
      <point x="475" y="138"/>
      <point x="512" y="114"/>
      <point x="562" y="114" type="curve" smooth="yes"/>
      <point x="651" y="114"/>
      <point x="720" y="221"/>
    </contour>
    <contour>
      <point x="327" y="311" type="curve" smooth="yes"/>
      <point x="327" y="397"/>
      <point x="356" y="449"/>
      <point x="399" y="449" type="curve" smooth="yes"/>
      <point x="406" y="449"/>
      <point x="412" y="448"/>
      <point x="421" y="445" type="curve"/>
      <point x="417" y="361" type="line" smooth="yes"/>
      <point x="412" y="245"/>
      <point x="399" y="208"/>
      <point x="368" y="208" type="curve" smooth="yes"/>
      <point x="343" y="208"/>
      <point x="327" y="239"/>
    </contour>
  </outline>
</glyph>
<glyph name="at.serif" format="2">
  <advance width="767"/>
  <unicode hex="0040"/>
  <outline>
    <contour>
      <point x="360" y="-142" type="curve" smooth="yes"/>
      <point x="451" y="-142"/>
      <point x="531" y="-111"/>
      <point x="608" y="-43" type="curve"/>
      <point x="604" y="-34" type="line"/>
      <point x="524" y="-102"/>
      <point x="447" y="-131"/>
      <point x="367" y="-131" type="curve" smooth="yes"/>
      <point x="208" y="-131"/>
      <point x="126" y="-20"/>
      <point x="126" y="203" type="curve" smooth="yes"/>
      <point x="126" y="495"/>
      <point x="263" y="704"/>
      <point x="463" y="704" type="curve" smooth="yes"/>
      <point x="597" y="704"/>
      <point x="668" y="612"/>
      <point x="668" y="403" type="curve" smooth="yes"/>
      <point x="668" y="241"/>
      <point x="625" y="87"/>
      <point x="557" y="87" type="curve" smooth="yes"/>
      <point x="537" y="87"/>
      <point x="525" y="102"/>
      <point x="525" y="148" type="curve" smooth="yes"/>
      <point x="525" y="190"/>
      <point x="534" y="242"/>
      <point x="539" y="269" type="curve" smooth="yes"/>
      <point x="581" y="520" type="line"/>
      <point x="571" y="520" type="line"/>
      <point x="491" y="484" type="line"/>
      <point x="478" y="510"/>
      <point x="461" y="529"/>
      <point x="417" y="529" type="curve" smooth="yes"/>
      <point x="278" y="529"/>
      <point x="212" y="353"/>
      <point x="212" y="234" type="curve" smooth="yes"/>
      <point x="212" y="131"/>
      <point x="262" y="77"/>
      <point x="324" y="77" type="curve" smooth="yes"/>
      <point x="378" y="77"/>
      <point x="422" y="118"/>
      <point x="447" y="218" type="curve"/>
      <point x="448" y="218" type="line"/>
      <point x="448" y="107"/>
      <point x="508" y="77"/>
      <point x="553" y="77" type="curve" smooth="yes"/>
      <point x="646" y="77"/>
      <point x="735" y="203"/>
      <point x="735" y="385" type="curve" smooth="yes"/>
      <point x="735" y="575"/>
      <point x="637" y="714"/>
      <point x="449" y="714" type="curve" smooth="yes"/>
      <point x="215" y="714"/>
      <point x="43" y="500"/>
      <point x="43" y="223" type="curve" smooth="yes"/>
      <point x="43" y="-24"/>
      <point x="180" y="-142"/>
    </contour>
    <contour>
      <point x="356" y="98" type="curve" smooth="yes"/>
      <point x="331" y="98"/>
      <point x="316" y="134"/>
      <point x="316" y="204" type="curve" smooth="yes"/>
      <point x="316" y="318"/>
      <point x="356" y="518"/>
      <point x="432" y="518" type="curve" smooth="yes"/>
      <point x="457" y="518"/>
      <point x="476" y="495"/>
      <point x="481" y="479" type="curve"/>
      <point x="444" y="251" type="line" smooth="yes"/>
      <point x="428" y="154"/>
      <point x="386" y="98"/>
    </contour>
  </outline>
</glyph>
<glyph name="A" format="2">
  <advance width="565"/>
  <unicode hex="0041"/>
  <anchor x="284" y="0" name="bottom"/>
  <anchor x="284" y="714" name="top"/>
  <anchor x="521" y="714" name="topright"/>
  <outline>
    <contour>
      <point x="382" y="0" type="line"/>
      <point x="565" y="0" type="line"/>
      <point x="394" y="714" type="line"/>
      <point x="169" y="714" type="line"/>
      <point x="0" y="0" type="line"/>
      <point x="185" y="0" type="line"/>
      <point x="209" y="139" type="line"/>
      <point x="358" y="139" type="line"/>
    </contour>
    <contour>
      <point x="305" y="445" type="curve" smooth="yes"/>
      <point x="332" y="285" type="line"/>
      <point x="234" y="285" type="line"/>
      <point x="262" y="447" type="line" smooth="yes"/>
      <point x="271" y="500"/>
      <point x="280" y="551"/>
      <point x="284" y="589" type="curve"/>
      <point x="289" y="549"/>
      <point x="296" y="498"/>
    </contour>
  </outline>
</glyph>
<glyph name="A.serif" format="2">
  <advance width="657"/>
  <unicode hex="0041"/>
  <anchor x="512" y="0" name="bottom"/>
  <anchor x="329" y="714" name="top"/>
  <anchor x="547" y="714" name="topright"/>
  <outline>
    <contour>
      <point x="6" y="0" type="line"/>
      <point x="206" y="0" type="line"/>
      <point x="206" y="10" type="line"/>
      <point x="146" y="10" type="line" smooth="yes"/>
      <point x="124" y="10"/>
      <point x="114" y="19"/>
      <point x="114" y="43" type="curve" smooth="yes"/>
      <point x="114" y="58"/>
      <point x="118" y="80"/>
      <point x="126" y="110" type="curve" smooth="yes"/>
      <point x="166" y="261" type="line"/>
      <point x="377" y="261" type="line"/>
      <point x="418" y="94" type="line" smooth="yes"/>
      <point x="422" y="77"/>
      <point x="427" y="59"/>
      <point x="427" y="44" type="curve" smooth="yes"/>
      <point x="427" y="24"/>
      <point x="419" y="10"/>
      <point x="393" y="10" type="curve" smooth="yes"/>
      <point x="348" y="10" type="line"/>
      <point x="348" y="0" type="line"/>
      <point x="657" y="0" type="line"/>
      <point x="657" y="10" type="line"/>
      <point x="648" y="10" type="line" smooth="yes"/>
      <point x="620" y="10"/>
      <point x="607" y="25"/>
      <point x="593" y="72" type="curve" smooth="yes"/>
      <point x="409" y="714" type="line"/>
      <point x="277" y="714" type="line"/>
      <point x="108" y="82" type="line" smooth="yes"/>
      <point x="93" y="27"/>
      <point x="77" y="10"/>
      <point x="39" y="10" type="curve" smooth="yes"/>
      <point x="6" y="10" type="line"/>
    </contour>
    <contour>
      <point x="169" y="271" type="line"/>
      <point x="250" y="571" type="line" smooth="yes"/>
      <point x="259" y="604"/>
      <point x="267" y="637"/>
      <point x="276" y="680" type="curve"/>
      <point x="284" y="636"/>
      <point x="293" y="603"/>
      <point x="301" y="569" type="curve" smooth="yes"/>
      <point x="374" y="271" type="line"/>
    </contour>
  </outline>
</glyph>
<glyph name="B" format="2">
  <advance width="547"/>
  <unicode hex="0042"/>
  <anchor x="277" y="0" name="bottom"/>
  <anchor x="276" y="714" name="top"/>
  <anchor x="527" y="714" name="topright"/>
  <outline>
    <contour>
      <point x="260" y="714" type="curve" smooth="yes"/>
      <point x="56" y="714" type="line"/>
      <point x="56" y="0" type="line"/>
      <point x="279" y="0" type="line" smooth="yes"/>
      <point x="419" y="0"/>
      <point x="506" y="80"/>
      <point x="506" y="209" type="curve" smooth="yes"/>
      <point x="506" y="296"/>
      <point x="476" y="351"/>
      <point x="404" y="374" type="curve"/>
      <point x="404" y="379" type="line"/>
      <point x="458" y="396"/>
      <point x="494" y="457"/>
      <point x="494" y="536" type="curve" smooth="yes"/>
      <point x="494" y="658"/>
      <point x="419" y="714"/>
    </contour>
    <contour>
      <point x="260" y="436" type="curve" smooth="yes"/>
      <point x="227" y="436" type="line"/>
      <point x="227" y="576" type="line"/>
      <point x="257" y="576" type="line" smooth="yes"/>
      <point x="300" y="576"/>
      <point x="321" y="554"/>
      <point x="321" y="510" type="curve" smooth="yes"/>
      <point x="321" y="461"/>
      <point x="299" y="436"/>
    </contour>
    <contour>
      <point x="227" y="303" type="line"/>
      <point x="265" y="303" type="line"/>
      <point x="308" y="303"/>
      <point x="331" y="274"/>
      <point x="331" y="223" type="curve" smooth="yes"/>
      <point x="331" y="168"/>
      <point x="309" y="141"/>
      <point x="266" y="141" type="curve" smooth="yes"/>
      <point x="227" y="141" type="line"/>
    </contour>
  </outline>
</glyph>
<glyph name="B.serif" format="2">
  <advance width="600"/>
  <unicode hex="0042"/>
  <anchor x="300" y="0" name="bottom"/>
  <anchor x="300" y="714" name="top"/>
  <anchor x="580" y="714" name="topright"/>
  <outline>
    <contour>
      <point x="17" y="0" type="line"/>
      <point x="316" y="0" type="line" smooth="yes"/>
      <point x="491" y="0"/>
      <point x="575" y="65"/>
      <point x="575" y="197" type="curve" smooth="yes"/>
      <point x="575" y="303"/>
      <point x="513" y="364"/>
      <point x="356" y="376" type="curve"/>
      <point x="356" y="378" type="line"/>
      <point x="493" y="389"/>
      <point x="551" y="449"/>
      <point x="551" y="540" type="curve" smooth="yes"/>
      <point x="551" y="665"/>
      <point x="459" y="714"/>
      <point x="291" y="714" type="curve" smooth="yes"/>
      <point x="17" y="714" type="line"/>
      <point x="17" y="704" type="line"/>
      <point x="58" y="704" type="line" smooth="yes"/>
      <point x="74" y="704"/>
      <point x="94" y="693"/>
      <point x="94" y="646" type="curve" smooth="yes"/>
      <point x="94" y="69" type="line" smooth="yes"/>
      <point x="94" y="29"/>
      <point x="84" y="10"/>
      <point x="60" y="10" type="curve" smooth="yes"/>
      <point x="17" y="10" type="line"/>
    </contour>
    <contour>
      <point x="303" y="10" type="curve" smooth="yes"/>
      <point x="260" y="10" type="line"/>
      <point x="260" y="370" type="line"/>
      <point x="305" y="370" type="line" smooth="yes"/>
      <point x="371" y="370"/>
      <point x="397" y="318"/>
      <point x="397" y="186" type="curve" smooth="yes"/>
      <point x="397" y="59"/>
      <point x="371" y="10"/>
    </contour>
    <contour>
      <point x="283" y="380" type="curve" smooth="yes"/>
      <point x="260" y="380" type="line"/>
      <point x="260" y="704" type="line"/>
      <point x="282" y="704" type="line" smooth="yes"/>
      <point x="350" y="704"/>
      <point x="377" y="660"/>
      <point x="377" y="546" type="curve" smooth="yes"/>
      <point x="377" y="426"/>
      <point x="351" y="380"/>
    </contour>
  </outline>
</glyph>
<glyph name="C" format="2">
  <advance width="496"/>
  <unicode hex="0043"/>
  <anchor x="275" y="0" name="bottom"/>
  <anchor x="285" y="714" name="top"/>
  <anchor x="476" y="714" name="topright"/>
  <outline>
    <contour>
      <point x="312" y="578" type="curve" smooth="yes"/>
      <point x="354" y="578"/>
      <point x="391" y="561"/>
      <point x="428" y="534" type="curve"/>
      <point x="473" y="674" type="line"/>
      <point x="416" y="708"/>
      <point x="359" y="724"/>
      <point x="297" y="724" type="curve" smooth="yes"/>
      <point x="137" y="724"/>
      <point x="37" y="575"/>
      <point x="37" y="355" type="curve" smooth="yes"/>
      <point x="37" y="119"/>
      <point x="126" y="-10"/>
      <point x="293" y="-10" type="curve" smooth="yes"/>
      <point x="351" y="-10"/>
      <point x="403" y="3"/>
      <point x="449" y="30" type="curve"/>
      <point x="449" y="182" type="line"/>
      <point x="406" y="157"/>
      <point x="365" y="137"/>
      <point x="320" y="137" type="curve" smooth="yes"/>
      <point x="249" y="137"/>
      <point x="215" y="209"/>
      <point x="215" y="354" type="curve" smooth="yes"/>
      <point x="215" y="493"/>
      <point x="250" y="578"/>
    </contour>
  </outline>
</glyph>
<glyph name="C.serif" format="2">
  <advance width="591"/>
  <unicode hex="0043"/>
  <anchor x="358" y="-10" name="bottom"/>
  <anchor x="336" y="714" name="top"/>
  <anchor x="571" y="714" name="topright"/>
  <outline>
    <contour>
      <point x="349" y="-10" type="curve" smooth="yes"/>
      <point x="517" y="-10"/>
      <point x="555" y="71"/>
      <point x="555" y="128" type="curve" smooth="yes"/>
      <point x="555" y="143"/>
      <point x="550" y="173"/>
      <point x="522" y="182" type="curve"/>
      <point x="514" y="67"/>
      <point x="467" y="2"/>
      <point x="378" y="2" type="curve" smooth="yes"/>
      <point x="262" y="2"/>
      <point x="221" y="95"/>
      <point x="221" y="358" type="curve" smooth="yes"/>
      <point x="221" y="621"/>
      <point x="252" y="714"/>
      <point x="339" y="714" type="curve" smooth="yes"/>
      <point x="403" y="714"/>
      <point x="426" y="663"/>
      <point x="426" y="516" type="curve"/>
      <point x="513" y="516"/>
      <point x="554" y="555"/>
      <point x="554" y="606" type="curve" smooth="yes"/>
      <point x="554" y="671"/>
      <point x="486" y="724"/>
      <point x="348" y="724" type="curve" smooth="yes"/>
      <point x="149" y="724"/>
      <point x="45" y="575"/>
      <point x="45" y="358" type="curve" smooth="yes"/>
      <point x="45" y="137"/>
      <point x="146" y="-10"/>
    </contour>
  </outline>
</glyph>
<glyph name="D" format="2">
  <advance width="574"/>
  <unicode hex="0044"/>
  <anchor x="267" y="0" name="bottom"/>
  <anchor x="283" y="360" name="center"/>
  <anchor x="283" y="714" name="top"/>
  <anchor x="555" y="714" name="topright"/>
  <outline>
    <contour>
      <point x="537" y="372" type="curve" smooth="yes"/>
      <point x="537" y="593"/>
      <point x="433" y="714"/>
      <point x="249" y="714" type="curve" smooth="yes"/>
      <point x="56" y="714" type="line"/>
      <point x="56" y="0" type="line"/>
      <point x="237" y="0" type="line" smooth="yes"/>
      <point x="427" y="0"/>
      <point x="537" y="135"/>
    </contour>
    <contour>
      <point x="360" y="365" type="curve" smooth="yes"/>
      <point x="360" y="216"/>
      <point x="322" y="148"/>
      <point x="236" y="148" type="curve" smooth="yes"/>
      <point x="227" y="148" type="line"/>
      <point x="227" y="567" type="line"/>
      <point x="246" y="567" type="line" smooth="yes"/>
      <point x="322" y="567"/>
      <point x="360" y="510"/>
    </contour>
  </outline>
</glyph>
<glyph name="E.serif" format="2">
  <advance width="563"/>
  <unicode hex="0045"/>
  <anchor x="282" y="0" name="bottom"/>
  <anchor x="282" y="714" name="top"/>
  <anchor x="543" y="714" name="topright"/>
  <outline>
    <contour>
      <point x="18" y="0" type="line"/>
      <point x="536" y="0" type="line"/>
      <point x="543" y="184" type="line"/>
      <point x="533" y="184" type="line"/>
      <point x="530" y="151" type="line" smooth="yes"/>
      <point x="521" y="49"/>
      <point x="476" y="10"/>
      <point x="370" y="10" type="curve" smooth="yes"/>
      <point x="261" y="10" type="line"/>
      <point x="261" y="368" type="line"/>
      <point x="477" y="368" type="line"/>
      <point x="477" y="378" type="line"/>
      <point x="261" y="378" type="line"/>
      <point x="261" y="704" type="line"/>
      <point x="342" y="704" type="line" smooth="yes"/>
      <point x="449" y="704"/>
      <point x="493" y="665"/>
      <point x="502" y="564" type="curve" smooth="yes"/>
      <point x="505" y="530" type="line"/>
      <point x="515" y="530" type="line"/>
      <point x="509" y="714" type="line"/>
      <point x="18" y="714" type="line"/>
      <point x="18" y="704" type="line"/>
      <point x="43" y="704" type="line" smooth="yes"/>
      <point x="72" y="704"/>
      <point x="94" y="696"/>
      <point x="94" y="639" type="curve" smooth="yes"/>
      <point x="94" y="70" type="line" smooth="yes"/>
      <point x="94" y="17"/>
      <point x="71" y="10"/>
      <point x="43" y="10" type="curve" smooth="yes"/>
      <point x="18" y="10" type="line"/>
    </contour>
  </outline>
</glyph>
<glyph name="F" format="2">
  <advance width="427"/>
  <unicode hex="0046"/>
  <anchor x="213" y="0" name="bottom"/>
  <anchor x="224" y="714" name="top"/>
  <anchor x="407" y="714" name="topright"/>
  <outline>
    <contour>
      <point x="227" y="0" type="line"/>
      <point x="227" y="273" type="line"/>
      <point x="379" y="273" type="line"/>
      <point x="379" y="417" type="line"/>
      <point x="227" y="417" type="line"/>
      <point x="227" y="570" type="line"/>
      <point x="392" y="570" type="line"/>
      <point x="392" y="714" type="line"/>
      <point x="56" y="714" type="line"/>
      <point x="56" y="0" type="line"/>
    </contour>
  </outline>
</glyph>
<glyph name="F.serif" format="2">
  <advance width="538"/>
  <unicode hex="0046"/>
  <anchor x="178" y="0" name="bottom"/>
  <anchor x="269" y="714" name="top"/>
  <anchor x="518" y="714" name="topright"/>
  <outline>
    <contour>
      <point x="18" y="0" type="line"/>
      <point x="355" y="0" type="line"/>
      <point x="355" y="10" type="line"/>
      <point x="306" y="10" type="line" smooth="yes"/>
      <point x="272" y="10"/>
      <point x="261" y="27"/>
      <point x="261" y="64" type="curve" smooth="yes"/>
      <point x="261" y="346" type="line"/>
      <point x="457" y="346" type="line"/>
      <point x="457" y="356" type="line"/>
      <point x="261" y="356" type="line"/>
      <point x="261" y="704" type="line"/>
      <point x="354" y="704" type="line" smooth="yes"/>
      <point x="461" y="704"/>
      <point x="497" y="666"/>
      <point x="504" y="544" type="curve" smooth="yes"/>
      <point x="505" y="527" type="line"/>
      <point x="515" y="527" type="line"/>
      <point x="509" y="714" type="line"/>
      <point x="18" y="714" type="line"/>
      <point x="18" y="704" type="line"/>
      <point x="59" y="704" type="line" smooth="yes"/>
      <point x="79" y="704"/>
      <point x="94" y="690"/>
      <point x="94" y="650" type="curve" smooth="yes"/>
      <point x="94" y="62" type="line" smooth="yes"/>
      <point x="94" y="23"/>
      <point x="82" y="10"/>
      <point x="47" y="10" type="curve" smooth="yes"/>
      <point x="18" y="10" type="line"/>
    </contour>
  </outline>
</glyph>
<glyph name="G" format="2">
  <advance width="578"/>
  <unicode hex="0047"/>
  <anchor x="317" y="0" name="bottom"/>
  <anchor x="320" y="714" name="top"/>
  <anchor x="559" y="714" name="topright"/>
  <outline>
    <contour>
      <point x="285" y="418" type="line"/>
      <point x="285" y="276" type="line"/>
      <point x="363" y="276" type="line"/>
      <point x="363" y="145" type="line"/>
      <point x="348" y="140"/>
      <point x="331" y="137"/>
      <point x="315" y="137" type="curve" smooth="yes"/>
      <point x="250" y="137"/>
      <point x="215" y="213"/>
      <point x="215" y="354" type="curve" smooth="yes"/>
      <point x="215" y="498"/>
      <point x="258" y="578"/>
      <point x="344" y="578" type="curve" smooth="yes"/>
      <point x="392" y="578"/>
      <point x="436" y="565"/>
      <point x="474" y="540" type="curve"/>
      <point x="520" y="679" type="line"/>
      <point x="475" y="705"/>
      <point x="411" y="724"/>
      <point x="338" y="724" type="curve" smooth="yes"/>
      <point x="149" y="724"/>
      <point x="37" y="588"/>
      <point x="37" y="359" type="curve" smooth="yes"/>
      <point x="37" y="123"/>
      <point x="134" y="-10"/>
      <point x="305" y="-10" type="curve" smooth="yes"/>
      <point x="384" y="-10"/>
      <point x="458" y="4"/>
      <point x="531" y="33" type="curve"/>
      <point x="531" y="418" type="line"/>
    </contour>
  </outline>
</glyph>
<glyph name="H" format="2">
  <advance width="595"/>
  <unicode hex="0048"/>
  <anchor x="296" y="0" name="bottom"/>
  <anchor x="296" y="357" name="center"/>
  <anchor x="297" y="714" name="top"/>
  <anchor x="576" y="714" name="topright"/>
  <outline>
    <contour>
      <point x="539" y="0" type="line"/>
      <point x="539" y="714" type="line"/>
      <point x="369" y="714" type="line"/>
      <point x="369" y="444" type="line"/>
      <point x="227" y="444" type="line"/>
      <point x="227" y="714" type="line"/>
      <point x="56" y="714" type="line"/>
      <point x="56" y="0" type="line"/>
      <point x="227" y="0" type="line"/>
      <point x="227" y="298" type="line"/>
      <point x="369" y="298" type="line"/>
      <point x="369" y="0" type="line"/>
    </contour>
  </outline>
</glyph>
<glyph name="I" format="2">
  <advance width="349"/>
  <unicode hex="0049"/>
  <anchor x="175" y="0" name="bottom"/>
  <anchor x="175" y="714" name="top"/>
  <anchor x="329" y="714" name="topright"/>
  <outline>
    <contour>
      <point x="325" y="0" type="line"/>
      <point x="325" y="91" type="line"/>
      <point x="260" y="126" type="line"/>
      <point x="260" y="588" type="line"/>
      <point x="325" y="623" type="line"/>
      <point x="325" y="714" type="line"/>
      <point x="24" y="714" type="line"/>
      <point x="24" y="623" type="line"/>
      <point x="89" y="588" type="line"/>
      <point x="89" y="126" type="line"/>
      <point x="24" y="91" type="line"/>
      <point x="24" y="0" type="line"/>
    </contour>
  </outline>
</glyph>
<glyph name="J" format="2">
  <advance width="286"/>
  <unicode hex="004A"/>
  <anchor x="22" y="-224" name="bottom"/>
  <anchor x="145" y="714" name="top"/>
  <anchor x="267" y="714" name="topright"/>
  <outline>
    <contour>
      <point x="22" y="-224" type="curve" smooth="yes"/>
      <point x="154" y="-224"/>
      <point x="229" y="-161"/>
      <point x="229" y="55" type="curve" smooth="yes"/>
      <point x="229" y="714" type="line"/>
      <point x="60" y="714" type="line"/>
      <point x="60" y="47" type="line" smooth="yes"/>
      <point x="60" y="-51"/>
      <point x="44" y="-80"/>
      <point x="-7" y="-80" type="curve" smooth="yes"/>
      <point x="-27" y="-80"/>
      <point x="-44" y="-76"/>
      <point x="-60" y="-70" type="curve"/>
      <point x="-60" y="-214" type="line"/>
      <point x="-34" y="-221"/>
      <point x="-7" y="-224"/>
    </contour>
  </outline>
</glyph>
<glyph name="J.serif" format="2">
  <advance width="357"/>
  <unicode hex="004A"/>
  <anchor x="116" y="-240" name="bottom"/>
  <anchor x="186" y="714" name="top"/>
  <anchor x="322" y="714" name="topright"/>
  <outline>
    <contour>
      <point x="-21" y="-240" type="line"/>
      <point x="21" y="-240" type="line" smooth="yes"/>
      <point x="141" y="-240"/>
      <point x="267" y="-182"/>
      <point x="267" y="-1" type="curve" smooth="yes"/>
      <point x="267" y="647" type="line" smooth="yes"/>
      <point x="267" y="690"/>
      <point x="275" y="704"/>
      <point x="300" y="704" type="curve" smooth="yes"/>
      <point x="344" y="704" type="line"/>
      <point x="344" y="714" type="line"/>
      <point x="23" y="714" type="line"/>
      <point x="23" y="704" type="line"/>
      <point x="68" y="704" type="line" smooth="yes"/>
      <point x="92" y="704"/>
      <point x="100" y="691"/>
      <point x="100" y="649" type="curve" smooth="yes"/>
      <point x="100" y="-53" type="line" smooth="yes"/>
      <point x="100" y="-163"/>
      <point x="62" y="-230"/>
      <point x="-1" y="-230" type="curve" smooth="yes"/>
      <point x="-21" y="-230" type="line"/>
    </contour>
  </outline>
</glyph>
<glyph name="K" format="2">
  <advance width="542"/>
  <unicode hex="004B"/>
  <anchor x="292" y="0" name="bottom"/>
  <anchor x="297" y="714" name="top"/>
  <anchor x="523" y="714" name="topright"/>
  <outline>
    <contour>
      <point x="551" y="0" type="line"/>
      <point x="389" y="394" type="line"/>
      <point x="555" y="714" type="line"/>
      <point x="371" y="714" type="line"/>
      <point x="262" y="495" type="line" smooth="yes"/>
      <point x="245" y="462"/>
      <point x="233" y="432"/>
      <point x="227" y="404" type="curve"/>
      <point x="227" y="714" type="line"/>
      <point x="56" y="714" type="line"/>
      <point x="56" y="0" type="line"/>
      <point x="227" y="0" type="line"/>
      <point x="227" y="239" type="line"/>
      <point x="265" y="266" type="line"/>
      <point x="363" y="0" type="line"/>
    </contour>
  </outline>
</glyph>
<glyph name="K.serif" format="2">
  <advance width="652"/>
  <unicode hex="004B"/>
  <anchor x="346" y="0" name="bottom"/>
  <anchor x="346" y="714" name="top"/>
  <anchor x="632" y="714" name="topright"/>
  <outline>
    <contour>
      <point x="18" y="0" type="line"/>
      <point x="322" y="0" type="line"/>
      <point x="322" y="10" type="line"/>
      <point x="302" y="10" type="line" smooth="yes"/>
      <point x="280" y="10"/>
      <point x="262" y="25"/>
      <point x="262" y="63" type="curve" smooth="yes"/>
      <point x="262" y="305" type="line"/>
      <point x="276" y="323" type="line"/>
      <point x="369" y="127" type="line" smooth="yes"/>
      <point x="416" y="27"/>
      <point x="451" y="0"/>
      <point x="571" y="0" type="curve" smooth="yes"/>
      <point x="652" y="0" type="line"/>
      <point x="652" y="10" type="line"/>
      <point x="650" y="10" type="line" smooth="yes"/>
      <point x="634" y="10"/>
      <point x="611" y="42"/>
      <point x="554" y="142" type="curve" smooth="yes"/>
      <point x="374" y="455" type="line"/>
      <point x="496" y="618" type="line" smooth="yes"/>
      <point x="555" y="697"/>
      <point x="576" y="704"/>
      <point x="625" y="704" type="curve"/>
      <point x="625" y="714" type="line"/>
      <point x="393" y="714" type="line"/>
      <point x="393" y="704" type="line"/>
      <point x="498" y="704"/>
      <point x="509" y="697"/>
      <point x="509" y="670" type="curve" smooth="yes"/>
      <point x="509" y="660"/>
      <point x="503" y="645"/>
      <point x="491" y="629" type="curve" smooth="yes"/>
      <point x="262" y="321" type="line"/>
      <point x="262" y="651" type="line" smooth="yes"/>
      <point x="262" y="689"/>
      <point x="274" y="704"/>
      <point x="294" y="704" type="curve" smooth="yes"/>
      <point x="322" y="704" type="line"/>
      <point x="322" y="714" type="line"/>
      <point x="18" y="714" type="line"/>
      <point x="18" y="704" type="line"/>
      <point x="58" y="704" type="line" smooth="yes"/>
      <point x="79" y="704"/>
      <point x="94" y="689"/>
      <point x="94" y="652" type="curve" smooth="yes"/>
      <point x="94" y="64" type="line" smooth="yes"/>
      <point x="94" y="24"/>
      <point x="76" y="10"/>
      <point x="53" y="10" type="curve" smooth="yes"/>
      <point x="18" y="10" type="line"/>
    </contour>
  </outline>
</glyph>
<glyph name="L" format="2">
  <advance width="418"/>
  <unicode hex="004C"/>
  <anchor x="232" y="0" name="bottom"/>
  <anchor x="209" y="357" name="center"/>
  <anchor x="143" y="714" name="top"/>
  <anchor x="281" y="714" name="topright"/>
  <outline>
    <contour>
      <point x="56" y="0" type="line"/>
      <point x="406" y="0" type="line"/>
      <point x="406" y="146" type="line"/>
      <point x="227" y="146" type="line"/>
      <point x="227" y="714" type="line"/>
      <point x="56" y="714" type="line"/>
    </contour>
  </outline>
</glyph>
<glyph name="L.serif" format="2">
  <advance width="564"/>
  <unicode hex="004C"/>
  <anchor x="282" y="0" name="bottom"/>
  <anchor x="174" y="357" name="center"/>
  <anchor x="180" y="714" name="top"/>
  <anchor x="544" y="714" name="topright"/>
  <outline>
    <contour>
      <point x="18" y="0" type="line"/>
      <point x="535" y="0" type="line"/>
      <point x="543" y="223" type="line"/>
      <point x="533" y="223" type="line"/>
      <point x="529" y="170" type="line" smooth="yes"/>
      <point x="521" y="55"/>
      <point x="470" y="10"/>
      <point x="349" y="10" type="curve" smooth="yes"/>
      <point x="262" y="10" type="line"/>
      <point x="262" y="643" type="line" smooth="yes"/>
      <point x="262" y="696"/>
      <point x="285" y="704"/>
      <point x="313" y="704" type="curve" smooth="yes"/>
      <point x="339" y="704" type="line"/>
      <point x="339" y="714" type="line"/>
      <point x="18" y="714" type="line"/>
      <point x="18" y="704" type="line"/>
      <point x="43" y="704" type="line" smooth="yes"/>
      <point x="72" y="704"/>
      <point x="94" y="696"/>
      <point x="94" y="639" type="curve" smooth="yes"/>
      <point x="94" y="75" type="line" smooth="yes"/>
      <point x="94" y="18"/>
      <point x="72" y="10"/>
      <point x="43" y="10" type="curve" smooth="yes"/>
      <point x="18" y="10" type="line"/>
    </contour>
  </outline>
</glyph>
<glyph name="M" format="2">
  <advance width="788"/>
  <unicode hex="004D"/>
  <anchor x="394" y="0" name="bottom"/>
  <anchor x="395" y="714" name="top"/>
  <anchor x="769" y="714" name="topright"/>
  <outline>
    <contour>
      <point x="328" y="0" type="line"/>
      <point x="453" y="0" type="line"/>
      <point x="572" y="480" type="line"/>
      <point x="575" y="480" type="line"/>
      <point x="572" y="419"/>
      <point x="569" y="366"/>
      <point x="569" y="313" type="curve" smooth="yes"/>
      <point x="569" y="0" type="line"/>
      <point x="732" y="0" type="line"/>
      <point x="732" y="714" type="line"/>
      <point x="491" y="714" type="line"/>
      <point x="396" y="300" type="line"/>
      <point x="393" y="300" type="line"/>
      <point x="300" y="714" type="line"/>
      <point x="56" y="714" type="line"/>
      <point x="56" y="0" type="line"/>
      <point x="216" y="0" type="line"/>
      <point x="216" y="310" type="line" smooth="yes"/>
      <point x="216" y="358"/>
      <point x="213" y="415"/>
      <point x="208" y="480" type="curve"/>
      <point x="212" y="480" type="line"/>
    </contour>
  </outline>
</glyph>
<glyph name="N" format="2">
  <advance width="642"/>
  <unicode hex="004E"/>
  <anchor x="321" y="0" name="bottom"/>
  <anchor x="321" y="714" name="top"/>
  <anchor x="623" y="714" name="topright"/>
  <outline>
    <contour>
      <point x="586" y="0" type="line"/>
      <point x="586" y="714" type="line"/>
      <point x="426" y="714" type="line"/>
      <point x="426" y="455" type="line" smooth="yes"/>
      <point x="426" y="412"/>
      <point x="429" y="354"/>
      <point x="433" y="282" type="curve"/>
      <point x="429" y="282" type="line"/>
      <point x="254" y="714" type="line"/>
      <point x="56" y="714" type="line"/>
      <point x="56" y="0" type="line"/>
      <point x="215" y="0" type="line"/>
      <point x="215" y="263" type="line" smooth="yes"/>
      <point x="215" y="304"/>
      <point x="213" y="365"/>
      <point x="207" y="444" type="curve"/>
      <point x="211" y="444" type="line"/>
      <point x="387" y="0" type="line"/>
    </contour>
  </outline>
</glyph>
<glyph name="N.serif" format="2">
  <advance width="672"/>
  <unicode hex="004E"/>
  <anchor x="336" y="0" name="bottom"/>
  <anchor x="336" y="714" name="top"/>
  <anchor x="665" y="714" name="topright"/>
  <outline>
    <contour>
      <point x="18" y="0" type="line"/>
      <point x="231" y="0" type="line"/>
      <point x="231" y="10" type="line"/>
      <point x="164" y="10" type="line" smooth="yes"/>
      <point x="134" y="10"/>
      <point x="124" y="25"/>
      <point x="124" y="73" type="curve" smooth="yes"/>
      <point x="124" y="665" type="line"/>
      <point x="469" y="0" type="line"/>
      <point x="558" y="0" type="line"/>
      <point x="558" y="641" type="line" smooth="yes"/>
      <point x="558" y="689"/>
      <point x="568" y="704"/>
      <point x="599" y="704" type="curve" smooth="yes"/>
      <point x="665" y="704" type="line"/>
      <point x="665" y="714" type="line"/>
      <point x="442" y="714" type="line"/>
      <point x="442" y="704" type="line"/>
      <point x="508" y="704" type="line" smooth="yes"/>
      <point x="538" y="704"/>
      <point x="548" y="690"/>
      <point x="548" y="645" type="curve" smooth="yes"/>
      <point x="548" y="172" type="line"/>
      <point x="265" y="714" type="line"/>
      <point x="18" y="714" type="line"/>
      <point x="18" y="704" type="line"/>
      <point x="73" y="704" type="line" smooth="yes"/>
      <point x="104" y="704"/>
      <point x="114" y="690"/>
      <point x="114" y="645" type="curve" smooth="yes"/>
      <point x="114" y="73" type="line" smooth="yes"/>
      <point x="114" y="25"/>
      <point x="102" y="10"/>
      <point x="65" y="10" type="curve" smooth="yes"/>
      <point x="18" y="10" type="line"/>
    </contour>
  </outline>
</glyph>
<glyph name="O" format="2">
  <advance width="607"/>
  <unicode hex="004F"/>
  <anchor x="304" y="0" name="bottom"/>
  <anchor x="304" y="357" name="center"/>
  <anchor x="304" y="725" name="top"/>
  <anchor x="588" y="725" name="topright"/>
  <outline>
    <contour>
      <point x="570" y="358" type="curve" smooth="yes"/>
      <point x="570" y="599"/>
      <point x="478" y="725"/>
      <point x="304" y="725" type="curve" smooth="yes"/>
      <point x="130" y="725"/>
      <point x="37" y="597"/>
      <point x="37" y="359" type="curve" smooth="yes"/>
      <point x="37" y="119"/>
      <point x="133" y="-10"/>
      <point x="304" y="-10" type="curve" smooth="yes"/>
      <point x="477" y="-10"/>
      <point x="570" y="118"/>
    </contour>
    <contour>
      <point x="215" y="358" type="curve" smooth="yes"/>
      <point x="215" y="505"/>
      <point x="245" y="579"/>
      <point x="304" y="579" type="curve" smooth="yes"/>
      <point x="363" y="579"/>
      <point x="392" y="509"/>
      <point x="392" y="358" type="curve" smooth="yes"/>
      <point x="392" y="208"/>
      <point x="364" y="139"/>
      <point x="304" y="139" type="curve" smooth="yes"/>
      <point x="245" y="139"/>
      <point x="215" y="212"/>
    </contour>
  </outline>
</glyph>
<glyph name="O.serif" format="2">
  <advance width="684"/>
  <unicode hex="004F"/>
  <anchor x="342" y="0" name="bottom"/>
  <anchor x="342" y="357" name="center"/>
  <anchor x="342" y="714" name="top"/>
  <anchor x="664" y="714" name="topright"/>
  <outline>
    <contour>
      <point x="343" y="-10" type="curve" smooth="yes"/>
      <point x="533" y="-10"/>
      <point x="639" y="137"/>
      <point x="639" y="358" type="curve" smooth="yes"/>
      <point x="639" y="580"/>
      <point x="533" y="725"/>
      <point x="344" y="725" type="curve" smooth="yes"/>
      <point x="142" y="725"/>
      <point x="45" y="580"/>
      <point x="45" y="359" type="curve" smooth="yes"/>
      <point x="45" y="137"/>
      <point x="142" y="-10"/>
    </contour>
    <contour>
      <point x="343" y="0" type="curve" smooth="yes"/>
      <point x="250" y="0"/>
      <point x="221" y="76"/>
      <point x="221" y="358" type="curve" smooth="yes"/>
      <point x="221" y="639"/>
      <point x="251" y="715"/>
      <point x="344" y="715" type="curve" smooth="yes"/>
      <point x="435" y="715"/>
      <point x="464" y="639"/>
      <point x="464" y="358" type="curve" smooth="yes"/>
      <point x="464" y="76"/>
      <point x="435" y="0"/>
    </contour>
  </outline>
</glyph>
<glyph name="P" format="2">
  <advance width="510"/>
  <unicode hex="0050"/>
  <anchor x="254" y="0" name="bottom"/>
  <anchor x="274" y="714" name="top"/>
  <anchor x="490" y="714" name="topright"/>
  <outline>
    <contour>
      <point x="267" y="714" type="curve" smooth="yes"/>
      <point x="56" y="714" type="line"/>
      <point x="56" y="0" type="line"/>
      <point x="227" y="0" type="line"/>
      <point x="227" y="237" type="line"/>
      <point x="258" y="237" type="line" smooth="yes"/>
      <point x="412" y="237"/>
      <point x="483" y="344"/>
      <point x="483" y="487" type="curve" smooth="yes"/>
      <point x="483" y="632"/>
      <point x="410" y="714"/>
    </contour>
    <contour>
      <point x="251" y="570" type="line"/>
      <point x="292" y="570"/>
      <point x="312" y="542"/>
      <point x="312" y="486" type="curve" smooth="yes"/>
      <point x="312" y="410"/>
      <point x="282" y="381"/>
      <point x="240" y="381" type="curve" smooth="yes"/>
      <point x="227" y="381" type="line"/>
      <point x="227" y="570" type="line"/>
    </contour>
  </outline>
</glyph>
<glyph name="P.serif" format="2">
  <advance width="553"/>
  <unicode hex="0050"/>
  <anchor x="178" y="0" name="bottom"/>
  <anchor x="277" y="714" name="top"/>
  <anchor x="583" y="714" name="topright"/>
  <outline>
    <contour>
      <point x="18" y="0" type="line"/>
      <point x="356" y="0" type="line"/>
      <point x="356" y="10" type="line"/>
      <point x="300" y="10" type="line" smooth="yes"/>
      <point x="271" y="10"/>
      <point x="262" y="24"/>
      <point x="262" y="68" type="curve" smooth="yes"/>
      <point x="262" y="271" type="line"/>
      <point x="280" y="271" type="line" smooth="yes"/>
      <point x="477" y="271"/>
      <point x="551" y="371"/>
      <point x="551" y="501" type="curve" smooth="yes"/>
      <point x="551" y="642"/>
      <point x="472" y="714"/>
      <point x="298" y="714" type="curve" smooth="yes"/>
      <point x="18" y="714" type="line"/>
      <point x="18" y="704" type="line"/>
      <point x="55" y="704" type="line" smooth="yes"/>
      <point x="85" y="704"/>
      <point x="94" y="690"/>
      <point x="94" y="645" type="curve" smooth="yes"/>
      <point x="94" y="73" type="line" smooth="yes"/>
      <point x="94" y="25"/>
      <point x="84" y="10"/>
      <point x="51" y="10" type="curve" smooth="yes"/>
      <point x="18" y="10" type="line"/>
    </contour>
    <contour>
      <point x="273" y="281" type="curve" smooth="yes"/>
      <point x="262" y="281" type="line"/>
      <point x="262" y="704" type="line"/>
      <point x="285" y="704" type="line" smooth="yes"/>
      <point x="356" y="704"/>
      <point x="378" y="655"/>
      <point x="378" y="499" type="curve" smooth="yes"/>
      <point x="378" y="333"/>
      <point x="353" y="281"/>
    </contour>
  </outline>
</glyph>
<glyph name="Q" format="2">
  <advance width="607"/>
  <unicode hex="0051"/>
  <anchor x="304" y="-170" name="bottom"/>
  <anchor x="304" y="725" name="top"/>
  <anchor x="588" y="725" name="topright"/>
  <outline>
    <contour>
      <point x="570" y="358" type="curve" smooth="yes"/>
      <point x="570" y="599"/>
      <point x="479" y="725"/>
      <point x="304" y="725" type="curve" smooth="yes"/>
      <point x="130" y="725"/>
      <point x="37" y="597"/>
      <point x="37" y="359" type="curve" smooth="yes"/>
      <point x="37" y="136"/>
      <point x="126" y="-9"/>
      <point x="288" y="-9" type="curve" smooth="yes"/>
      <point x="290" y="-9"/>
      <point x="292" y="-9"/>
      <point x="294" y="-9" type="curve"/>
      <point x="377" y="-170" type="line"/>
      <point x="568" y="-170" type="line"/>
      <point x="449" y="30" type="line"/>
      <point x="528" y="85"/>
      <point x="570" y="196"/>
    </contour>
    <contour>
      <point x="215" y="358" type="curve" smooth="yes"/>
      <point x="215" y="505"/>
      <point x="245" y="579"/>
      <point x="304" y="579" type="curve" smooth="yes"/>
      <point x="363" y="579"/>
      <point x="392" y="509"/>
      <point x="392" y="358" type="curve" smooth="yes"/>
      <point x="392" y="208"/>
      <point x="364" y="139"/>
      <point x="304" y="139" type="curve" smooth="yes"/>
      <point x="245" y="139"/>
      <point x="215" y="212"/>
    </contour>
  </outline>
</glyph>
<glyph name="Q.serif" format="2">
  <advance width="684"/>
  <unicode hex="0051"/>
  <anchor x="342" y="-237" name="bottom"/>
  <anchor x="342" y="714" name="top"/>
  <anchor x="664" y="714" name="topright"/>
  <outline>
    <contour>
      <point x="492" y="-237" type="curve" smooth="yes"/>
      <point x="570" y="-237" type="line"/>
      <point x="570" y="-227" type="line"/>
      <point x="557" y="-227" type="line" smooth="yes"/>
      <point x="510" y="-227"/>
      <point x="445" y="-198"/>
      <point x="439" y="4" type="curve"/>
      <point x="568" y="46"/>
      <point x="639" y="177"/>
      <point x="639" y="358" type="curve" smooth="yes"/>
      <point x="639" y="580"/>
      <point x="533" y="725"/>
      <point x="344" y="725" type="curve" smooth="yes"/>
      <point x="142" y="725"/>
      <point x="45" y="580"/>
      <point x="45" y="359" type="curve" smooth="yes"/>
      <point x="45" y="168"/>
      <point x="116" y="33"/>
      <point x="264" y="-1" type="curve"/>
      <point x="275" y="-171"/>
      <point x="382" y="-237"/>
    </contour>
    <contour>
      <point x="343" y="0" type="curve" smooth="yes"/>
      <point x="250" y="0"/>
      <point x="221" y="76"/>
      <point x="221" y="358" type="curve" smooth="yes"/>
      <point x="221" y="639"/>
      <point x="251" y="715"/>
      <point x="344" y="715" type="curve" smooth="yes"/>
      <point x="435" y="715"/>
      <point x="464" y="639"/>
      <point x="464" y="358" type="curve" smooth="yes"/>
      <point x="464" y="76"/>
      <point x="435" y="0"/>
    </contour>
  </outline>
</glyph>
<glyph name="R" format="2">
  <advance width="534"/>
  <unicode hex="0052"/>
  <anchor x="277" y="0" name="bottom"/>
  <anchor x="274" y="714" name="top"/>
  <anchor x="515" y="714" name="topright"/>
  <outline>
    <contour>
      <point x="246" y="714" type="curve" smooth="yes"/>
      <point x="56" y="714" type="line"/>
      <point x="56" y="0" type="line"/>
      <point x="227" y="0" type="line"/>
      <point x="227" y="268" type="line"/>
      <point x="245" y="268" type="line"/>
      <point x="352" y="0" type="line"/>
      <point x="540" y="0" type="line"/>
      <point x="395" y="311" type="line"/>
      <point x="457" y="356"/>
      <point x="488" y="420"/>
      <point x="488" y="503" type="curve" smooth="yes"/>
      <point x="488" y="644"/>
      <point x="408" y="714"/>
    </contour>
    <contour>
      <point x="244" y="572" type="line"/>
      <point x="289" y="572"/>
      <point x="313" y="546"/>
      <point x="313" y="494" type="curve" smooth="yes"/>
      <point x="313" y="431"/>
      <point x="290" y="400"/>
      <point x="242" y="400" type="curve" smooth="yes"/>
      <point x="227" y="400" type="line"/>
      <point x="227" y="572" type="line"/>
    </contour>
  </outline>
</glyph>
<glyph name="R.serif" format="2">
  <advance width="628"/>
  <unicode hex="0052"/>
  <anchor x="346" y="0" name="bottom"/>
  <anchor x="311" y="714" name="top"/>
  <anchor x="608" y="714" name="topright"/>
  <outline>
    <contour>
      <point x="18" y="0" type="line"/>
      <point x="322" y="0" type="line"/>
      <point x="322" y="10" type="line"/>
      <point x="302" y="10" type="line" smooth="yes"/>
      <point x="272" y="10"/>
      <point x="262" y="24"/>
      <point x="262" y="68" type="curve" smooth="yes"/>
      <point x="262" y="333" type="line"/>
      <point x="278" y="333" type="line"/>
      <point x="387" y="96" type="line" smooth="yes"/>
      <point x="421" y="22"/>
      <point x="468" y="0"/>
      <point x="589" y="0" type="curve" smooth="yes"/>
      <point x="628" y="0" type="line"/>
      <point x="628" y="10" type="line"/>
      <point x="626" y="10" type="line" smooth="yes"/>
      <point x="614" y="10"/>
      <point x="609" y="14"/>
      <point x="539" y="145" type="curve" smooth="yes"/>
      <point x="435" y="340" type="line"/>
      <point x="516" y="361"/>
      <point x="570" y="411"/>
      <point x="570" y="525" type="curve" smooth="yes"/>
      <point x="570" y="643"/>
      <point x="506" y="714"/>
      <point x="319" y="714" type="curve" smooth="yes"/>
      <point x="18" y="714" type="line"/>
      <point x="18" y="704" type="line"/>
      <point x="50" y="704" type="line" smooth="yes"/>
      <point x="83" y="704"/>
      <point x="94" y="690"/>
      <point x="94" y="645" type="curve" smooth="yes"/>
      <point x="94" y="68" type="line" smooth="yes"/>
      <point x="94" y="24"/>
      <point x="83" y="10"/>
      <point x="50" y="10" type="curve" smooth="yes"/>
      <point x="18" y="10" type="line"/>
    </contour>
    <contour>
      <point x="299" y="343" type="curve" smooth="yes"/>
      <point x="262" y="343" type="line"/>
      <point x="262" y="704" type="line"/>
      <point x="297" y="704" type="line" smooth="yes"/>
      <point x="365" y="704"/>
      <point x="392" y="655"/>
      <point x="392" y="530" type="curve" smooth="yes"/>
      <point x="392" y="395"/>
      <point x="366" y="343"/>
    </contour>
  </outline>
</glyph>
<glyph name="S" format="2">
  <advance width="443"/>
  <unicode hex="0053"/>
  <anchor x="207" y="0" name="bottom"/>
  <anchor x="236" y="714" name="top"/>
  <anchor x="423" y="714" name="topright"/>
  <outline>
    <contour>
      <point x="419" y="217" type="curve" smooth="yes"/>
      <point x="419" y="312"/>
      <point x="375" y="369"/>
      <point x="292" y="422" type="curve" smooth="yes"/>
      <point x="214" y="472"/>
      <point x="203" y="486"/>
      <point x="203" y="524" type="curve" smooth="yes"/>
      <point x="203" y="550"/>
      <point x="216" y="570"/>
      <point x="250" y="570" type="curve" smooth="yes"/>
      <point x="285" y="570"/>
      <point x="326" y="555"/>
      <point x="375" y="524" type="curve"/>
      <point x="420" y="673" type="line"/>
      <point x="359" y="707"/>
      <point x="300" y="724"/>
      <point x="243" y="724" type="curve" smooth="yes"/>
      <point x="104" y="724"/>
      <point x="30" y="642"/>
      <point x="30" y="515" type="curve" smooth="yes"/>
      <point x="30" y="401"/>
      <point x="82" y="353"/>
      <point x="163" y="300" type="curve" smooth="yes"/>
      <point x="238" y="251"/>
      <point x="246" y="231"/>
      <point x="246" y="200" type="curve" smooth="yes"/>
      <point x="246" y="169"/>
      <point x="228" y="147"/>
      <point x="189" y="147" type="curve" smooth="yes"/>
      <point x="142" y="147"/>
      <point x="81" y="169"/>
      <point x="26" y="207" type="curve"/>
      <point x="26" y="35" type="line"/>
      <point x="86" y="1"/>
      <point x="139" y="-10"/>
      <point x="200" y="-10" type="curve" smooth="yes"/>
      <point x="334" y="-10"/>
      <point x="419" y="84"/>
    </contour>
  </outline>
</glyph>
<glyph name="S.serif" format="2">
  <advance width="504"/>
  <unicode hex="0053"/>
  <anchor x="246" y="-10" name="bottom"/>
  <anchor x="252" y="714" name="top"/>
  <anchor x="484" y="714" name="topright"/>
  <outline>
    <contour>
      <point x="237" y="-10" type="curve" smooth="yes"/>
      <point x="385" y="-10"/>
      <point x="480" y="76"/>
      <point x="480" y="216" type="curve" smooth="yes"/>
      <point x="480" y="304"/>
      <point x="444" y="370"/>
      <point x="317" y="429" type="curve" smooth="yes"/>
      <point x="193" y="486"/>
      <point x="150" y="526"/>
      <point x="150" y="604" type="curve" smooth="yes"/>
      <point x="150" y="685"/>
      <point x="202" y="714"/>
      <point x="245" y="714" type="curve" smooth="yes"/>
      <point x="307" y="714"/>
      <point x="335" y="655"/>
      <point x="335" y="519" type="curve"/>
      <point x="425" y="519"/>
      <point x="456" y="553"/>
      <point x="456" y="598" type="curve" smooth="yes"/>
      <point x="456" y="661"/>
      <point x="398" y="724"/>
      <point x="263" y="724" type="curve" smooth="yes"/>
      <point x="136" y="724"/>
      <point x="38" y="648"/>
      <point x="38" y="516" type="curve" smooth="yes"/>
      <point x="38" y="432"/>
      <point x="73" y="363"/>
      <point x="199" y="302" type="curve" smooth="yes"/>
      <point x="290" y="258"/>
      <point x="366" y="224"/>
      <point x="366" y="117" type="curve" smooth="yes"/>
      <point x="366" y="43"/>
      <point x="329" y="1"/>
      <point x="261" y="1" type="curve" smooth="yes"/>
      <point x="171" y="1"/>
      <point x="131" y="74"/>
      <point x="131" y="229" type="curve"/>
      <point x="75" y="229"/>
      <point x="20" y="205"/>
      <point x="20" y="131" type="curve" smooth="yes"/>
      <point x="20" y="70"/>
      <point x="57" y="-10"/>
    </contour>
  </outline>
</glyph>
<glyph name="T" format="2">
  <advance width="452"/>
  <unicode hex="0054"/>
  <anchor x="226" y="0" name="bottom"/>
  <anchor x="226" y="357" name="center"/>
  <anchor x="226" y="714" name="top"/>
  <anchor x="432" y="714" name="topright"/>
  <outline>
    <contour>
      <point x="311" y="0" type="line"/>
      <point x="311" y="567" type="line"/>
      <point x="435" y="567" type="line"/>
      <point x="435" y="714" type="line"/>
      <point x="17" y="714" type="line"/>
      <point x="17" y="567" type="line"/>
      <point x="141" y="567" type="line"/>
      <point x="141" y="0" type="line"/>
    </contour>
  </outline>
</glyph>
<glyph name="T.serif" format="2">
  <advance width="569"/>
  <unicode hex="0054"/>
  <anchor x="284" y="0" name="bottom"/>
  <anchor x="284" y="357" name="center"/>
  <anchor x="284" y="714" name="top"/>
  <anchor x="588" y="714" name="topright"/>
  <outline>
    <contour>
      <point x="122" y="0" type="line"/>
      <point x="448" y="0" type="line"/>
      <point x="448" y="10" type="line"/>
      <point x="421" y="10" type="line" smooth="yes"/>
      <point x="382" y="10"/>
      <point x="370" y="26"/>
      <point x="370" y="75" type="curve" smooth="yes"/>
      <point x="370" y="704" type="line"/>
      <point x="394" y="704" type="line" smooth="yes"/>
      <point x="508" y="704"/>
      <point x="547" y="670"/>
      <point x="554" y="564" type="curve" smooth="yes"/>
      <point x="557" y="520" type="line"/>
      <point x="567" y="520" type="line"/>
      <point x="560" y="714" type="line"/>
      <point x="9" y="714" type="line"/>
      <point x="2" y="520" type="line"/>
      <point x="12" y="520" type="line"/>
      <point x="15" y="564" type="line" smooth="yes"/>
      <point x="22" y="670"/>
      <point x="61" y="704"/>
      <point x="175" y="704" type="curve" smooth="yes"/>
      <point x="201" y="704" type="line"/>
      <point x="201" y="75" type="line" smooth="yes"/>
      <point x="201" y="26"/>
      <point x="189" y="10"/>
      <point x="150" y="10" type="curve" smooth="yes"/>
      <point x="122" y="10" type="line"/>
    </contour>
  </outline>
</glyph>
<glyph name="U" format="2">
  <advance width="575"/>
  <unicode hex="0055"/>
  <anchor x="284" y="0" name="bottom"/>
  <anchor x="288" y="714" name="top"/>
  <anchor x="556" y="714" name="topright"/>
  <outline>
    <contour>
      <point x="523" y="242" type="curve" smooth="yes"/>
      <point x="523" y="714" type="line"/>
      <point x="352" y="714" type="line"/>
      <point x="352" y="247" type="line" smooth="yes"/>
      <point x="352" y="167"/>
      <point x="333" y="139"/>
      <point x="288" y="139" type="curve" smooth="yes"/>
      <point x="246" y="139"/>
      <point x="225" y="168"/>
      <point x="225" y="246" type="curve" smooth="yes"/>
      <point x="225" y="714" type="line"/>
      <point x="54" y="714" type="line"/>
      <point x="54" y="238" type="line" smooth="yes"/>
      <point x="54" y="72"/>
      <point x="137" y="-10"/>
      <point x="286" y="-10" type="curve" smooth="yes"/>
      <point x="439" y="-10"/>
      <point x="523" y="77"/>
    </contour>
  </outline>
</glyph>
<glyph name="U.serif" format="2">
  <advance width="642"/>
  <unicode hex="0055"/>
  <anchor x="321" y="0" name="bottom"/>
  <anchor x="372" y="714" name="top"/>
  <anchor x="652" y="714" name="topright"/>
  <outline>
    <contour>
      <point x="330" y="-10" type="curve" smooth="yes"/>
      <point x="475" y="-10"/>
      <point x="531" y="53"/>
      <point x="531" y="214" type="curve" smooth="yes"/>
      <point x="531" y="641" type="line" smooth="yes"/>
      <point x="531" y="697"/>
      <point x="554" y="704"/>
      <point x="574" y="704" type="curve" smooth="yes"/>
      <point x="628" y="704" type="line"/>
      <point x="628" y="714" type="line"/>
      <point x="413" y="714" type="line"/>
      <point x="413" y="704" type="line"/>
      <point x="469" y="704" type="line" smooth="yes"/>
      <point x="499" y="704"/>
      <point x="521" y="697"/>
      <point x="521" y="645" type="curve" smooth="yes"/>
      <point x="521" y="208" type="line" smooth="yes"/>
      <point x="521" y="68"/>
      <point x="470" y="9"/>
      <point x="372" y="9" type="curve" smooth="yes"/>
      <point x="300" y="9"/>
      <point x="259" y="44"/>
      <point x="259" y="155" type="curve" smooth="yes"/>
      <point x="259" y="641" type="line" smooth="yes"/>
      <point x="259" y="697"/>
      <point x="283" y="704"/>
      <point x="312" y="704" type="curve" smooth="yes"/>
      <point x="336" y="704" type="line"/>
      <point x="336" y="714" type="line"/>
      <point x="14" y="714" type="line"/>
      <point x="14" y="704" type="line"/>
      <point x="39" y="704" type="line" smooth="yes"/>
      <point x="68" y="704"/>
      <point x="92" y="697"/>
      <point x="92" y="645" type="curve" smooth="yes"/>
      <point x="92" y="218" type="line" smooth="yes"/>
      <point x="92" y="54"/>
      <point x="191" y="-10"/>
    </contour>
  </outline>
</glyph>
<glyph name="V" format="2">
  <advance width="551"/>
  <unicode hex="0056"/>
  <anchor x="273" y="0" name="bottom"/>
  <anchor x="277" y="714" name="top"/>
  <anchor x="532" y="714" name="topright"/>
  <outline>
    <contour>
      <point x="551" y="714" type="line"/>
      <point x="373" y="714" type="line"/>
      <point x="304" y="361" type="line" smooth="yes"/>
      <point x="295" y="314"/>
      <point x="280" y="224"/>
      <point x="275" y="181" type="curve"/>
      <point x="271" y="224"/>
      <point x="255" y="315"/>
      <point x="246" y="362" type="curve" smooth="yes"/>
      <point x="178" y="714" type="line"/>
      <point x="0" y="714" type="line"/>
      <point x="175" y="0" type="line"/>
      <point x="374" y="0" type="line"/>
    </contour>
  </outline>
</glyph>
<glyph name="V.serif" format="2">
  <advance width="596"/>
  <unicode hex="0056"/>
  <anchor x="298" y="0" name="bottom"/>
  <anchor x="358" y="714" name="top"/>
  <anchor x="616" y="714" name="topright"/>
  <outline>
    <contour>
      <point x="60" y="658" type="curve" smooth="yes"/>
      <point x="237" y="0" type="line"/>
      <point x="355" y="0" type="line"/>
      <point x="515" y="656" type="line"/>
      <point x="524" y="692"/>
      <point x="538" y="704"/>
      <point x="575" y="704" type="curve" smooth="yes"/>
      <point x="596" y="704" type="line"/>
      <point x="596" y="714" type="line"/>
      <point x="421" y="714" type="line"/>
      <point x="421" y="704" type="line"/>
      <point x="449" y="704" type="line" smooth="yes"/>
      <point x="490" y="704"/>
      <point x="503" y="697"/>
      <point x="503" y="676" type="curve" smooth="yes"/>
      <point x="503" y="654"/>
      <point x="499" y="630"/>
      <point x="485" y="574" type="curve" smooth="yes"/>
      <point x="406" y="251" type="line" smooth="yes"/>
      <point x="385" y="165"/>
      <point x="375" y="125"/>
      <point x="362" y="70" type="curve"/>
      <point x="356" y="105"/>
      <point x="325" y="251"/>
      <point x="318" y="281" type="curve" smooth="yes"/>
      <point x="236" y="625" type="line" smooth="yes"/>
      <point x="230" y="649"/>
      <point x="228" y="666"/>
      <point x="228" y="678" type="curve" smooth="yes"/>
      <point x="228" y="697"/>
      <point x="234" y="704"/>
      <point x="259" y="704" type="curve" smooth="yes"/>
      <point x="301" y="704" type="line"/>
      <point x="301" y="714" type="line"/>
      <point x="0" y="714" type="line"/>
      <point x="0" y="704" type="line"/>
      <point x="13" y="704" type="line" smooth="yes"/>
      <point x="39" y="704"/>
      <point x="51" y="693"/>
    </contour>
  </outline>
</glyph>
<glyph name="W" format="2">
  <advance width="792"/>
  <unicode hex="0057"/>
  <anchor x="395" y="0" name="bottom"/>
  <anchor x="396" y="714" name="top"/>
  <anchor x="773" y="714" name="topright"/>
  <outline>
    <contour>
      <point x="792" y="714" type="line"/>
      <point x="622" y="714" type="line"/>
      <point x="573" y="402" type="line" smooth="yes"/>
      <point x="562" y="334"/>
      <point x="551" y="254"/>
      <point x="548" y="199" type="curve"/>
      <point x="541" y="263"/>
      <point x="528" y="349"/>
      <point x="519" y="401" type="curve" smooth="yes"/>
      <point x="464" y="714" type="line"/>
      <point x="329" y="714" type="line"/>
      <point x="269" y="401" type="line" smooth="yes"/>
      <point x="260" y="355"/>
      <point x="246" y="271"/>
      <point x="239" y="199" type="curve"/>
      <point x="232" y="267"/>
      <point x="221" y="353"/>
      <point x="213" y="403" type="curve" smooth="yes"/>
      <point x="166" y="714" type="line"/>
      <point x="0" y="714" type="line"/>
      <point x="132" y="0" type="line"/>
      <point x="326" y="0" type="line"/>
      <point x="372" y="268" type="line" smooth="yes"/>
      <point x="382" y="327"/>
      <point x="392" y="408"/>
      <point x="396" y="462" type="curve"/>
      <point x="401" y="396"/>
      <point x="411" y="328"/>
      <point x="421" y="267" type="curve" smooth="yes"/>
      <point x="466" y="0" type="line"/>
      <point x="662" y="0" type="line"/>
    </contour>
  </outline>
</glyph>
<glyph name="W.serif" format="2">
  <advance width="902"/>
  <unicode hex="0057"/>
  <anchor x="451" y="0" name="bottom"/>
  <anchor x="497" y="714" name="top"/>
  <anchor x="932" y="714" name="topright"/>
  <outline>
    <contour>
      <point x="76" y="651" type="curve" smooth="yes"/>
      <point x="226" y="0" type="line"/>
      <point x="339" y="0" type="line"/>
      <point x="449" y="496" type="line"/>
      <point x="584" y="0" type="line"/>
      <point x="667" y="0" type="line"/>
      <point x="800" y="626" type="line" smooth="yes"/>
      <point x="814" y="692"/>
      <point x="831" y="704"/>
      <point x="863" y="704" type="curve" smooth="yes"/>
      <point x="908" y="704" type="line"/>
      <point x="908" y="714" type="line"/>
      <point x="691" y="714" type="line"/>
      <point x="691" y="704" type="line"/>
      <point x="740" y="704" type="line" smooth="yes"/>
      <point x="776" y="704"/>
      <point x="792" y="693"/>
      <point x="792" y="661" type="curve" smooth="yes"/>
      <point x="792" y="649"/>
      <point x="790" y="627"/>
      <point x="785" y="604" type="curve" smooth="yes"/>
      <point x="728" y="337" type="line" smooth="yes"/>
      <point x="713" y="267"/>
      <point x="704" y="220"/>
      <point x="698" y="191" type="curve"/>
      <point x="688" y="232"/>
      <point x="675" y="280"/>
      <point x="658" y="339" type="curve" smooth="yes"/>
      <point x="550" y="707" type="line"/>
      <point x="486" y="707" type="line"/>
      <point x="398" y="312" type="line" smooth="yes"/>
      <point x="383" y="244"/>
      <point x="368" y="179"/>
      <point x="356" y="121" type="curve"/>
      <point x="347" y="174"/>
      <point x="326" y="286"/>
      <point x="314" y="344" type="curve" smooth="yes"/>
      <point x="261" y="597" type="line" smooth="yes"/>
      <point x="257" y="617"/>
      <point x="252" y="648"/>
      <point x="252" y="659" type="curve" smooth="yes"/>
      <point x="252" y="690"/>
      <point x="268" y="704"/>
      <point x="301" y="704" type="curve" smooth="yes"/>
      <point x="332" y="704" type="line"/>
      <point x="332" y="714" type="line"/>
      <point x="-5" y="714" type="line"/>
      <point x="-5" y="704" type="line"/>
      <point x="28" y="704" type="line" smooth="yes"/>
      <point x="49" y="704"/>
      <point x="66" y="693"/>
    </contour>
  </outline>
</glyph>
<glyph name="X" format="2">
  <advance width="514"/>
  <unicode hex="0058"/>
  <anchor x="257" y="0" name="bottom"/>
  <anchor x="249" y="714" name="top"/>
  <anchor x="494" y="714" name="topright"/>
  <outline>
    <contour>
      <point x="516" y="0" type="line"/>
      <point x="348" y="363" type="line"/>
      <point x="492" y="714" type="line"/>
      <point x="311" y="714" type="line"/>
      <point x="250" y="516" type="line"/>
      <point x="184" y="714" type="line"/>
      <point x="7" y="714" type="line"/>
      <point x="157" y="357" type="line"/>
      <point x="-2" y="0" type="line"/>
      <point x="178" y="0" type="line"/>
      <point x="256" y="206" type="line"/>
      <point x="332" y="0" type="line"/>
    </contour>
  </outline>
</glyph>
<glyph name="X.serif" format="2">
  <advance width="655"/>
  <unicode hex="0058"/>
  <anchor x="288" y="0" name="bottom"/>
  <anchor x="378" y="714" name="top"/>
  <anchor x="655" y="714" name="topright"/>
  <outline>
    <contour>
      <point x="9" y="0" type="line"/>
      <point x="208" y="0" type="line"/>
      <point x="208" y="10" type="line"/>
      <point x="151" y="10" type="line" smooth="yes"/>
      <point x="127" y="10"/>
      <point x="115" y="16"/>
      <point x="115" y="31" type="curve" smooth="yes"/>
      <point x="115" y="45"/>
      <point x="125" y="66"/>
      <point x="143" y="97" type="curve" smooth="yes"/>
      <point x="272" y="313" type="line"/>
      <point x="375" y="112" type="line" smooth="yes"/>
      <point x="392" y="79"/>
      <point x="400" y="55"/>
      <point x="400" y="39" type="curve" smooth="yes"/>
      <point x="400" y="18"/>
      <point x="385" y="10"/>
      <point x="352" y="10" type="curve" smooth="yes"/>
      <point x="333" y="10" type="line"/>
      <point x="333" y="0" type="line"/>
      <point x="645" y="0" type="line"/>
      <point x="645" y="10" type="line"/>
      <point x="639" y="10" type="line" smooth="yes"/>
      <point x="617" y="10"/>
      <point x="603" y="23"/>
      <point x="583" y="63" type="curve" smooth="yes"/>
      <point x="400" y="421" type="line"/>
      <point x="542" y="658" type="line" smooth="yes"/>
      <point x="563" y="693"/>
      <point x="579" y="704"/>
      <point x="611" y="704" type="curve" smooth="yes"/>
      <point x="635" y="704" type="line"/>
      <point x="635" y="714" type="line"/>
      <point x="440" y="714" type="line"/>
      <point x="440" y="704" type="line"/>
      <point x="497" y="704" type="line" smooth="yes"/>
      <point x="521" y="704"/>
      <point x="533" y="698"/>
      <point x="533" y="683" type="curve" smooth="yes"/>
      <point x="533" y="669"/>
      <point x="523" y="648"/>
      <point x="505" y="617" type="curve" smooth="yes"/>
      <point x="394" y="432" type="line"/>
      <point x="300" y="616" type="line" smooth="yes"/>
      <point x="286" y="644"/>
      <point x="278" y="663"/>
      <point x="278" y="677" type="curve" smooth="yes"/>
      <point x="278" y="697"/>
      <point x="293" y="704"/>
      <point x="325" y="704" type="curve" smooth="yes"/>
      <point x="345" y="704" type="line"/>
      <point x="345" y="714" type="line"/>
      <point x="31" y="714" type="line"/>
      <point x="31" y="704" type="line"/>
      <point x="43" y="704" type="line" smooth="yes"/>
      <point x="65" y="704"/>
      <point x="78" y="691"/>
      <point x="99" y="651" type="curve" smooth="yes"/>
      <point x="267" y="323" type="line"/>
      <point x="106" y="56" type="line" smooth="yes"/>
      <point x="85" y="21"/>
      <point x="69" y="10"/>
      <point x="37" y="10" type="curve" smooth="yes"/>
      <point x="9" y="10" type="line"/>
    </contour>
  </outline>
</glyph>
<glyph name="Y" format="2">
  <advance width="519"/>
  <unicode hex="0059"/>
  <anchor x="260" y="0" name="bottom"/>
  <anchor x="260" y="714" name="top"/>
  <anchor x="500" y="714" name="topright"/>
  <outline>
    <contour>
      <point x="261" y="454" type="line"/>
      <point x="178" y="714" type="line"/>
      <point x="0" y="714" type="line"/>
      <point x="174" y="268" type="line"/>
      <point x="174" y="0" type="line"/>
      <point x="345" y="0" type="line"/>
      <point x="345" y="274" type="line"/>
      <point x="519" y="714" type="line"/>
      <point x="344" y="714" type="line"/>
    </contour>
  </outline>
</glyph>
<glyph name="Y.serif" format="2">
  <advance width="620"/>
  <unicode hex="0059"/>
  <anchor x="310" y="0" name="bottom"/>
  <anchor x="383" y="714" name="top"/>
  <anchor x="600" y="714" name="topright"/>
  <outline>
    <contour>
      <point x="140" y="0" type="line"/>
      <point x="484" y="0" type="line"/>
      <point x="484" y="10" type="line"/>
      <point x="444" y="10" type="line" smooth="yes"/>
      <point x="408" y="10"/>
      <point x="397" y="26"/>
      <point x="397" y="77" type="curve" smooth="yes"/>
      <point x="397" y="270" type="line"/>
      <point x="551" y="659" type="line" smooth="yes"/>
      <point x="564" y="693"/>
      <point x="579" y="704"/>
      <point x="610" y="704" type="curve" smooth="yes"/>
      <point x="619" y="704" type="line"/>
      <point x="619" y="714" type="line"/>
      <point x="449" y="714" type="line"/>
      <point x="449" y="704" type="line"/>
      <point x="503" y="704" type="line" smooth="yes"/>
      <point x="531" y="704"/>
      <point x="540" y="697"/>
      <point x="540" y="676" type="curve" smooth="yes"/>
      <point x="540" y="663"/>
      <point x="536" y="649"/>
      <point x="523" y="616" type="curve" smooth="yes"/>
      <point x="418" y="351" type="line" smooth="yes"/>
      <point x="410" y="330"/>
      <point x="400" y="303"/>
      <point x="392" y="280" type="curve"/>
      <point x="382" y="310"/>
      <point x="374" y="331"/>
      <point x="366" y="352" type="curve" smooth="yes"/>
      <point x="255" y="627" type="line" smooth="yes"/>
      <point x="247" y="647"/>
      <point x="245" y="657"/>
      <point x="245" y="669" type="curve" smooth="yes"/>
      <point x="245" y="696"/>
      <point x="261" y="704"/>
      <point x="312" y="704" type="curve" smooth="yes"/>
      <point x="320" y="704" type="line"/>
      <point x="320" y="714" type="line"/>
      <point x="3" y="714" type="line"/>
      <point x="3" y="704" type="line"/>
      <point x="9" y="704" type="line" smooth="yes"/>
      <point x="38" y="704"/>
      <point x="52" y="691"/>
      <point x="69" y="651" type="curve" smooth="yes"/>
      <point x="227" y="279" type="line"/>
      <point x="227" y="78" type="line" smooth="yes"/>
      <point x="227" y="26"/>
      <point x="213" y="10"/>
      <point x="170" y="10" type="curve" smooth="yes"/>
      <point x="140" y="10" type="line"/>
    </contour>
  </outline>
</glyph>
<glyph name="Z" format="2">
  <advance width="464"/>
  <unicode hex="005A"/>
  <anchor x="241" y="0" name="bottom"/>
  <anchor x="233" y="714" name="top"/>
  <anchor x="445" y="714" name="topright"/>
  <outline>
    <contour>
      <point x="444" y="0" type="line"/>
      <point x="444" y="146" type="line"/>
      <point x="206" y="146" type="line"/>
      <point x="438" y="595" type="line"/>
      <point x="438" y="714" type="line"/>
      <point x="25" y="714" type="line"/>
      <point x="25" y="570" type="line"/>
      <point x="253" y="570" type="line"/>
      <point x="20" y="119" type="line"/>
      <point x="20" y="0" type="line"/>
    </contour>
  </outline>
</glyph>
<glyph name="Z.serif" format="2">
  <advance width="601"/>
  <unicode hex="005A"/>
  <anchor x="294" y="0" name="bottom"/>
  <anchor x="294" y="714" name="top"/>
  <anchor x="574" y="714" name="topright"/>
  <outline>
    <contour>
      <point x="35" y="0" type="line"/>
      <point x="556" y="0" type="line"/>
      <point x="563" y="206" type="line"/>
      <point x="553" y="206" type="line"/>
      <point x="549" y="150" type="line" smooth="yes"/>
      <point x="541" y="49"/>
      <point x="497" y="10"/>
      <point x="389" y="10" type="curve" smooth="yes"/>
      <point x="216" y="10" type="line"/>
      <point x="541" y="704" type="line"/>
      <point x="541" y="714" type="line"/>
      <point x="61" y="714" type="line"/>
      <point x="54" y="508" type="line"/>
      <point x="65" y="508" type="line"/>
      <point x="68" y="564" type="line" smooth="yes"/>
      <point x="73" y="665"/>
      <point x="118" y="704"/>
      <point x="228" y="704" type="curve" smooth="yes"/>
      <point x="360" y="704" type="line"/>
      <point x="35" y="10" type="line"/>
    </contour>
  </outline>
</glyph>
<glyph name="bracketleft" format="2">
  <advance width="294"/>
  <unicode hex="005B"/>
  <outline>
    <contour>
      <point x="278" y="-168" type="line"/>
      <point x="278" y="-44" type="line"/>
      <point x="188" y="-44" type="line"/>
      <point x="188" y="610" type="line"/>
      <point x="278" y="610" type="line"/>
      <point x="278" y="734" type="line"/>
      <point x="38" y="734" type="line"/>
      <point x="38" y="-168" type="line"/>
    </contour>
  </outline>
</glyph>
<glyph name="bracketleft.serif" format="2">
  <advance width="379"/>
  <unicode hex="005B"/>
  <outline>
    <contour>
      <point x="83" y="-128" type="line"/>
      <point x="348" y="-128" type="line"/>
      <point x="348" y="-118" type="line"/>
      <point x="313" y="-118" type="line" smooth="yes"/>
      <point x="261" y="-118"/>
      <point x="244" y="-101"/>
      <point x="244" y="-46" type="curve" smooth="yes"/>
      <point x="244" y="678" type="line" smooth="yes"/>
      <point x="244" y="733"/>
      <point x="261" y="750"/>
      <point x="313" y="750" type="curve" smooth="yes"/>
      <point x="348" y="750" type="line"/>
      <point x="348" y="760" type="line"/>
      <point x="83" y="760" type="line"/>
    </contour>
  </outline>
</glyph>
<glyph name="backslash" format="2">
  <advance width="416"/>
  <unicode hex="005C"/>
  <outline>
    <contour>
      <point x="143" y="724" type="line"/>
      <point x="1" y="724" type="line"/>
      <point x="273" y="-10" type="line"/>
      <point x="414" y="-10" type="line"/>
    </contour>
  </outline>
</glyph>
<glyph name="bracketright" format="2">
  <advance width="294"/>
  <unicode hex="005D"/>
  <outline>
    <contour>
      <point x="17" y="-44" type="line"/>
      <point x="17" y="-168" type="line"/>
      <point x="256" y="-168" type="line"/>
      <point x="256" y="734" type="line"/>
      <point x="17" y="734" type="line"/>
      <point x="17" y="610" type="line"/>
      <point x="106" y="610" type="line"/>
      <point x="106" y="-44" type="line"/>
    </contour>
  </outline>
</glyph>
<glyph name="asciicircum" format="2">
  <advance width="531"/>
  <unicode hex="005E"/>
  <outline>
    <contour>
      <point x="5" y="242" type="line"/>
      <point x="151" y="242" type="line"/>
      <point x="266" y="495" type="line"/>
      <point x="380" y="242" type="line"/>
      <point x="526" y="242" type="line"/>
      <point x="307" y="714" type="line"/>
      <point x="224" y="714" type="line"/>
    </contour>
  </outline>
</glyph>
<glyph name="grave" format="2">
  <advance width="337"/>
  <unicode hex="0060"/>
  <outline>
    <contour>
      <point x="222" y="766" type="curve"/>
      <point x="40" y="766" type="line"/>
      <point x="40" y="756" type="line"/>
      <point x="65" y="724"/>
      <point x="147" y="636"/>
      <point x="177" y="606" type="curve"/>
      <point x="297" y="606" type="line"/>
      <point x="297" y="620" type="line"/>
      <point x="281" y="648"/>
      <point x="239" y="727"/>
    </contour>
  </outline>
</glyph>
<glyph name="grave.serif" format="2">
  <advance width="291"/>
  <unicode hex="0060"/>
  <outline>
    <contour>
      <point x="241" y="605" type="curve"/>
      <point x="251" y="605" type="line"/>
      <point x="251" y="615" type="line"/>
      <point x="229" y="656"/>
      <point x="203" y="721"/>
      <point x="186" y="766" type="curve"/>
      <point x="40" y="766" type="line"/>
      <point x="40" y="756" type="line"/>
      <point x="75" y="721"/>
      <point x="182" y="643"/>
    </contour>
  </outline>
</glyph>
<glyph name="a.serif" format="2">
  <advance width="523"/>
  <unicode hex="0061"/>
  <anchor x="377" y="0" name="bottom"/>
  <anchor x="262" y="536" name="top"/>
  <anchor x="503" y="536" name="topright"/>
  <outline>
    <contour>
      <point x="166" y="-10" type="curve" smooth="yes"/>
      <point x="225" y="-10"/>
      <point x="267" y="11"/>
      <point x="285" y="76" type="curve"/>
      <point x="287" y="76" type="line"/>
      <point x="287" y="0" type="line"/>
      <point x="502" y="0" type="line"/>
      <point x="502" y="10" type="line"/>
      <point x="499" y="10" type="line" smooth="yes"/>
      <point x="461" y="10"/>
      <point x="449" y="26"/>
      <point x="449" y="80" type="curve" smooth="yes"/>
      <point x="449" y="380" type="line" smooth="yes"/>
      <point x="449" y="505"/>
      <point x="385" y="550"/>
      <point x="257" y="550" type="curve" smooth="yes"/>
      <point x="155" y="550"/>
      <point x="69" y="518"/>
      <point x="69" y="446" type="curve" smooth="yes"/>
      <point x="69" y="398"/>
      <point x="111" y="378"/>
      <point x="200" y="378" type="curve"/>
      <point x="200" y="501"/>
      <point x="210" y="540"/>
      <point x="245" y="540" type="curve" smooth="yes"/>
      <point x="276" y="540"/>
      <point x="286" y="513"/>
      <point x="286" y="428" type="curve" smooth="yes"/>
      <point x="286" y="300" type="line"/>
      <point x="218" y="297" type="line" smooth="yes"/>
      <point x="95" y="292"/>
      <point x="34" y="243"/>
      <point x="34" y="144" type="curve" smooth="yes"/>
      <point x="34" y="42"/>
      <point x="94" y="-10"/>
    </contour>
    <contour>
      <point x="233" y="24" type="curve" smooth="yes"/>
      <point x="210" y="24"/>
      <point x="200" y="45"/>
      <point x="200" y="150" type="curve" smooth="yes"/>
      <point x="200" y="246"/>
      <point x="215" y="284"/>
      <point x="261" y="288" type="curve" smooth="yes"/>
      <point x="286" y="290" type="line"/>
      <point x="286" y="161" type="line" smooth="yes"/>
      <point x="286" y="88"/>
      <point x="264" y="24"/>
    </contour>
  </outline>
</glyph>
<glyph name="b" format="2">
  <advance width="512"/>
  <unicode hex="0062"/>
  <anchor x="273" y="0" name="bottom"/>
  <anchor x="259" y="760" name="top"/>
  <anchor x="475" y="760" name="topright"/>
  <outline>
    <contour>
      <point x="210" y="588" type="curve" smooth="yes"/>
      <point x="210" y="760" type="line"/>
      <point x="47" y="760" type="line"/>
      <point x="47" y="0" type="line"/>
      <point x="177" y="0" type="line"/>
      <point x="202" y="54" type="line"/>
      <point x="210" y="54" type="line"/>
      <point x="248" y="3"/>
      <point x="274" y="-10"/>
      <point x="322" y="-10" type="curve" smooth="yes"/>
      <point x="423" y="-10"/>
      <point x="482" y="101"/>
      <point x="482" y="278" type="curve" smooth="yes"/>
      <point x="482" y="455"/>
      <point x="421" y="563"/>
      <point x="326" y="563" type="curve" smooth="yes"/>
      <point x="278" y="563"/>
      <point x="239" y="539"/>
      <point x="210" y="482" type="curve"/>
      <point x="205" y="482" type="line"/>
      <point x="208" y="532"/>
      <point x="210" y="567"/>
    </contour>
    <contour>
      <point x="266" y="424" type="curve" smooth="yes"/>
      <point x="300" y="424"/>
      <point x="317" y="376"/>
      <point x="317" y="280" type="curve" smooth="yes"/>
      <point x="317" y="175"/>
      <point x="299" y="125"/>
      <point x="267" y="125" type="curve" smooth="yes"/>
      <point x="226" y="125"/>
      <point x="210" y="166"/>
      <point x="210" y="265" type="curve" smooth="yes"/>
      <point x="210" y="297" type="line" smooth="yes"/>
      <point x="210" y="385"/>
      <point x="227" y="424"/>
    </contour>
  </outline>
</glyph>
<glyph name="c" format="2">
  <advance width="425"/>
  <unicode hex="0063"/>
  <anchor x="248" y="0" name="bottom"/>
  <anchor x="242" y="553" name="top"/>
  <anchor x="395" y="553" name="topright"/>
  <outline>
    <contour>
      <point x="248" y="-10" type="curve" smooth="yes"/>
      <point x="303" y="-10"/>
      <point x="349" y="4"/>
      <point x="389" y="33" type="curve"/>
      <point x="389" y="171" type="line"/>
      <point x="356" y="143"/>
      <point x="321" y="128"/>
      <point x="286" y="128" type="curve" smooth="yes"/>
      <point x="226" y="128"/>
      <point x="195" y="177"/>
      <point x="195" y="274" type="curve" smooth="yes"/>
      <point x="195" y="371"/>
      <point x="229" y="425"/>
      <point x="282" y="425" type="curve" smooth="yes"/>
      <point x="309" y="425"/>
      <point x="338" y="412"/>
      <point x="361" y="398" type="curve"/>
      <point x="403" y="521" type="line"/>
      <point x="359" y="549"/>
      <point x="312" y="563"/>
      <point x="251" y="563" type="curve" smooth="yes"/>
      <point x="96" y="563"/>
      <point x="30" y="435"/>
      <point x="30" y="274" type="curve" smooth="yes"/>
      <point x="30" y="78"/>
      <point x="102" y="-10"/>
    </contour>
  </outline>
</glyph>
<glyph name="c.serif" format="2">
  <advance width="461"/>
  <unicode hex="0063"/>
  <anchor x="251" y="0" name="bottom"/>
  <anchor x="251" y="536" name="top"/>
  <anchor x="441" y="536" name="topright"/>
  <outline>
    <contour>
      <point x="254" y="-10" type="curve" smooth="yes"/>
      <point x="396" y="-10"/>
      <point x="431" y="55"/>
      <point x="431" y="99" type="curve" smooth="yes"/>
      <point x="431" y="126"/>
      <point x="418" y="149"/>
      <point x="391" y="153" type="curve"/>
      <point x="382" y="37"/>
      <point x="343" y="2"/>
      <point x="293" y="2" type="curve" smooth="yes"/>
      <point x="221" y="2"/>
      <point x="198" y="66"/>
      <point x="198" y="267" type="curve" smooth="yes"/>
      <point x="198" y="484"/>
      <point x="209" y="540"/>
      <point x="252" y="540" type="curve" smooth="yes"/>
      <point x="286" y="540"/>
      <point x="299" y="505"/>
      <point x="299" y="353" type="curve"/>
      <point x="415" y="353"/>
      <point x="432" y="406"/>
      <point x="432" y="441" type="curve" smooth="yes"/>
      <point x="432" y="503"/>
      <point x="381" y="550"/>
      <point x="259" y="550" type="curve" smooth="yes"/>
      <point x="123" y="550"/>
      <point x="34" y="483"/>
      <point x="34" y="266" type="curve" smooth="yes"/>
      <point x="34" y="59"/>
      <point x="121" y="-10"/>
    </contour>
  </outline>
</glyph>
<glyph name="d" format="2">
  <advance width="512"/>
  <unicode hex="0064"/>
  <anchor x="251" y="0" name="bottom"/>
  <anchor x="256" y="277" name="center"/>
  <anchor x="237" y="760" name="top"/>
  <anchor x="484" y="760" name="topright"/>
  <outline>
    <contour>
      <point x="191" y="-10" type="curve" smooth="yes"/>
      <point x="242" y="-10"/>
      <point x="267" y="8"/>
      <point x="302" y="54" type="curve"/>
      <point x="311" y="54" type="line"/>
      <point x="334" y="0" type="line"/>
      <point x="465" y="0" type="line"/>
      <point x="465" y="760" type="line"/>
      <point x="302" y="760" type="line"/>
      <point x="302" y="588" type="line" smooth="yes"/>
      <point x="302" y="567"/>
      <point x="304" y="532"/>
      <point x="307" y="482" type="curve"/>
      <point x="302" y="482" type="line"/>
      <point x="273" y="539"/>
      <point x="235" y="563"/>
      <point x="186" y="563" type="curve" smooth="yes"/>
      <point x="90" y="563"/>
      <point x="30" y="455"/>
      <point x="30" y="278" type="curve" smooth="yes"/>
      <point x="30" y="101"/>
      <point x="89" y="-10"/>
    </contour>
    <contour>
      <point x="244" y="125" type="curve" smooth="yes"/>
      <point x="213" y="125"/>
      <point x="195" y="175"/>
      <point x="195" y="280" type="curve" smooth="yes"/>
      <point x="195" y="376"/>
      <point x="213" y="424"/>
      <point x="246" y="424" type="curve" smooth="yes"/>
      <point x="285" y="424"/>
      <point x="302" y="385"/>
      <point x="302" y="297" type="curve" smooth="yes"/>
      <point x="302" y="265" type="line" smooth="yes"/>
      <point x="302" y="166"/>
      <point x="286" y="125"/>
    </contour>
  </outline>
</glyph>
<glyph name="e" format="2">
  <advance width="471"/>
  <unicode hex="0065"/>
  <anchor x="255" y="0" name="bottom"/>
  <anchor x="241" y="553" name="top"/>
  <anchor x="465" y="553" name="topright"/>
  <outline>
    <contour>
      <point x="240" y="562" type="curve" smooth="yes"/>
      <point x="102" y="562"/>
      <point x="30" y="459"/>
      <point x="30" y="274" type="curve" smooth="yes"/>
      <point x="30" y="90"/>
      <point x="98" y="-10"/>
      <point x="255" y="-10" type="curve" smooth="yes"/>
      <point x="318" y="-10"/>
      <point x="371" y="2"/>
      <point x="419" y="30" type="curve"/>
      <point x="419" y="162" type="line"/>
      <point x="368" y="131"/>
      <point x="329" y="119"/>
      <point x="279" y="119" type="curve" smooth="yes"/>
      <point x="218" y="119"/>
      <point x="190" y="151"/>
      <point x="190" y="225" type="curve"/>
      <point x="446" y="225" type="line"/>
      <point x="446" y="310" type="line" smooth="yes"/>
      <point x="446" y="472"/>
      <point x="370" y="562"/>
    </contour>
    <contour>
      <point x="244" y="437" type="curve" smooth="yes"/>
      <point x="275" y="437"/>
      <point x="296" y="409"/>
      <point x="296" y="339" type="curve"/>
      <point x="189" y="339" type="line"/>
      <point x="189" y="411"/>
      <point x="213" y="437"/>
    </contour>
  </outline>
</glyph>
<glyph name="e.serif" format="2">
  <advance width="499"/>
  <unicode hex="0065"/>
  <anchor x="260" y="0" name="bottom"/>
  <anchor x="260" y="536" name="top"/>
  <anchor x="479" y="536" name="topright"/>
  <outline>
    <contour>
      <point x="267" y="-10" type="curve" smooth="yes"/>
      <point x="401" y="-10"/>
      <point x="452" y="54"/>
      <point x="452" y="109" type="curve" smooth="yes"/>
      <point x="452" y="133"/>
      <point x="436" y="149"/>
      <point x="416" y="155" type="curve"/>
      <point x="407" y="36"/>
      <point x="366" y="4"/>
      <point x="309" y="4" type="curve" smooth="yes"/>
      <point x="229" y="4"/>
      <point x="196" y="74"/>
      <point x="196" y="285" type="curve"/>
      <point x="468" y="285" type="line"/>
      <point x="468" y="308" type="line" smooth="yes"/>
      <point x="468" y="466"/>
      <point x="388" y="550"/>
      <point x="257" y="550" type="curve" smooth="yes"/>
      <point x="115" y="550"/>
      <point x="34" y="453"/>
      <point x="34" y="265" type="curve" smooth="yes"/>
      <point x="34" y="91"/>
      <point x="109" y="-10"/>
    </contour>
    <contour>
      <point x="308" y="295" type="curve"/>
      <point x="196" y="295" type="line"/>
      <point x="196" y="491"/>
      <point x="213" y="540"/>
      <point x="256" y="540" type="curve" smooth="yes"/>
      <point x="298" y="540"/>
      <point x="308" y="491"/>
    </contour>
  </outline>
</glyph>
<glyph name="f" format="2">
  <advance width="323"/>
  <unicode hex="0066"/>
  <anchor x="147" y="0" name="bottom"/>
  <anchor x="214" y="765" name="top"/>
  <anchor x="339" y="765" name="topright"/>
  <outline>
    <contour>
      <point x="316" y="420" type="line"/>
      <point x="316" y="553" type="line"/>
      <point x="229" y="553" type="line"/>
      <point x="229" y="573" type="line" smooth="yes"/>
      <point x="229" y="613"/>
      <point x="238" y="630"/>
      <point x="258" y="630" type="curve" smooth="yes"/>
      <point x="275" y="630"/>
      <point x="292" y="626"/>
      <point x="309" y="620" type="curve"/>
      <point x="341" y="739" type="line"/>
      <point x="292" y="758"/>
      <point x="262" y="765"/>
      <point x="218" y="765" type="curve" smooth="yes"/>
      <point x="115" y="765"/>
      <point x="66" y="707"/>
      <point x="66" y="560" type="curve" smooth="yes"/>
      <point x="66" y="551" type="line"/>
      <point x="7" y="506" type="line"/>
      <point x="7" y="420" type="line"/>
      <point x="66" y="420" type="line"/>
      <point x="66" y="0" type="line"/>
      <point x="229" y="0" type="line"/>
      <point x="229" y="420" type="line"/>
    </contour>
  </outline>
</glyph>
<glyph name="f.serif" format="2">
  <advance width="363"/>
  <unicode hex="0066"/>
  <anchor x="182" y="0" name="bottom"/>
  <anchor x="242" y="769" name="top"/>
  <anchor x="433" y="769" name="topright"/>
  <outline>
    <contour>
      <point x="11" y="0" type="line"/>
      <point x="347" y="0" type="line"/>
      <point x="347" y="10" type="line"/>
      <point x="303" y="10" type="line" smooth="yes"/>
      <point x="284" y="10"/>
      <point x="250" y="17"/>
      <point x="250" y="73" type="curve" smooth="yes"/>
      <point x="250" y="526" type="line"/>
      <point x="363" y="526" type="line"/>
      <point x="363" y="536" type="line"/>
      <point x="250" y="536" type="line"/>
      <point x="250" y="640" type="line" smooth="yes"/>
      <point x="250" y="730"/>
      <point x="258" y="759"/>
      <point x="281" y="759" type="curve" smooth="yes"/>
      <point x="305" y="759"/>
      <point x="312" y="726"/>
      <point x="312" y="622" type="curve"/>
      <point x="402" y="622"/>
      <point x="421" y="657"/>
      <point x="421" y="695" type="curve" smooth="yes"/>
      <point x="421" y="730"/>
      <point x="398" y="769"/>
      <point x="274" y="769" type="curve" smooth="yes"/>
      <point x="137" y="769"/>
      <point x="88" y="695"/>
      <point x="88" y="569" type="curve" smooth="yes"/>
      <point x="88" y="536" type="line"/>
      <point x="15" y="536" type="line"/>
      <point x="15" y="526" type="line"/>
      <point x="88" y="526" type="line"/>
      <point x="88" y="73" type="line" smooth="yes"/>
      <point x="88" y="17"/>
      <point x="50" y="10"/>
      <point x="35" y="10" type="curve" smooth="yes"/>
      <point x="11" y="10" type="line"/>
    </contour>
  </outline>
</glyph>
<glyph name="g" format="2">
  <advance width="512"/>
  <unicode hex="0067"/>
  <anchor x="225" y="-240" name="bottom"/>
  <anchor x="265" y="553" name="top"/>
  <anchor x="481" y="553" name="topright"/>
  <outline>
    <contour>
      <point x="191" y="563" type="curve" smooth="yes"/>
      <point x="89" y="563"/>
      <point x="30" y="453"/>
      <point x="30" y="272" type="curve" smooth="yes"/>
      <point x="30" y="99"/>
      <point x="90" y="-10"/>
      <point x="186" y="-10" type="curve" smooth="yes"/>
      <point x="241" y="-10"/>
      <point x="273" y="14"/>
      <point x="302" y="71" type="curve"/>
      <point x="307" y="71" type="line"/>
      <point x="304" y="51"/>
      <point x="302" y="17"/>
      <point x="302" y="-5" type="curve" smooth="yes"/>
      <point x="302" y="-11" type="line"/>
      <point x="302" y="-78"/>
      <point x="264" y="-102"/>
      <point x="209" y="-102" type="curve" smooth="yes"/>
      <point x="161" y="-102"/>
      <point x="111" y="-90"/>
      <point x="53" y="-59" type="curve"/>
      <point x="53" y="-198" type="line"/>
      <point x="99" y="-226"/>
      <point x="150" y="-240"/>
      <point x="214" y="-240" type="curve" smooth="yes"/>
      <point x="390" y="-240"/>
      <point x="465" y="-137"/>
      <point x="465" y="49" type="curve" smooth="yes"/>
      <point x="465" y="553" type="line"/>
      <point x="324" y="553" type="line"/>
      <point x="311" y="484" type="line"/>
      <point x="302" y="484" type="line"/>
      <point x="272" y="544"/>
      <point x="241" y="563"/>
    </contour>
    <contour>
      <point x="245" y="424" type="curve" smooth="yes"/>
      <point x="285" y="424"/>
      <point x="302" y="384"/>
      <point x="302" y="285" type="curve" smooth="yes"/>
      <point x="302" y="256" type="line" smooth="yes"/>
      <point x="302" y="168"/>
      <point x="286" y="129"/>
      <point x="245" y="129" type="curve" smooth="yes"/>
      <point x="212" y="129"/>
      <point x="195" y="176"/>
      <point x="195" y="270" type="curve" smooth="yes"/>
      <point x="195" y="375"/>
      <point x="214" y="424"/>
    </contour>
  </outline>
</glyph>
<glyph name="g.serif" format="2">
  <advance width="480"/>
  <unicode hex="0067"/>
  <anchor x="240" y="-234" name="bottom"/>
  <anchor x="230" y="536" name="top"/>
  <anchor x="510" y="536" name="topright"/>
  <outline>
    <contour>
      <point x="196" y="-234" type="curve" smooth="yes"/>
      <point x="377" y="-234"/>
      <point x="457" y="-161"/>
      <point x="457" y="-41" type="curve" smooth="yes"/>
      <point x="457" y="55"/>
      <point x="399" y="111"/>
      <point x="280" y="111" type="curve" smooth="yes"/>
      <point x="180" y="111" type="line" smooth="yes"/>
      <point x="144" y="111"/>
      <point x="126" y="125"/>
      <point x="126" y="153" type="curve" smooth="yes"/>
      <point x="126" y="170"/>
      <point x="134" y="186"/>
      <point x="149" y="197" type="curve"/>
      <point x="171" y="191"/>
      <point x="194" y="188"/>
      <point x="218" y="188" type="curve" smooth="yes"/>
      <point x="352" y="188"/>
      <point x="411" y="262"/>
      <point x="411" y="370" type="curve" smooth="yes"/>
      <point x="411" y="427"/>
      <point x="387" y="476"/>
      <point x="346" y="508" type="curve"/>
      <point x="359" y="525"/>
      <point x="369" y="531"/>
      <point x="382" y="531" type="curve" smooth="yes"/>
      <point x="407" y="531"/>
      <point x="418" y="509"/>
      <point x="418" y="459" type="curve"/>
      <point x="467" y="459"/>
      <point x="483" y="489"/>
      <point x="483" y="522" type="curve" smooth="yes"/>
      <point x="483" y="554"/>
      <point x="461" y="582"/>
      <point x="423" y="582" type="curve" smooth="yes"/>
      <point x="375" y="582"/>
      <point x="356" y="547"/>
      <point x="339" y="514" type="curve"/>
      <point x="307" y="537"/>
      <point x="265" y="550"/>
      <point x="218" y="550" type="curve" smooth="yes"/>
      <point x="83" y="550"/>
      <point x="23" y="483"/>
      <point x="23" y="365" type="curve" smooth="yes"/>
      <point x="23" y="279"/>
      <point x="72" y="224"/>
      <point x="138" y="201" type="curve"/>
      <point x="67" y="185"/>
      <point x="34" y="134"/>
      <point x="34" y="84" type="curve" smooth="yes"/>
      <point x="34" y="31"/>
      <point x="71" y="-19"/>
      <point x="146" y="-23" type="curve"/>
      <point x="42" y="-28"/>
      <point x="-12" y="-61"/>
      <point x="-12" y="-122" type="curve" smooth="yes"/>
      <point x="-12" y="-195"/>
      <point x="63" y="-234"/>
    </contour>
    <contour>
      <point x="216" y="-224" type="curve" smooth="yes"/>
      <point x="153" y="-224"/>
      <point x="100" y="-200"/>
      <point x="100" y="-119" type="curve" smooth="yes"/>
      <point x="100" y="-41"/>
      <point x="149" y="-23"/>
      <point x="194" y="-23" type="curve" smooth="yes"/>
      <point x="257" y="-23" type="line" smooth="yes"/>
      <point x="326" y="-23"/>
      <point x="353" y="-54"/>
      <point x="353" y="-112" type="curve" smooth="yes"/>
      <point x="353" y="-187"/>
      <point x="309" y="-224"/>
    </contour>
    <contour>
      <point x="216" y="198" type="curve" smooth="yes"/>
      <point x="176" y="198"/>
      <point x="163" y="228"/>
      <point x="163" y="363" type="curve" smooth="yes"/>
      <point x="163" y="508"/>
      <point x="176" y="540"/>
      <point x="217" y="540" type="curve" smooth="yes"/>
      <point x="257" y="540"/>
      <point x="270" y="508"/>
      <point x="270" y="364" type="curve" smooth="yes"/>
      <point x="270" y="228"/>
      <point x="257" y="198"/>
    </contour>
  </outline>
</glyph>
<glyph name="h" format="2">
  <advance width="517"/>
  <unicode hex="0068"/>
  <anchor x="260" y="0" name="bottom"/>
  <anchor x="259" y="277" name="center"/>
  <anchor x="128" y="760" name="top"/>
  <anchor x="475" y="760" name="topright"/>
  <outline>
    <contour>
      <point x="210" y="621" type="curve" smooth="yes"/>
      <point x="210" y="760" type="line"/>
      <point x="47" y="760" type="line"/>
      <point x="47" y="0" type="line"/>
      <point x="210" y="0" type="line"/>
      <point x="210" y="253" type="line" smooth="yes"/>
      <point x="210" y="367"/>
      <point x="218" y="419"/>
      <point x="268" y="419" type="curve" smooth="yes"/>
      <point x="295" y="419"/>
      <point x="308" y="382"/>
      <point x="308" y="308" type="curve" smooth="yes"/>
      <point x="308" y="0" type="line"/>
      <point x="471" y="0" type="line"/>
      <point x="471" y="360" type="line" smooth="yes"/>
      <point x="471" y="489"/>
      <point x="416" y="563"/>
      <point x="322" y="563" type="curve" smooth="yes"/>
      <point x="264" y="563"/>
      <point x="227" y="537"/>
      <point x="206" y="485" type="curve"/>
      <point x="197" y="485" type="line"/>
      <point x="206" y="529"/>
      <point x="210" y="575"/>
    </contour>
  </outline>
</glyph>
<glyph name="i" format="2">
  <advance width="261"/>
  <unicode hex="0069"/>
  <anchor x="133" y="0" name="bottom"/>
  <anchor x="131" y="776" name="top"/>
  <anchor x="242" y="776" name="topright"/>
  <outline>
    <contour>
      <point x="211" y="553" type="line"/>
      <point x="49" y="553" type="line"/>
      <point x="49" y="0" type="line"/>
      <point x="211" y="0" type="line"/>
    </contour>
    <contour>
      <point x="130" y="776" type="curve" smooth="yes"/>
      <point x="70" y="776"/>
      <point x="44" y="748"/>
      <point x="44" y="691" type="curve" smooth="yes"/>
      <point x="44" y="635"/>
      <point x="73" y="607"/>
      <point x="130" y="607" type="curve" smooth="yes"/>
      <point x="187" y="607"/>
      <point x="216" y="635"/>
      <point x="216" y="691" type="curve" smooth="yes"/>
      <point x="216" y="747"/>
      <point x="190" y="776"/>
    </contour>
  </outline>
</glyph>
<glyph name="i.serif" format="2">
  <advance width="313"/>
  <unicode hex="0069"/>
  <anchor x="157" y="0" name="bottom"/>
  <anchor x="150" y="771" name="top"/>
  <anchor x="283" y="771" name="topright"/>
  <outline>
    <contour>
      <point x="10" y="0" type="line"/>
      <point x="296" y="0" type="line"/>
      <point x="296" y="10" type="line"/>
      <point x="287" y="10" type="line" smooth="yes"/>
      <point x="256" y="10"/>
      <point x="234" y="25"/>
      <point x="234" y="81" type="curve" smooth="yes"/>
      <point x="234" y="536" type="line"/>
      <point x="4" y="536" type="line"/>
      <point x="4" y="526" type="line"/>
      <point x="19" y="526" type="line" smooth="yes"/>
      <point x="49" y="526"/>
      <point x="72" y="511"/>
      <point x="72" y="459" type="curve" smooth="yes"/>
      <point x="72" y="83" type="line" smooth="yes"/>
      <point x="72" y="26"/>
      <point x="51" y="10"/>
      <point x="19" y="10" type="curve" smooth="yes"/>
      <point x="10" y="10" type="line"/>
    </contour>
    <contour>
      <point x="149" y="625" type="curve" smooth="yes"/>
      <point x="191" y="625"/>
      <point x="226" y="649"/>
      <point x="226" y="698" type="curve" smooth="yes"/>
      <point x="226" y="749"/>
      <point x="191" y="771"/>
      <point x="149" y="771" type="curve" smooth="yes"/>
      <point x="106" y="771"/>
      <point x="73" y="749"/>
      <point x="73" y="698" type="curve" smooth="yes"/>
      <point x="73" y="649"/>
      <point x="106" y="625"/>
    </contour>
  </outline>
</glyph>
<glyph name="j" format="2">
  <advance width="260"/>
  <unicode hex="006A"/>
  <anchor x="45" y="-240" name="bottom"/>
  <anchor x="131" y="776" name="top"/>
  <anchor x="241" y="776" name="topright"/>
  <outline>
    <contour>
      <point x="45" y="-240" type="curve" smooth="yes"/>
      <point x="148" y="-240"/>
      <point x="211" y="-179"/>
      <point x="211" y="-45" type="curve" smooth="yes"/>
      <point x="211" y="553" type="line"/>
      <point x="48" y="553" type="line"/>
      <point x="48" y="-32" type="line" smooth="yes"/>
      <point x="48" y="-77"/>
      <point x="34" y="-100"/>
      <point x="5" y="-100" type="curve" smooth="yes"/>
      <point x="-8" y="-100"/>
      <point x="-23" y="-97"/>
      <point x="-39" y="-91" type="curve"/>
      <point x="-39" y="-228" type="line"/>
      <point x="-12" y="-237"/>
      <point x="18" y="-240"/>
    </contour>
    <contour>
      <point x="43" y="691" type="curve" smooth="yes"/>
      <point x="43" y="635"/>
      <point x="72" y="607"/>
      <point x="129" y="607" type="curve" smooth="yes"/>
      <point x="186" y="607"/>
      <point x="215" y="635"/>
      <point x="215" y="691" type="curve" smooth="yes"/>
      <point x="215" y="747"/>
      <point x="190" y="776"/>
      <point x="129" y="776" type="curve" smooth="yes"/>
      <point x="69" y="776"/>
      <point x="43" y="748"/>
    </contour>
  </outline>
</glyph>
<glyph name="j.serif" format="2">
  <advance width="316"/>
  <unicode hex="006A"/>
  <anchor x="112" y="-240" name="bottom"/>
  <anchor x="157" y="771" name="top"/>
  <anchor x="296" y="771" name="topright"/>
  <outline>
    <contour>
      <point x="-22" y="-240" type="line"/>
      <point x="-3" y="-240" type="line" smooth="yes"/>
      <point x="140" y="-240"/>
      <point x="242" y="-187"/>
      <point x="242" y="-8" type="curve" smooth="yes"/>
      <point x="242" y="536" type="line"/>
      <point x="11" y="536" type="line"/>
      <point x="11" y="526" type="line"/>
      <point x="14" y="526" type="line" smooth="yes"/>
      <point x="49" y="526"/>
      <point x="78" y="517"/>
      <point x="78" y="460" type="curve" smooth="yes"/>
      <point x="78" y="-53" type="line" smooth="yes"/>
      <point x="78" y="-189"/>
      <point x="46" y="-230"/>
      <point x="-16" y="-230" type="curve" smooth="yes"/>
      <point x="-22" y="-230" type="line"/>
    </contour>
    <contour>
      <point x="157" y="625" type="curve" smooth="yes"/>
      <point x="198" y="625"/>
      <point x="235" y="649"/>
      <point x="235" y="698" type="curve" smooth="yes"/>
      <point x="235" y="749"/>
      <point x="198" y="771"/>
      <point x="157" y="771" type="curve" smooth="yes"/>
      <point x="114" y="771"/>
      <point x="80" y="749"/>
      <point x="80" y="698" type="curve" smooth="yes"/>
      <point x="80" y="649"/>
      <point x="114" y="625"/>
    </contour>
  </outline>
</glyph>
<glyph name="l" format="2">
  <advance width="259"/>
  <unicode hex="006C"/>
  <anchor x="129" y="0" name="bottom"/>
  <anchor x="130" y="277" name="center"/>
  <anchor x="129" y="760" name="top"/>
  <anchor x="228" y="760" name="topright"/>
  <outline>
    <contour>
      <point x="210" y="0" type="line"/>
      <point x="210" y="760" type="line"/>
      <point x="47" y="760" type="line"/>
      <point x="47" y="0" type="line"/>
    </contour>
  </outline>
</glyph>
<glyph name="l.serif" format="2">
  <advance width="319"/>
  <unicode hex="006C"/>
  <anchor x="160" y="0" name="bottom"/>
  <anchor x="160" y="268" name="center"/>
  <anchor x="160" y="760" name="top"/>
  <anchor x="299" y="760" name="topright"/>
  <outline>
    <contour>
      <point x="16" y="0" type="line"/>
      <point x="302" y="0" type="line"/>
      <point x="302" y="10" type="line"/>
      <point x="294" y="10" type="line" smooth="yes"/>
      <point x="263" y="10"/>
      <point x="241" y="25"/>
      <point x="241" y="81" type="curve" smooth="yes"/>
      <point x="241" y="760" type="line"/>
      <point x="16" y="760" type="line"/>
      <point x="16" y="750" type="line"/>
      <point x="26" y="750" type="line" smooth="yes"/>
      <point x="39" y="750"/>
      <point x="78" y="743"/>
      <point x="78" y="691" type="curve" smooth="yes"/>
      <point x="78" y="81" type="line" smooth="yes"/>
      <point x="78" y="25"/>
      <point x="56" y="10"/>
      <point x="26" y="10" type="curve" smooth="yes"/>
      <point x="16" y="10" type="line"/>
    </contour>
  </outline>
</glyph>
<glyph name="m" format="2">
  <advance width="773"/>
  <unicode hex="006D"/>
  <anchor x="387" y="0" name="bottom"/>
  <anchor x="403" y="553" name="top"/>
  <anchor x="745" y="553" name="topright"/>
  <outline>
    <contour>
      <point x="580" y="563" type="curve" smooth="yes"/>
      <point x="523" y="563"/>
      <point x="484" y="536"/>
      <point x="460" y="490" type="curve"/>
      <point x="449" y="490" type="line"/>
      <point x="432" y="532"/>
      <point x="396" y="563"/>
      <point x="333" y="563" type="curve" smooth="yes"/>
      <point x="270" y="563"/>
      <point x="222" y="536"/>
      <point x="201" y="485" type="curve"/>
      <point x="193" y="485" type="line"/>
      <point x="174" y="553" type="line"/>
      <point x="47" y="553" type="line"/>
      <point x="47" y="0" type="line"/>
      <point x="210" y="0" type="line"/>
      <point x="210" y="248" type="line" smooth="yes"/>
      <point x="210" y="369"/>
      <point x="223" y="419"/>
      <point x="265" y="419" type="curve" smooth="yes"/>
      <point x="293" y="419"/>
      <point x="305" y="381"/>
      <point x="305" y="307" type="curve" smooth="yes"/>
      <point x="305" y="0" type="line"/>
      <point x="468" y="0" type="line"/>
      <point x="468" y="264" type="line" smooth="yes"/>
      <point x="468" y="371"/>
      <point x="479" y="419"/>
      <point x="522" y="419" type="curve" smooth="yes"/>
      <point x="550" y="419"/>
      <point x="563" y="381"/>
      <point x="563" y="307" type="curve" smooth="yes"/>
      <point x="563" y="0" type="line"/>
      <point x="726" y="0" type="line"/>
      <point x="726" y="360" type="line" smooth="yes"/>
      <point x="726" y="497"/>
      <point x="678" y="563"/>
    </contour>
  </outline>
</glyph>
<glyph name="n" format="2">
  <advance width="517"/>
  <unicode hex="006E"/>
  <anchor x="259" y="0" name="bottom"/>
  <anchor x="269" y="553" name="top"/>
  <anchor x="490" y="553" name="topright"/>
  <outline>
    <contour>
      <point x="322" y="563" type="curve" smooth="yes"/>
      <point x="264" y="563"/>
      <point x="226" y="537"/>
      <point x="201" y="485" type="curve"/>
      <point x="193" y="485" type="line"/>
      <point x="174" y="553" type="line"/>
      <point x="47" y="553" type="line"/>
      <point x="47" y="0" type="line"/>
      <point x="210" y="0" type="line"/>
      <point x="210" y="253" type="line" smooth="yes"/>
      <point x="210" y="378"/>
      <point x="220" y="419"/>
      <point x="263" y="419" type="curve" smooth="yes"/>
      <point x="301" y="419"/>
      <point x="308" y="381"/>
      <point x="308" y="308" type="curve" smooth="yes"/>
      <point x="308" y="0" type="line"/>
      <point x="471" y="0" type="line"/>
      <point x="471" y="360" type="line" smooth="yes"/>
      <point x="471" y="489"/>
      <point x="416" y="563"/>
    </contour>
  </outline>
</glyph>
<glyph name="n.serif" format="2">
  <advance width="570"/>
  <unicode hex="006E"/>
  <anchor x="285" y="0" name="bottom"/>
  <anchor x="285" y="536" name="top"/>
  <anchor x="550" y="536" name="topright"/>
  <outline>
    <contour>
      <point x="11" y="0" type="line"/>
      <point x="291" y="0" type="line"/>
      <point x="291" y="10" type="line"/>
      <point x="288" y="10" type="line" smooth="yes"/>
      <point x="248" y="10"/>
      <point x="235" y="26"/>
      <point x="235" y="75" type="curve" smooth="yes"/>
      <point x="235" y="352" type="line" smooth="yes"/>
      <point x="235" y="457"/>
      <point x="258" y="512"/>
      <point x="295" y="512" type="curve" smooth="yes"/>
      <point x="325" y="512"/>
      <point x="335" y="480"/>
      <point x="335" y="377" type="curve" smooth="yes"/>
      <point x="335" y="0" type="line"/>
      <point x="550" y="0" type="line"/>
      <point x="550" y="10" type="line"/>
      <point x="546" y="10" type="line" smooth="yes"/>
      <point x="509" y="10"/>
      <point x="497" y="27"/>
      <point x="497" y="80" type="curve" smooth="yes"/>
      <point x="497" y="357" type="line" smooth="yes"/>
      <point x="497" y="492"/>
      <point x="451" y="550"/>
      <point x="362" y="550" type="curve" smooth="yes"/>
      <point x="289" y="550"/>
      <point x="251" y="514"/>
      <point x="236" y="457" type="curve"/>
      <point x="234" y="457" type="line"/>
      <point x="234" y="536" type="line"/>
      <point x="15" y="536" type="line"/>
      <point x="15" y="526" type="line"/>
      <point x="19" y="526" type="line" smooth="yes"/>
      <point x="59" y="526"/>
      <point x="72" y="511"/>
      <point x="72" y="462" type="curve" smooth="yes"/>
      <point x="72" y="78" type="line" smooth="yes"/>
      <point x="72" y="26"/>
      <point x="58" y="10"/>
      <point x="15" y="10" type="curve" smooth="yes"/>
      <point x="11" y="10" type="line"/>
    </contour>
  </outline>
</glyph>
<glyph name="o" format="2">
  <advance width="505"/>
  <unicode hex="006F"/>
  <anchor x="251" y="0" name="bottom"/>
  <anchor x="252" y="277" name="center"/>
  <anchor x="252" y="553" name="top"/>
  <anchor x="486" y="553" name="topright"/>
  <outline>
    <contour>
      <point x="474" y="278" type="curve" smooth="yes"/>
      <point x="474" y="460"/>
      <point x="385" y="563"/>
      <point x="253" y="563" type="curve" smooth="yes"/>
      <point x="94" y="563"/>
      <point x="30" y="437"/>
      <point x="30" y="278" type="curve" smooth="yes"/>
      <point x="30" y="132"/>
      <point x="96" y="-10"/>
      <point x="251" y="-10" type="curve" smooth="yes"/>
      <point x="419" y="-10"/>
      <point x="474" y="136"/>
    </contour>
    <contour>
      <point x="195" y="276" type="curve" smooth="yes"/>
      <point x="195" y="380"/>
      <point x="212" y="428"/>
      <point x="252" y="428" type="curve" smooth="yes"/>
      <point x="294" y="428"/>
      <point x="309" y="379"/>
      <point x="309" y="278" type="curve" smooth="yes"/>
      <point x="309" y="176"/>
      <point x="294" y="125"/>
      <point x="252" y="125" type="curve" smooth="yes"/>
      <point x="212" y="125"/>
      <point x="195" y="177"/>
    </contour>
  </outline>
</glyph>
<glyph name="o.serif" format="2">
  <advance width="533"/>
  <unicode hex="006F"/>
  <anchor x="267" y="0" name="bottom"/>
  <anchor x="267" y="268" name="center"/>
  <anchor x="267" y="536" name="top"/>
  <anchor x="523" y="536" name="topright"/>
  <outline>
    <contour>
      <point x="265" y="-10" type="curve" smooth="yes"/>
      <point x="419" y="-10"/>
      <point x="499" y="82"/>
      <point x="499" y="270" type="curve" smooth="yes"/>
      <point x="499" y="458"/>
      <point x="411" y="550"/>
      <point x="268" y="550" type="curve" smooth="yes"/>
      <point x="114" y="550"/>
      <point x="34" y="458"/>
      <point x="34" y="270" type="curve" smooth="yes"/>
      <point x="34" y="82"/>
      <point x="121" y="-10"/>
    </contour>
    <contour>
      <point x="267" y="0" type="curve" smooth="yes"/>
      <point x="216" y="0"/>
      <point x="200" y="55"/>
      <point x="200" y="270" type="curve" smooth="yes"/>
      <point x="200" y="485"/>
      <point x="216" y="540"/>
      <point x="266" y="540" type="curve" smooth="yes"/>
      <point x="318" y="540"/>
      <point x="334" y="485"/>
      <point x="334" y="270" type="curve" smooth="yes"/>
      <point x="334" y="55"/>
      <point x="318" y="0"/>
    </contour>
  </outline>
</glyph>
<glyph name="p" format="2">
  <advance width="512"/>
  <unicode hex="0070"/>
  <anchor x="127" y="-240" name="bottom"/>
  <anchor x="283" y="553" name="top"/>
  <anchor x="493" y="553" name="topright"/>
  <outline>
    <contour>
      <point x="322" y="563" type="curve" smooth="yes"/>
      <point x="275" y="563"/>
      <point x="246" y="550"/>
      <point x="210" y="482" type="curve"/>
      <point x="202" y="482" type="line"/>
      <point x="177" y="553" type="line"/>
      <point x="47" y="553" type="line"/>
      <point x="47" y="-240" type="line"/>
      <point x="210" y="-240" type="line"/>
      <point x="210" y="-35" type="line" smooth="yes"/>
      <point x="210" y="-14"/>
      <point x="208" y="21"/>
      <point x="205" y="71" type="curve"/>
      <point x="210" y="71" type="line"/>
      <point x="239" y="14"/>
      <point x="277" y="-10"/>
      <point x="326" y="-10" type="curve" smooth="yes"/>
      <point x="421" y="-10"/>
      <point x="482" y="98"/>
      <point x="482" y="275" type="curve" smooth="yes"/>
      <point x="482" y="454"/>
      <point x="422" y="563"/>
    </contour>
    <contour>
      <point x="267" y="428" type="curve" smooth="yes"/>
      <point x="299" y="428"/>
      <point x="317" y="378"/>
      <point x="317" y="273" type="curve" smooth="yes"/>
      <point x="317" y="177"/>
      <point x="300" y="129"/>
      <point x="266" y="129" type="curve" smooth="yes"/>
      <point x="226" y="129"/>
      <point x="210" y="168"/>
      <point x="210" y="256" type="curve" smooth="yes"/>
      <point x="210" y="288" type="line" smooth="yes"/>
      <point x="210" y="388"/>
      <point x="226" y="428"/>
    </contour>
  </outline>
</glyph>
<glyph name="p.serif" format="2">
  <advance width="557"/>
  <unicode hex="0070"/>
  <anchor x="279" y="-225" name="bottom"/>
  <anchor x="279" y="536" name="top"/>
  <anchor x="547" y="536" name="topright"/>
  <outline>
    <contour>
      <point x="7" y="-225" type="line"/>
      <point x="317" y="-225" type="line"/>
      <point x="317" y="-215" type="line"/>
      <point x="296" y="-215" type="line" smooth="yes"/>
      <point x="255" y="-215"/>
      <point x="236" y="-198"/>
      <point x="236" y="-136" type="curve" smooth="yes"/>
      <point x="236" y="-43" type="line" smooth="yes"/>
      <point x="236" y="4"/>
      <point x="236" y="50"/>
      <point x="234" y="97" type="curve"/>
      <point x="236" y="97" type="line"/>
      <point x="253" y="26"/>
      <point x="278" y="-10"/>
      <point x="352" y="-10" type="curve" smooth="yes"/>
      <point x="461" y="-10"/>
      <point x="523" y="75"/>
      <point x="523" y="267" type="curve" smooth="yes"/>
      <point x="523" y="460"/>
      <point x="461" y="548"/>
      <point x="355" y="548" type="curve" smooth="yes"/>
      <point x="284" y="548"/>
      <point x="249" y="517"/>
      <point x="236" y="444" type="curve"/>
      <point x="234" y="444" type="line"/>
      <point x="234" y="536" type="line"/>
      <point x="24" y="536" type="line"/>
      <point x="24" y="526" type="line"/>
      <point x="26" y="526" type="line" smooth="yes"/>
      <point x="42" y="526"/>
      <point x="72" y="519"/>
      <point x="72" y="465" type="curve" smooth="yes"/>
      <point x="72" y="-136" type="line" smooth="yes"/>
      <point x="72" y="-198"/>
      <point x="53" y="-215"/>
      <point x="12" y="-215" type="curve" smooth="yes"/>
      <point x="7" y="-215" type="line"/>
    </contour>
    <contour>
      <point x="304" y="14" type="curve" smooth="yes"/>
      <point x="261" y="14"/>
      <point x="235" y="99"/>
      <point x="235" y="265" type="curve" smooth="yes"/>
      <point x="235" y="429"/>
      <point x="252" y="521"/>
      <point x="300" y="521" type="curve" smooth="yes"/>
      <point x="345" y="521"/>
      <point x="359" y="459"/>
      <point x="359" y="264" type="curve" smooth="yes"/>
      <point x="359" y="72"/>
      <point x="345" y="14"/>
    </contour>
  </outline>
</glyph>
<glyph name="q" format="2">
  <advance width="512"/>
  <unicode hex="0071"/>
  <anchor x="383" y="-240" name="bottom"/>
  <anchor x="256" y="553" name="top"/>
  <anchor x="484" y="553" name="topright"/>
  <outline>
    <contour>
      <point x="302" y="-35" type="curve" smooth="yes"/>
      <point x="302" y="-240" type="line"/>
      <point x="465" y="-240" type="line"/>
      <point x="465" y="553" type="line"/>
      <point x="324" y="553" type="line"/>
      <point x="311" y="484" type="line"/>
      <point x="302" y="484" type="line"/>
      <point x="272" y="544"/>
      <point x="241" y="563"/>
      <point x="191" y="563" type="curve" smooth="yes"/>
      <point x="89" y="563"/>
      <point x="30" y="453"/>
      <point x="30" y="272" type="curve" smooth="yes"/>
      <point x="30" y="99"/>
      <point x="90" y="-10"/>
      <point x="186" y="-10" type="curve" smooth="yes"/>
      <point x="235" y="-10"/>
      <point x="273" y="14"/>
      <point x="302" y="71" type="curve"/>
      <point x="307" y="71" type="line"/>
      <point x="304" y="21"/>
      <point x="302" y="-14"/>
    </contour>
    <contour>
      <point x="245" y="129" type="curve" smooth="yes"/>
      <point x="212" y="129"/>
      <point x="195" y="176"/>
      <point x="195" y="270" type="curve" smooth="yes"/>
      <point x="195" y="375"/>
      <point x="214" y="424"/>
      <point x="245" y="424" type="curve" smooth="yes"/>
      <point x="285" y="424"/>
      <point x="302" y="384"/>
      <point x="302" y="285" type="curve" smooth="yes"/>
      <point x="302" y="256" type="line" smooth="yes"/>
      <point x="302" y="168"/>
      <point x="286" y="129"/>
    </contour>
  </outline>
</glyph>
<glyph name="q.serif" format="2">
  <advance width="561"/>
  <unicode hex="0071"/>
  <anchor x="281" y="-225" name="bottom"/>
  <anchor x="281" y="536" name="top"/>
  <anchor x="561" y="536" name="topright"/>
  <outline>
    <contour>
      <point x="231" y="-225" type="line"/>
      <point x="553" y="-225" type="line"/>
      <point x="553" y="-215" type="line"/>
      <point x="543" y="-215" type="line" smooth="yes"/>
      <point x="502" y="-215"/>
      <point x="483" y="-198"/>
      <point x="483" y="-136" type="curve" smooth="yes"/>
      <point x="483" y="465" type="line" smooth="yes"/>
      <point x="483" y="511"/>
      <point x="499" y="526"/>
      <point x="551" y="526" type="curve" smooth="yes"/>
      <point x="553" y="526" type="line"/>
      <point x="553" y="536" type="line"/>
      <point x="321" y="536" type="line"/>
      <point x="321" y="444" type="line"/>
      <point x="319" y="444" type="line"/>
      <point x="306" y="517"/>
      <point x="271" y="548"/>
      <point x="200" y="548" type="curve" smooth="yes"/>
      <point x="94" y="548"/>
      <point x="32" y="460"/>
      <point x="32" y="267" type="curve" smooth="yes"/>
      <point x="32" y="75"/>
      <point x="94" y="-10"/>
      <point x="203" y="-10" type="curve" smooth="yes"/>
      <point x="277" y="-10"/>
      <point x="302" y="26"/>
      <point x="319" y="97" type="curve"/>
      <point x="321" y="97" type="line"/>
      <point x="319" y="50"/>
      <point x="319" y="4"/>
      <point x="319" y="-43" type="curve" smooth="yes"/>
      <point x="319" y="-136" type="line" smooth="yes"/>
      <point x="319" y="-198"/>
      <point x="300" y="-215"/>
      <point x="259" y="-215" type="curve" smooth="yes"/>
      <point x="231" y="-215" type="line"/>
    </contour>
    <contour>
      <point x="251" y="14" type="curve" smooth="yes"/>
      <point x="210" y="14"/>
      <point x="196" y="72"/>
      <point x="196" y="264" type="curve" smooth="yes"/>
      <point x="196" y="459"/>
      <point x="210" y="521"/>
      <point x="255" y="521" type="curve" smooth="yes"/>
      <point x="303" y="521"/>
      <point x="320" y="429"/>
      <point x="320" y="265" type="curve" smooth="yes"/>
      <point x="320" y="99"/>
      <point x="294" y="14"/>
    </contour>
  </outline>
</glyph>
<glyph name="r.serif" format="2">
  <advance width="468"/>
  <unicode hex="0072"/>
  <anchor x="164" y="0" name="bottom"/>
  <anchor x="234" y="536" name="top"/>
  <anchor x="488" y="536" name="topright"/>
  <outline>
    <contour>
      <point x="8" y="0" type="line"/>
      <point x="315" y="0" type="line"/>
      <point x="315" y="10" type="line"/>
      <point x="306" y="10" type="line" smooth="yes"/>
      <point x="252" y="10"/>
      <point x="235" y="26"/>
      <point x="235" y="75" type="curve" smooth="yes"/>
      <point x="235" y="334" type="line" smooth="yes"/>
      <point x="235" y="456"/>
      <point x="261" y="503"/>
      <point x="290" y="503" type="curve" smooth="yes"/>
      <point x="323" y="503"/>
      <point x="331" y="469"/>
      <point x="331" y="361" type="curve"/>
      <point x="415" y="361"/>
      <point x="455" y="393"/>
      <point x="455" y="456" type="curve" smooth="yes"/>
      <point x="455" y="515"/>
      <point x="419" y="548"/>
      <point x="356" y="548" type="curve" smooth="yes"/>
      <point x="292" y="548"/>
      <point x="255" y="516"/>
      <point x="237" y="451" type="curve"/>
      <point x="235" y="451" type="line"/>
      <point x="235" y="536" type="line"/>
      <point x="15" y="536" type="line"/>
      <point x="15" y="526" type="line"/>
      <point x="17" y="526" type="line" smooth="yes"/>
      <point x="58" y="526"/>
      <point x="71" y="511"/>
      <point x="71" y="465" type="curve" smooth="yes"/>
      <point x="71" y="75" type="line" smooth="yes"/>
      <point x="71" y="26"/>
      <point x="56" y="10"/>
      <point x="10" y="10" type="curve" smooth="yes"/>
      <point x="8" y="10" type="line"/>
    </contour>
  </outline>
</glyph>
<glyph name="s" format="2">
  <advance width="389"/>
  <unicode hex="0073"/>
  <anchor x="181" y="0" name="bottom"/>
  <anchor x="200" y="553" name="top"/>
  <anchor x="362" y="553" name="topright"/>
  <outline>
    <contour>
      <point x="366" y="170" type="curve" smooth="yes"/>
      <point x="366" y="255"/>
      <point x="321" y="304"/>
      <point x="256" y="342" type="curve" smooth="yes"/>
      <point x="186" y="383"/>
      <point x="181" y="390"/>
      <point x="181" y="408" type="curve" smooth="yes"/>
      <point x="181" y="426"/>
      <point x="190" y="434"/>
      <point x="211" y="434" type="curve" smooth="yes"/>
      <point x="248" y="434"/>
      <point x="286" y="415"/>
      <point x="318" y="393" type="curve"/>
      <point x="357" y="516" type="line"/>
      <point x="305" y="547"/>
      <point x="257" y="563"/>
      <point x="201" y="563" type="curve" smooth="yes"/>
      <point x="87" y="563"/>
      <point x="24" y="503"/>
      <point x="24" y="400" type="curve" smooth="yes"/>
      <point x="24" y="322"/>
      <point x="57" y="265"/>
      <point x="123" y="231" type="curve" smooth="yes"/>
      <point x="199" y="192"/>
      <point x="204" y="179"/>
      <point x="204" y="161" type="curve" smooth="yes"/>
      <point x="204" y="138"/>
      <point x="190" y="129"/>
      <point x="162" y="129" type="curve" smooth="yes"/>
      <point x="113" y="129"/>
      <point x="65" y="150"/>
      <point x="25" y="174" type="curve"/>
      <point x="25" y="21" type="line"/>
      <point x="76" y="-2"/>
      <point x="127" y="-10"/>
      <point x="180" y="-10" type="curve" smooth="yes"/>
      <point x="297" y="-10"/>
      <point x="366" y="51"/>
    </contour>
  </outline>
</glyph>
<glyph name="s.serif" format="2">
  <advance width="419"/>
  <unicode hex="0073"/>
  <anchor x="210" y="0" name="bottom"/>
  <anchor x="210" y="536" name="top"/>
  <anchor x="399" y="536" name="topright"/>
  <outline>
    <contour>
      <point x="203" y="-10" type="curve" smooth="yes"/>
      <point x="333" y="-10"/>
      <point x="399" y="60"/>
      <point x="399" y="166" type="curve" smooth="yes"/>
      <point x="399" y="266"/>
      <point x="338" y="305"/>
      <point x="248" y="340" type="curve" smooth="yes"/>
      <point x="170" y="370"/>
      <point x="129" y="388"/>
      <point x="129" y="452" type="curve" smooth="yes"/>
      <point x="129" y="519"/>
      <point x="174" y="539"/>
      <point x="211" y="539" type="curve" smooth="yes"/>
      <point x="266" y="539"/>
      <point x="289" y="496"/>
      <point x="289" y="385" type="curve"/>
      <point x="352" y="385"/>
      <point x="380" y="408"/>
      <point x="380" y="449" type="curve" smooth="yes"/>
      <point x="380" y="501"/>
      <point x="336" y="549"/>
      <point x="222" y="549" type="curve" smooth="yes"/>
      <point x="104" y="549"/>
      <point x="26" y="496"/>
      <point x="26" y="381" type="curve" smooth="yes"/>
      <point x="26" y="287"/>
      <point x="76" y="246"/>
      <point x="177" y="207" type="curve" smooth="yes"/>
      <point x="246" y="180"/>
      <point x="298" y="160"/>
      <point x="298" y="89" type="curve" smooth="yes"/>
      <point x="298" y="29"/>
      <point x="259" y="0"/>
      <point x="205" y="0" type="curve" smooth="yes"/>
      <point x="135" y="0"/>
      <point x="108" y="50"/>
      <point x="108" y="180" type="curve"/>
      <point x="60" y="180"/>
      <point x="21" y="162"/>
      <point x="21" y="102" type="curve" smooth="yes"/>
      <point x="21" y="41"/>
      <point x="62" y="-10"/>
    </contour>
  </outline>
</glyph>
<glyph name="t" format="2">
  <advance width="350"/>
  <unicode hex="0074"/>
  <anchor x="205" y="0" name="bottom"/>
  <anchor x="165" y="277" name="center"/>
  <anchor x="162" y="664" name="top"/>
  <anchor x="215" y="900" name="topright"/>
  <outline>
    <contour>
      <point x="262" y="130" type="curve" smooth="yes"/>
      <point x="236" y="130"/>
      <point x="223" y="148"/>
      <point x="223" y="184" type="curve" smooth="yes"/>
      <point x="223" y="420" type="line"/>
      <point x="325" y="420" type="line"/>
      <point x="325" y="553" type="line"/>
      <point x="223" y="553" type="line"/>
      <point x="223" y="664" type="line"/>
      <point x="113" y="664" type="line"/>
      <point x="75" y="548" type="line"/>
      <point x="6" y="506" type="line"/>
      <point x="6" y="420" type="line"/>
      <point x="61" y="420" type="line"/>
      <point x="61" y="182" type="line" smooth="yes"/>
      <point x="61" y="52"/>
      <point x="104" y="-10"/>
      <point x="213" y="-10" type="curve" smooth="yes"/>
      <point x="257" y="-10"/>
      <point x="296" y="1"/>
      <point x="332" y="21" type="curve"/>
      <point x="332" y="149" type="line"/>
      <point x="305" y="137"/>
      <point x="281" y="130"/>
    </contour>
  </outline>
</glyph>
<glyph name="t.serif" format="2">
  <advance width="371"/>
  <unicode hex="0074"/>
  <anchor x="226" y="0" name="bottom"/>
  <anchor x="186" y="268" name="center"/>
  <anchor x="176" y="660" name="top"/>
  <anchor x="211" y="1000" name="topright"/>
  <outline>
    <contour>
      <point x="221" y="-10" type="curve" smooth="yes"/>
      <point x="290" y="-10"/>
      <point x="336" y="7"/>
      <point x="356" y="18" type="curve"/>
      <point x="356" y="28" type="line"/>
      <point x="333" y="20"/>
      <point x="314" y="17"/>
      <point x="299" y="17" type="curve" smooth="yes"/>
      <point x="260" y="17"/>
      <point x="244" y="43"/>
      <point x="244" y="102" type="curve" smooth="yes"/>
      <point x="244" y="526" type="line"/>
      <point x="348" y="526" type="line"/>
      <point x="348" y="536" type="line"/>
      <point x="244" y="536" type="line"/>
      <point x="244" y="660" type="line"/>
      <point x="234" y="660" type="line"/>
      <point x="221" y="616"/>
      <point x="194" y="584"/>
      <point x="154" y="563" type="curve" smooth="yes"/>
      <point x="119" y="545"/>
      <point x="74" y="536"/>
      <point x="19" y="536" type="curve"/>
      <point x="19" y="526" type="line"/>
      <point x="80" y="526" type="line"/>
      <point x="80" y="149" type="line" smooth="yes"/>
      <point x="80" y="31"/>
      <point x="135" y="-10"/>
    </contour>
  </outline>
</glyph>
<glyph name="u" format="2">
  <advance width="517"/>
  <unicode hex="0075"/>
  <anchor x="257" y="0" name="bottom"/>
  <anchor x="259" y="553" name="top"/>
  <anchor x="489" y="553" name="topright"/>
  <outline>
    <contour>
      <point x="470" y="553" type="line"/>
      <point x="307" y="553" type="line"/>
      <point x="307" y="280" type="line" smooth="yes"/>
      <point x="307" y="191"/>
      <point x="304" y="134"/>
      <point x="249" y="134" type="curve" smooth="yes"/>
      <point x="219" y="134"/>
      <point x="209" y="172"/>
      <point x="209" y="246" type="curve" smooth="yes"/>
      <point x="209" y="553" type="line"/>
      <point x="46" y="553" type="line"/>
      <point x="46" y="193" type="line" smooth="yes"/>
      <point x="46" y="64"/>
      <point x="102" y="-10"/>
      <point x="196" y="-10" type="curve" smooth="yes"/>
      <point x="254" y="-10"/>
      <point x="291" y="16"/>
      <point x="317" y="68" type="curve"/>
      <point x="325" y="68" type="line"/>
      <point x="344" y="0" type="line"/>
      <point x="470" y="0" type="line"/>
    </contour>
  </outline>
</glyph>
<glyph name="v" format="2">
  <advance width="485"/>
  <unicode hex="0076"/>
  <anchor x="242" y="0" name="bottom"/>
  <anchor x="244" y="553" name="top"/>
  <anchor x="465" y="553" name="topright"/>
  <outline>
    <contour>
      <point x="156" y="0" type="line"/>
      <point x="330" y="0" type="line"/>
      <point x="483" y="553" type="line"/>
      <point x="314" y="553" type="line"/>
      <point x="258" y="283" type="line" smooth="yes"/>
      <point x="250" y="242"/>
      <point x="244" y="204"/>
      <point x="243" y="170" type="curve"/>
      <point x="239" y="170" type="line"/>
      <point x="237" y="211"/>
      <point x="232" y="246"/>
      <point x="224" y="284" type="curve" smooth="yes"/>
      <point x="171" y="553" type="line"/>
      <point x="2" y="553" type="line"/>
    </contour>
  </outline>
</glyph>
<glyph name="v.serif" format="2">
  <advance width="522"/>
  <unicode hex="0076"/>
  <anchor x="271" y="0" name="bottom"/>
  <anchor x="271" y="536" name="top"/>
  <anchor x="532" y="536" name="topright"/>
  <outline>
    <contour>
      <point x="54" y="480" type="curve" smooth="yes"/>
      <point x="199" y="0" type="line"/>
      <point x="320" y="0" type="line"/>
      <point x="456" y="478" type="line" smooth="yes"/>
      <point x="469" y="525"/>
      <point x="476" y="526"/>
      <point x="506" y="526" type="curve" smooth="yes"/>
      <point x="524" y="526" type="line"/>
      <point x="524" y="536" type="line"/>
      <point x="379" y="536" type="line"/>
      <point x="379" y="526" type="line"/>
      <point x="402" y="526" type="line" smooth="yes"/>
      <point x="442" y="526"/>
      <point x="448" y="521"/>
      <point x="448" y="504" type="curve" smooth="yes"/>
      <point x="448" y="490"/>
      <point x="438" y="451"/>
      <point x="416" y="374" type="curve" smooth="yes"/>
      <point x="370" y="214" type="line" smooth="yes"/>
      <point x="350" y="145"/>
      <point x="338" y="99"/>
      <point x="329" y="69" type="curve"/>
      <point x="318" y="116"/>
      <point x="304" y="172"/>
      <point x="291" y="218" type="curve" smooth="yes"/>
      <point x="224" y="452" type="line" smooth="yes"/>
      <point x="220" y="465"/>
      <point x="216" y="480"/>
      <point x="216" y="496" type="curve" smooth="yes"/>
      <point x="216" y="515"/>
      <point x="225" y="526"/>
      <point x="250" y="526" type="curve" smooth="yes"/>
      <point x="293" y="526" type="line"/>
      <point x="293" y="536" type="line"/>
      <point x="6" y="536" type="line"/>
      <point x="6" y="526" type="line"/>
      <point x="30" y="526"/>
      <point x="43" y="517"/>
    </contour>
  </outline>
</glyph>
<glyph name="w" format="2">
  <advance width="723"/>
  <unicode hex="0077"/>
  <anchor x="361" y="0" name="bottom"/>
  <anchor x="362" y="553" name="top"/>
  <anchor x="704" y="553" name="topright"/>
  <outline>
    <contour>
      <point x="382" y="244" type="curve" smooth="yes"/>
      <point x="420" y="0" type="line"/>
      <point x="606" y="0" type="line"/>
      <point x="719" y="553" type="line"/>
      <point x="559" y="553" type="line"/>
      <point x="532" y="380" type="line" smooth="yes"/>
      <point x="523" y="320"/>
      <point x="515" y="250"/>
      <point x="511" y="188" type="curve"/>
      <point x="507" y="188" type="line"/>
      <point x="504" y="229"/>
      <point x="495" y="294"/>
      <point x="484" y="366" type="curve" smooth="yes"/>
      <point x="456" y="553" type="line"/>
      <point x="268" y="553" type="line"/>
      <point x="238" y="369" type="line" smooth="yes"/>
      <point x="226" y="298"/>
      <point x="220" y="240"/>
      <point x="216" y="188" type="curve"/>
      <point x="212" y="188" type="line"/>
      <point x="209" y="252"/>
      <point x="201" y="324"/>
      <point x="193" y="380" type="curve" smooth="yes"/>
      <point x="167" y="553" type="line"/>
      <point x="5" y="553" type="line"/>
      <point x="117" y="0" type="line"/>
      <point x="299" y="0" type="line"/>
      <point x="339" y="245" type="line" smooth="yes"/>
      <point x="346" y="285"/>
      <point x="352" y="348"/>
      <point x="359" y="402" type="curve"/>
      <point x="363" y="402" type="line"/>
      <point x="368" y="355"/>
      <point x="375" y="292"/>
    </contour>
  </outline>
</glyph>
<glyph name="w.serif" format="2">
  <advance width="710"/>
  <unicode hex="0077"/>
  <anchor x="355" y="0" name="bottom"/>
  <anchor x="355" y="536" name="top"/>
  <anchor x="720" y="536" name="topright"/>
  <outline>
    <contour>
      <point x="52" y="473" type="curve" smooth="yes"/>
      <point x="162" y="0" type="line"/>
      <point x="248" y="0" type="line"/>
      <point x="342" y="383" type="line"/>
      <point x="447" y="0" type="line"/>
      <point x="537" y="0" type="line"/>
      <point x="635" y="477" type="line"/>
      <point x="644" y="523"/>
      <point x="652" y="526"/>
      <point x="693" y="526" type="curve" smooth="yes"/>
      <point x="712" y="526" type="line"/>
      <point x="712" y="536" type="line"/>
      <point x="549" y="536" type="line"/>
      <point x="549" y="526" type="line"/>
      <point x="592" y="526" type="line" smooth="yes"/>
      <point x="623" y="526"/>
      <point x="627" y="519"/>
      <point x="627" y="506" type="curve" smooth="yes"/>
      <point x="627" y="494"/>
      <point x="623" y="470"/>
      <point x="616" y="438" type="curve" smooth="yes"/>
      <point x="569" y="208" type="line" smooth="yes"/>
      <point x="562" y="174"/>
      <point x="556" y="145"/>
      <point x="551" y="115" type="curve"/>
      <point x="549" y="115" type="line"/>
      <point x="540" y="156"/>
      <point x="532" y="188"/>
      <point x="523" y="221" type="curve" smooth="yes"/>
      <point x="434" y="536" type="line"/>
      <point x="370" y="536" type="line"/>
      <point x="290" y="207" type="line" smooth="yes"/>
      <point x="285" y="186"/>
      <point x="278" y="156"/>
      <point x="270" y="121" type="curve"/>
      <point x="268" y="121" type="line"/>
      <point x="262" y="153"/>
      <point x="257" y="176"/>
      <point x="252" y="197" type="curve" smooth="yes"/>
      <point x="197" y="434" type="line" smooth="yes"/>
      <point x="189" y="467"/>
      <point x="182" y="489"/>
      <point x="182" y="503" type="curve" smooth="yes"/>
      <point x="182" y="520"/>
      <point x="192" y="526"/>
      <point x="221" y="526" type="curve" smooth="yes"/>
      <point x="270" y="526" type="line"/>
      <point x="270" y="536" type="line"/>
      <point x="-5" y="536" type="line"/>
      <point x="-5" y="526" type="line"/>
      <point x="-3" y="526" type="line" smooth="yes"/>
      <point x="34" y="526"/>
      <point x="41" y="521"/>
    </contour>
  </outline>
</glyph>
<glyph name="x" format="2">
  <advance width="467"/>
  <unicode hex="0078"/>
  <anchor x="234" y="0" name="bottom"/>
  <anchor x="235" y="553" name="top"/>
  <anchor x="448" y="553" name="topright"/>
  <outline>
    <contour>
      <point x="128" y="282" type="line"/>
      <point x="4" y="0" type="line"/>
      <point x="177" y="0" type="line"/>
      <point x="230" y="156" type="line"/>
      <point x="286" y="0" type="line"/>
      <point x="463" y="0" type="line"/>
      <point x="339" y="282" type="line"/>
      <point x="458" y="553" type="line"/>
      <point x="281" y="553" type="line"/>
      <point x="234" y="408" type="line"/>
      <point x="183" y="553" type="line"/>
      <point x="7" y="553" type="line"/>
    </contour>
  </outline>
</glyph>
<glyph name="y" format="2">
  <advance width="485"/>
  <unicode hex="0079"/>
  <anchor x="131" y="-240" name="bottom"/>
  <anchor x="243" y="553" name="top"/>
  <anchor x="465" y="553" name="topright"/>
  <outline>
    <contour>
      <point x="2" y="553" type="line"/>
      <point x="166" y="8" type="line"/>
      <point x="163" y="-2" type="line" smooth="yes"/>
      <point x="139" y="-83"/>
      <point x="130" y="-96"/>
      <point x="91" y="-96" type="curve" smooth="yes"/>
      <point x="78" y="-96"/>
      <point x="65" y="-94"/>
      <point x="52" y="-90" type="curve"/>
      <point x="52" y="-232" type="line"/>
      <point x="73" y="-237"/>
      <point x="96" y="-240"/>
      <point x="121" y="-240" type="curve" smooth="yes"/>
      <point x="220" y="-240"/>
      <point x="278" y="-186"/>
      <point x="320" y="-35" type="curve" smooth="yes"/>
      <point x="483" y="553" type="line"/>
      <point x="314" y="553" type="line"/>
      <point x="262" y="311" type="line" smooth="yes"/>
      <point x="253" y="270"/>
      <point x="249" y="242"/>
      <point x="247" y="220" type="curve"/>
      <point x="243" y="220" type="line"/>
      <point x="242" y="243"/>
      <point x="236" y="279"/>
      <point x="228" y="313" type="curve" smooth="yes"/>
      <point x="173" y="553" type="line"/>
    </contour>
  </outline>
</glyph>
<glyph name="y.serif" format="2">
  <advance width="491"/>
  <unicode hex="0079"/>
  <anchor x="136" y="-225" name="bottom"/>
  <anchor x="246" y="536" name="top"/>
  <anchor x="501" y="536" name="topright"/>
  <outline>
    <contour>
      <point x="19" y="-215" type="curve"/>
      <point x="19" y="-225" type="line"/>
      <point x="54" y="-225" type="line" smooth="yes"/>
      <point x="156" y="-225"/>
      <point x="221" y="-203"/>
      <point x="273" y="-30" type="curve" smooth="yes"/>
      <point x="421" y="464" type="line" smooth="yes"/>
      <point x="436" y="513"/>
      <point x="448" y="526"/>
      <point x="486" y="526" type="curve" smooth="yes"/>
      <point x="491" y="526" type="line"/>
      <point x="491" y="536" type="line"/>
      <point x="340" y="536" type="line"/>
      <point x="340" y="526" type="line"/>
      <point x="376" y="526" type="line" smooth="yes"/>
      <point x="403" y="526"/>
      <point x="415" y="518"/>
      <point x="415" y="496" type="curve" smooth="yes"/>
      <point x="415" y="486"/>
      <point x="412" y="470"/>
      <point x="407" y="453" type="curve" smooth="yes"/>
      <point x="343" y="239" type="line" smooth="yes"/>
      <point x="336" y="217"/>
      <point x="330" y="196"/>
      <point x="323" y="169" type="curve"/>
      <point x="316" y="189"/>
      <point x="307" y="214"/>
      <point x="297" y="240" type="curve" smooth="yes"/>
      <point x="222" y="444" type="line" smooth="yes"/>
      <point x="215" y="463"/>
      <point x="210" y="481"/>
      <point x="210" y="495" type="curve" smooth="yes"/>
      <point x="210" y="515"/>
      <point x="222" y="526"/>
      <point x="257" y="526" type="curve" smooth="yes"/>
      <point x="267" y="526" type="line"/>
      <point x="267" y="536" type="line"/>
      <point x="-3" y="536" type="line"/>
      <point x="-3" y="526" type="line"/>
      <point x="9" y="526" type="line" smooth="yes"/>
      <point x="26" y="526"/>
      <point x="33" y="515"/>
      <point x="48" y="480" type="curve" smooth="yes"/>
      <point x="261" y="-31" type="line"/>
      <point x="207" y="-200"/>
      <point x="155" y="-215"/>
    </contour>
  </outline>
</glyph>
<glyph name="z" format="2">
  <advance width="391"/>
  <unicode hex="007A"/>
  <anchor x="195" y="0" name="bottom"/>
  <anchor x="201" y="553" name="top"/>
  <anchor x="368" y="553" name="topright"/>
  <outline>
    <contour>
      <point x="375" y="0" type="line"/>
      <point x="375" y="135" type="line"/>
      <point x="205" y="135" type="line"/>
      <point x="368" y="446" type="line"/>
      <point x="368" y="553" type="line"/>
      <point x="25" y="553" type="line"/>
      <point x="25" y="418" type="line"/>
      <point x="186" y="418" type="line"/>
      <point x="15" y="98" type="line"/>
      <point x="15" y="0" type="line"/>
    </contour>
  </outline>
</glyph>
<glyph name="z.serif" format="2">
  <advance width="451"/>
  <unicode hex="007A"/>
  <anchor x="226" y="0" name="bottom"/>
  <anchor x="226" y="536" name="top"/>
  <anchor x="451" y="536" name="topright"/>
  <outline>
    <contour>
      <point x="0" y="0" type="line"/>
      <point x="437" y="0" type="line"/>
      <point x="443" y="181" type="line"/>
      <point x="433" y="181" type="line"/>
      <point x="430" y="141" type="line" smooth="yes"/>
      <point x="423" y="47"/>
      <point x="383" y="10"/>
      <point x="280" y="10" type="curve" smooth="yes"/>
      <point x="161" y="10" type="line"/>
      <point x="432" y="526" type="line"/>
      <point x="432" y="536" type="line"/>
      <point x="41" y="536" type="line"/>
      <point x="29" y="374" type="line"/>
      <point x="39" y="374" type="line"/>
      <point x="42" y="396" type="line" smooth="yes"/>
      <point x="55" y="490"/>
      <point x="97" y="526"/>
      <point x="191" y="526" type="curve" smooth="yes"/>
      <point x="271" y="526" type="line"/>
      <point x="0" y="10" type="line"/>
    </contour>
  </outline>
</glyph>
<glyph name="braceleft" format="2">
  <advance width="357"/>
  <unicode hex="007B"/>
  <outline>
    <contour>
      <point x="339" y="-168" type="curve"/>
      <point x="339" y="-39" type="line"/>
      <point x="278" y="-37"/>
      <point x="262" y="-24"/>
      <point x="262" y="14" type="curve" smooth="yes"/>
      <point x="262" y="155" type="line" smooth="yes"/>
      <point x="262" y="225"/>
      <point x="237" y="262"/>
      <point x="175" y="275" type="curve"/>
      <point x="175" y="281" type="line"/>
      <point x="236" y="292"/>
      <point x="262" y="330"/>
      <point x="262" y="404" type="curve" smooth="yes"/>
      <point x="262" y="543" type="line" smooth="yes"/>
      <point x="262" y="590"/>
      <point x="291" y="593"/>
      <point x="339" y="595" type="curve"/>
      <point x="339" y="724" type="line"/>
      <point x="150" y="724"/>
      <point x="109" y="681"/>
      <point x="109" y="558" type="curve" smooth="yes"/>
      <point x="109" y="425" type="line" smooth="yes"/>
      <point x="109" y="373"/>
      <point x="79" y="342"/>
      <point x="11" y="342" type="curve"/>
      <point x="11" y="213" type="line"/>
      <point x="76" y="213"/>
      <point x="109" y="182"/>
      <point x="109" y="130" type="curve" smooth="yes"/>
      <point x="109" y="0" type="line" smooth="yes"/>
      <point x="109" y="-138"/>
      <point x="166" y="-168"/>
    </contour>
  </outline>
</glyph>
<glyph name="braceleft.serif" format="2">
  <advance width="376"/>
  <unicode hex="007B"/>
  <outline>
    <contour>
      <point x="267" y="-124" type="curve" smooth="yes"/>
      <point x="364" y="-124" type="line"/>
      <point x="364" y="-114" type="line"/>
      <point x="326" y="-114" type="line" smooth="yes"/>
      <point x="286" y="-114"/>
      <point x="273" y="-91"/>
      <point x="273" y="-19" type="curve" smooth="yes"/>
      <point x="273" y="178" type="line" smooth="yes"/>
      <point x="273" y="287"/>
      <point x="230" y="316"/>
      <point x="83" y="319" type="curve"/>
      <point x="83" y="321" type="line"/>
      <point x="230" y="329"/>
      <point x="273" y="358"/>
      <point x="273" y="460" type="curve" smooth="yes"/>
      <point x="273" y="655" type="line" smooth="yes"/>
      <point x="273" y="727"/>
      <point x="286" y="750"/>
      <point x="326" y="750" type="curve" smooth="yes"/>
      <point x="364" y="750" type="line"/>
      <point x="364" y="760" type="line"/>
      <point x="267" y="760" type="line" smooth="yes"/>
      <point x="165" y="760"/>
      <point x="108" y="707"/>
      <point x="108" y="613" type="curve" smooth="yes"/>
      <point x="108" y="422" type="line" smooth="yes"/>
      <point x="108" y="348"/>
      <point x="85" y="324"/>
      <point x="12" y="323" type="curve"/>
      <point x="12" y="314" type="line"/>
      <point x="85" y="314"/>
      <point x="108" y="290"/>
      <point x="108" y="215" type="curve" smooth="yes"/>
      <point x="108" y="25" type="line" smooth="yes"/>
      <point x="108" y="-70"/>
      <point x="165" y="-124"/>
    </contour>
  </outline>
</glyph>
<glyph name="bar" format="2">
  <advance width="407"/>
  <unicode hex="007C"/>
  <outline>
    <contour>
      <point x="133" y="771" type="line"/>
      <point x="133" y="-229" type="line"/>
      <point x="274" y="-229" type="line"/>
      <point x="274" y="771" type="line"/>
    </contour>
  </outline>
</glyph>
<glyph name="braceright" format="2">
  <advance width="357"/>
  <unicode hex="007D"/>
  <outline>
    <contour>
      <point x="18" y="-39" type="curve"/>
      <point x="18" y="-168" type="line"/>
      <point x="207" y="-168"/>
      <point x="247" y="-125"/>
      <point x="247" y="0" type="curve" smooth="yes"/>
      <point x="247" y="130" type="line" smooth="yes"/>
      <point x="247" y="182"/>
      <point x="280" y="213"/>
      <point x="346" y="213" type="curve"/>
      <point x="346" y="342" type="line"/>
      <point x="278" y="342"/>
      <point x="247" y="373"/>
      <point x="247" y="425" type="curve" smooth="yes"/>
      <point x="247" y="558" type="line" smooth="yes"/>
      <point x="247" y="691"/>
      <point x="193" y="724"/>
      <point x="18" y="724" type="curve"/>
      <point x="18" y="595" type="line"/>
      <point x="58" y="593"/>
      <point x="94" y="591"/>
      <point x="94" y="543" type="curve" smooth="yes"/>
      <point x="94" y="404" type="line" smooth="yes"/>
      <point x="94" y="330"/>
      <point x="120" y="292"/>
      <point x="180" y="281" type="curve"/>
      <point x="180" y="275" type="line"/>
      <point x="118" y="262"/>
      <point x="94" y="225"/>
      <point x="94" y="155" type="curve" smooth="yes"/>
      <point x="94" y="14" type="line" smooth="yes"/>
      <point x="94" y="-27"/>
      <point x="77" y="-36"/>
    </contour>
  </outline>
</glyph>
